/* XPM */
static char *_e76cd247a034a4ea60736a470a58020[] = {
/* columns rows colors chars-per-pixel */
"50 50 178 2 ",
"   c #1B1B2A",
".  c #1B1A32",
"X  c #241B2C",
"o  c #1F2039",
"O  c #28222E",
"+  c #382629",
"@  c #222236",
"#  c #2B2737",
"$  c #22243A",
"%  c #262A3D",
"&  c #282C3A",
"*  c #372D33",
"=  c #2A303B",
"-  c #472F2E",
";  c #47342D",
":  c #50382F",
">  c #483D30",
",  c #593B30",
"<  c #584637",
"1  c #242743",
"2  c #272B48",
"3  c #292E4D",
"4  c #2E334E",
"5  c #33334E",
"6  c #3A3A4B",
"7  c #2D3451",
"8  c #343B54",
"9  c #343B5B",
"0  c #433A48",
"q  c #3E405C",
"w  c #3D4566",
"e  c #3F496A",
"r  c #404E43",
"t  c #455449",
"y  c #495D4C",
"u  c #575841",
"i  c #494C59",
"p  c #4D5F52",
"a  c #624248",
"s  c #74544F",
"d  c #68595C",
"f  c #5D6448",
"g  c #4E615A",
"h  c #516554",
"j  c #5F7E56",
"k  c #62714D",
"l  c #6C764F",
"z  c #607A53",
"x  c #414866",
"c  c #434C64",
"v  c #435160",
"b  c #5D6677",
"n  c #607D63",
"m  c #636B76",
"M  c #85514F",
"N  c #92594C",
"B  c #965D51",
"V  c #99654C",
"C  c #8D6951",
"Z  c #9E735D",
"A  c #8A6960",
"S  c #987465",
"D  c #817477",
"F  c #B47C63",
"G  c #63AB3F",
"H  c #6E8B56",
"J  c #63845B",
"K  c #6C845C",
"L  c #688A5C",
"P  c #708354",
"I  c #6A9757",
"U  c #6D9C56",
"Y  c #6E965B",
"T  c #6D9B5A",
"R  c #729D57",
"E  c #73945A",
"W  c #719C5B",
"Q  c #65A645",
"!  c #66AA44",
"~  c #69AC47",
"^  c #69A74A",
"/  c #69AA49",
"(  c #6EA455",
")  c #71A554",
"_  c #71AA55",
"`  c #72A15B",
"'  c #76AC5C",
"]  c #77B05C",
"[  c #79B05E",
"{  c #6E9960",
"}  c #769A6C",
"|  c #7B927D",
" . c #7AAD64",
".. c #7DAD6C",
"X. c #7DB065",
"o. c #819E5E",
"O. c #859767",
"+. c #849379",
"@. c #A9876C",
"#. c #B88562",
"$. c #A88978",
"%. c #BA9D7C",
"&. c #80A267",
"*. c #81B16B",
"=. c #84AC75",
"-. c #85AB7C",
";. c #96AA7B",
":. c #86B275",
">. c #89B27A",
",. c #CD9A78",
"<. c #69738C",
"1. c #717C89",
"2. c #747F98",
"3. c #7F8087",
"4. c #7A8195",
"5. c #849D84",
"6. c #848896",
"7. c #879997",
"8. c #989797",
"9. c #A69384",
"0. c #BA9D88",
"q. c #AE959A",
"w. c #B99E96",
"e. c #88A885",
"r. c #8DAC8C",
"t. c #97A886",
"y. c #94B18B",
"u. c #8FA497",
"i. c #95AA9C",
"p. c #95B492",
"a. c #98B595",
"s. c #BFA292",
"d. c #A3B69C",
"f. c #8B96AB",
"g. c #979CAB",
"h. c #8D9AB2",
"j. c #A49FA6",
"k. c #9AAEA3",
"l. c #95A5AD",
"z. c #94A1B6",
"x. c #9EABB6",
"c. c #98A5BA",
"v. c #9DAABB",
"b. c #A4A1A9",
"n. c #AAA8AD",
"m. c #B0A6A8",
"M. c #A6B9A7",
"N. c #A5B8AF",
"B. c #A5ADBE",
"V. c #A6B6BE",
"C. c #B7B4B9",
"Z. c #C29B86",
"A. c #CFA88C",
"S. c #D0A182",
"D. c #D4AD93",
"F. c #C8B39F",
"G. c #CCB5A5",
"H. c #D3B8AA",
"J. c #C3B3B0",
"K. c #B3C7AA",
"L. c #9DAAC0",
"P. c #A3AEC1",
"I. c #A7B3C5",
"U. c #ABB9C3",
"Y. c #B4B7C3",
"T. c #B1BCC3",
"R. c #B4BDCD",
"E. c #B5C4C3",
"W. c #B8C3C5",
"Q. c #B6C1D0",
"!. c #C6C4C3",
"~. c #C4CCD2",
"^. c #CFD3DA",
"/. c #D5D6DA",
"(. c #E4E1E2",
"). c #E9EEE6",
"_. c #EBECEB",
"`. c #F0F1F2",
/* pixels */
"G G G G G G G G G G G G G G G G G G G G G G G G G G G G G G G G G G G G G G G G G G G G G G G G G G ",
"G G G G G G G G G G G G G G G G G G G G G G G G G G G G G G G G G G G G G G G G G G G G G G G G G G ",
"G G G G G G G G G G G G G G G G G G G G G G G G G G G G G G G G G G G G G G G G G G G G G G G G G G ",
"G G G G G G G G G G G G G G G G G G G G G G G G G G G G G G G G G G G G G G G G G G G G G G G G G G ",
"G G G G G G G G G G G G G G G G G G G G G G G G G G G G G G G G G G G G G G G G G G G G G G G G G G ",
"G G G G G G G G G G G G G G G G G G G G G G G G G G G G G G G G G G G G G G G G G G G G G G G G G G ",
"G G G G G G G G G G G G G G G G G G G G G G G G G G G G G G G G G G G G G G G G G G G G G G G G G G ",
"G G G G G G G G G G G G G G G G G G G G G G G G G G G G G G G G G G G G G G G G G G G G G G G G G G ",
"G G G G G G G G G G G G G G G G G G G G G G G G G G G G G G G G G G G G G G G G G G G G G G G G G G ",
"G G G G G G G G G G G G G G G G G G G G G G G G G G G G G G G G G G G G G G G G G G G G G G G G G G ",
"G G G G G G G G G G G G G G G G G G G G G G ! ! ! G G G G G G G G G G G G G G G G G G G G G G G G G ",
"G G G G G G G G G G G G G G G G G G G G G ! ] :.X./ ! ! ! ! ! G G G G G G G G G G G G G G G G G G G ",
"G G G G G G G G G G G G G G G G G G G G G ! *.N.i.} } =.>.>.X.~ G G G G G G G G G G G G G G G G G G ",
"G G G G G G G G G G G G G G G G G G G G G ! ' r.7.m 1.l.T.W.d.*.~ ! G G G G G G G G G G G G G G G G ",
"G G G G G G G G G G G G G G G G G G G G G G ~  .| 1.f.n.G.H.F.;.[ [ ! G G G G G G G G G G G G G G G ",
"G G G G G G G G G G G G G G G G G G G G G G ~  .r.g.j.w.s.D.A.t.=.X.! G G G G G G G G G G G G G G G ",
"G G G G G G G G G G G G G G G G G G G G G ~ [ r.x.b.0.@.D 9.0.+. .~ G G G G G G G G G G G G G G G G ",
"G G G G G G G G G G G G G G G G G G G G ~ [ p.V.c.b.Z.#.C @.%.O./ G G G G G G G G G G G G G G G G G ",
"G G G G G G G G G G G G G G G G G G G ! ] p.T.P.z.z.m.A.S.G.G.;./ G G G G G G G G G G G G G G G G G ",
"G G G G G G G G G G G G G G G G G G G ~ :.E.U.u.u.x.B.C.J.Y.T.i. .! G G G G G G G G G G G G G G G G ",
"G G G G G G G G G G G G G G G G G G ! ] a.T.k.r.M.~.R.P.P.P.I.V.e.! G G G G G G G G G G G G G G G G ",
"G G G G G G G G G G G G G G G G G G ~ :.E.N.y.K.).`.^.v.z.L.R.U.e.! G G G G G G G G G G G G G G G G ",
"G G G G G G G G G G G G G G G G G ! ] a.W.N.K.)._./.C.4.2.h.v.x.-.! G G G G G G G G G G G G G G G G ",
"G G G G G G G G G G G G G G G G G ~ :.E.Q.~._._.!.n.6.c x <.f.7...! G G G G G G G G G G G G G G G G ",
"G G G G G G G G G G G G G G G G G ~ :.U.R.^.(.!.8.3.b 5 $ 8 b } / G G G G G G G G G G G G G G G G G ",
"G G G G G G G G G G G G G G G G G ! *.l.g.q.w.$.d i 5 $ . % p W ! G G G G G G G G G G G G G G G G G ",
"G G G G G G G G G G G G G G G G G ! ' 5.D M F Z - O .     r Y ! G G G G G G G G G G G G G G G G G G ",
"G G G G G G G G G G G G G G G G G G ~ &.A B ,.S + X @ . @ t T ! G G G G G G G G G G G G G G G G G G ",
"G G G G G G G G G G G G G G G G G G ~ o.V N S d $ $ 2 1 o $ y U ! G G G G G G G G G G G G G G G G G ",
"G G G G G G G G G G G G G G G G G ! ) K s a 0 5 3 3 2 $ . . $ y U ! G G G G G G G G G G G G G G G G ",
"G G G G G G G G G G G G G G G G ! _ n c q 8 4 3 3 3 1 . . . . $ y U ! G G G G G G G G G G G G G G G ",
"G G G G G G G G G G G G G G G G ! { v e e 9 7 3 4 4 % . . . . . & j Q G G G G G G G G G G G G G G G ",
"G G G G G G G G G G G G G G G ! _ n x x w 9 7 8 g J h = @ . . . & j Q G G G G G G G G G G G G G G G ",
"G G G G G G G G G G G G G G G ! W i w w 9 8 g L ` ^ ( J h @ . @ t U ! G G G G G G G G G G G G G G G ",
"G G G G G G G G G G G G G G G ! Y 0 6 8 8 g T Q ! ! ! ^ L # @ t I ! G G G G G G G G G G G G G G G G ",
"G G G G G G G G G G G G G G ! ) l - * 6 g T ! G G G ! ) k + * z Q G G G G G G G G G G G G G G G G G ",
"G G G G G G G G G G G G G ! ) l , - u L ` ! G G G G ! R ; + u W ! G G G G G G G G G G G G G G G G G ",
"G G G G G G G G G G G G ! _ P < : u U Q ! G G G G G ! R > ; f ` ! G G G G G G G G G G G G G G G G G ",
"G G G G G G G G G G G G ! _ E H H R ! G G G G G G G ! _ H H E ' ! G G G G G G G G G G G G G G G G G ",
"G G G G G G G G G G G G G ! ! ! ! ! G G G G G G G G G ! ! ! ! ! G G G G G G G G G G G G G G G G G G ",
"G G G G G G G G G G G G G G G G G G G G G G G G G G G G G G G G G G G G G G G G G G G G G G G G G G ",
"G G G G G G G G G G G G G G G G G G G G G G G G G G G G G G G G G G G G G G G G G G G G G G G G G G ",
"G G G G G G G G G G G G G G G G G G G G G G G G G G G G G G G G G G G G G G G G G G G G G G G G G G ",
"G G G G G G G G G G G G G G G G G G G G G G G G G G G G G G G G G G G G G G G G G G G G G G G G G G ",
"G G G G G G G G G G G G G G G G G G G G G G G G G G G G G G G G G G G G G G G G G G G G G G G G G G ",
"G G G G G G G G G G G G G G G G G G G G G G G G G G G G G G G G G G G G G G G G G G G G G G G G G G ",
"G G G G G G G G G G G G G G G G G G G G G G G G G G G G G G G G G G G G G G G G G G G G G G G G G G ",
"G G G G G G G G G G G G G G G G G G G G G G G G G G G G G G G G G G G G G G G G G G G G G G G G G G ",
"G G G G G G G G G G G G G G G G G G G G G G G G G G G G G G G G G G G G G G G G G G G G G G G G G G ",
"G G G G G G G G G G G G G G G G G G G G G G G G G G G G G G G G G G G G G G G G G G G G G G G G G G "
};
