/* XPM */
static char *_d51c7e047d64bf39506b74be0fb8347[] = {
/* columns rows colors chars-per-pixel */
"50 50 207 2 ",
"   c #110C21",
".  c #19162E",
"X  c #1C1A33",
"o  c #211F35",
"O  c #25253B",
"+  c #292A3A",
"@  c #392839",
"#  c #2B333A",
"$  c #531D2A",
"%  c #4C282B",
"&  c #58252D",
"*  c #48352F",
"=  c #4D2231",
"-  c #582E36",
";  c #5D3132",
":  c #513A31",
">  c #5A3B37",
",  c #642F35",
"<  c #474038",
"1  c #565B3E",
"2  c #644D3D",
"3  c #2E2C41",
"4  c #2D2F4C",
"5  c #372D46",
"6  c #2E334F",
"7  c #333749",
"8  c #2D3351",
"9  c #383B55",
"0  c #363D5E",
"q  c #4B3744",
"w  c #3C4251",
"e  c #3E4A54",
"r  c #3B4262",
"t  c #3F496A",
"y  c #48474B",
"u  c #47545D",
"i  c #515056",
"p  c #675C47",
"a  c #50694E",
"s  c #576E56",
"d  c #696548",
"f  c #6C7A4E",
"g  c #79645A",
"h  c #667D51",
"j  c #424C6C",
"k  c #48546A",
"l  c #555E6A",
"z  c #555C77",
"x  c #685B64",
"c  c #4E616C",
"v  c #58636B",
"b  c #776666",
"n  c #75706F",
"m  c #63697C",
"M  c #797677",
"N  c #9F725B",
"B  c #AD7958",
"V  c #8C7675",
"C  c #A47961",
"Z  c #61A03F",
"A  c #63AB3F",
"S  c #67814E",
"D  c #6D9E4E",
"F  c #61835B",
"G  c #6D8659",
"H  c #708858",
"J  c #6D9856",
"K  c #729553",
"L  c #729C59",
"P  c #65A444",
"I  c #65AB43",
"U  c #69AB47",
"Y  c #67A04D",
"T  c #6AA34C",
"R  c #6BAD4B",
"E  c #6EAD50",
"W  c #6FA05B",
"Q  c #71AF52",
"!  c #74A45C",
"~  c #73A859",
"^  c #73B154",
"/  c #77B15B",
"(  c #7AB25E",
")  c #658461",
"_  c #6C9365",
"`  c #769A66",
"'  c #7D8378",
"]  c #7BAF65",
"[  c #7AA769",
"{  c #7AB061",
"}  c #7EB06C",
"|  c #7DA971",
" . c #82B25D",
".. c #8B807C",
"X. c #83AE6F",
"o. c #86B76A",
"O. c #83B46D",
"+. c #82AC74",
"@. c #83AC79",
"#. c #8AAD7D",
"$. c #86B473",
"%. c #8FB171",
"&. c #8DBC75",
"*. c #8BB17D",
"=. c #8EBC78",
"-. c #91BC7C",
";. c #D7966A",
":. c #C79A7E",
">. c #D79E79",
",. c #6E768D",
"<. c #757789",
"1. c #728282",
"2. c #868885",
"3. c #928E8E",
"4. c #899689",
"5. c #878792",
"6. c #8C9C92",
"7. c #97979B",
"8. c #B59D94",
"9. c #8BA987",
"0. c #8EB582",
"q. c #90B684",
"w. c #94BC83",
"e. c #9AB987",
"r. c #93B28C",
"t. c #89A29B",
"y. c #99A299",
"u. c #99B496",
"i. c #98B298",
"p. c #A0B493",
"a. c #8692A7",
"s. c #8B91A1",
"d. c #999EA6",
"f. c #8F9BB1",
"g. c #AC9FA0",
"h. c #96ADA5",
"j. c #98A6AC",
"k. c #98AEAB",
"l. c #94A2B5",
"z. c #99A3B5",
"x. c #9AABB2",
"c. c #95A3BB",
"v. c #9AA6BA",
"b. c #9EAABD",
"n. c #A3A4AA",
"m. c #A4BAA7",
"M. c #A4AAB8",
"N. c #A3B4BC",
"B. c #ACB4BC",
"V. c #B3B9B8",
"C. c #C49E89",
"Z. c #C8AE8A",
"A. c #CFB38A",
"S. c #C0AA9F",
"D. c #D8B497",
"F. c #E1B28C",
"G. c #CAAFA2",
"H. c #CCB0A1",
"J. c #C5B5B2",
"K. c #96C081",
"L. c #9EC28B",
"P. c #A1C094",
"I. c #A7C29A",
"U. c #A9C39C",
"Y. c #AEC6A2",
"T. c #B2CAA5",
"R. c #B4C6B9",
"E. c #C5C0B0",
"W. c #A4AFC2",
"Q. c #B2B6C1",
"!. c #B4BDCA",
"~. c #B5C4C2",
"^. c #B8C9C4",
"/. c #B8C6C8",
"(. c #BDCACE",
"). c #BCC6D3",
"_. c #BFCAD1",
"`. c #C5CCCB",
"'. c #CBCBCB",
"]. c #CEDEC7",
"[. c #CFDFC8",
"{. c #D0DFC9",
"}. c #C2CAD4",
"|. c #C5CDDB",
" X c #CBD8D0",
".X c #C9D0DE",
"XX c #D5D4D5",
"oX c #D4DBDD",
"OX c #DCDDDF",
"+X c #DBE5D7",
"@X c #DFE7DB",
"#X c #E4EEDF",
"$X c #CCD3E0",
"%X c #D5DBE4",
"&X c #D8DCE3",
"*X c #DCE1E7",
"=X c #DDE2EA",
"-X c #E3E5EB",
";X c #E9EAE9",
":X c #E7F0E2",
">X c #EEF4EB",
",X c #F1F6EF",
"<X c #F4F7F2",
"1X c #F6F8F5",
"2X c #F5F7F8",
"3X c #F7F8F9",
"4X c #FEFEFE",
/* pixels */
"A A A A A A A A A A A A A A A A A A A A A A A A A A A A A A A A A A A A A A A A A A A A A A A A A A ",
"A A A A A A A A A A A A A A A A A A A A A A A A A A A A A A A A A A A A A A A A A A A A A A A A A A ",
"A A A A A A A A A A A A A A A A A A A A A A A A A A A A A A A A A A A A A A A A A A A A A A A A A A ",
"A A A A A A A A A A A A A A A A A A A A A A A A A A A A A A A A A A A A A A A A A A A A A A A A A A ",
"A A A A A A A A A A A A A A A A A A A A A A A A A A A A A A A A A A A A A A A A A A A A A A A A A A ",
"A A A A A A A A A A A A A A A A A A A A A A A A A A A A A A A A A A A A A A A A A A A A A A A A A A ",
"A A A A A A A A A A A A A A A A A A A A A A A A A A A A A A A A A A A A A A A A A A A A A A A A A A ",
"A A A A A A A A A A A A A A A A A A A A A A A A A A A A A A A A A A A A A A A A A A A A A A A A A A ",
"A A A A A A A A A A A A A A A A A A A A A A A A A A A A A A A A A A A A A A A A A A A A A A A A A A ",
"I A A A A A A A A A A A A A A A A A A A A I U R R R R R R R R R R R R R R R R R R R R R R R I A A A ",
"^ R R R R R R R R R R R R R R R R R R R R Q e.I.U.U.U.U.U.U.U.U.U.U.U.U.U.U.U.U.U.U.U.U.U.P.( I A A ",
"Y.U.U.U.U.U.U.U.U.U.U.U.U.U.U.U.U.U.U.U.U.T.@X<X<X<X<X<X<X<X<X<X<X<X<X<X<X<X<X<X<X<X<X<X<X>XT.^ I A ",
"[.>X<X<X<X<X<X<X<X<X<X<X<X<X<X<X<X<X<X<X<X<X4X4X4X4X4X4X4X4X4X4X4X4X4X4X4X4X4X4X4X4X4X4X4X4X:Xo.I A ",
"-.].>X3X4X4X4X4X4X4X4X4X4X4X4X4X4X4X4X4X4X4X4X4X4X4X4X4X4X4X4X4X4X4X4X4X4X4X4X4X4X4X4X4X4X4X1XT.^ I ",
"R o.K.[.>X3X4X4X4X4X4X4X4X4X4X4X4X4X4X4X4X4X4X4X4X4X4X4X4X4X4X4X4X,X>X>X>X,X3X4X4X4X4X4X4X4X4X:Xo.I ",
"A I R o.K.[.>X3X4X4X4X4X4X4X4X4X4X4X4X4X4X4X4X4X3X3X>X2X3X3X3X,X#XL.=.=.=.K.{.1X4X4X4X4X4X4X4X1XT./ ",
"A A A I R o.K.[.>X3X4X4X3X-X&X*X=X2X3X,X>X>X>X*X%XQ.5.B.).%XoXP.&.^ I I I R &.[.1X4X4X4X4X4X4X4X:X&.",
"A A A A A I R o.K.{.<X3X=X$X.X.X.X%XoXP.w.-.-.k.x.m ,.f.!.}.`.p./ R I A A A R &.[.1X4X4X4X4X4X4X1XR.",
"A A A A A A A I R =.V.$X$X|.|.|.|..X}.m.r.{ Q } | 1.a.l.M.G.D.Z.o.X.E I A A A R &.[.1X4X4X4X4X4X4X1X",
"A A A A A A A A U +.h.).}.|.|.|.|.|.|.}.(.i.r.{ ~ 6.d.8.C.8.S.D.e.O.R I A A A A R &.[.1X4X4X4X4X4X4X",
"A A A A A A A A I ( +.h.N.).}.}.|.|.|.|.}.)./.i.9.d.8.>.;.g b Z.%.R I A A A A A A R &.[.1X4X4X4X4X4X",
"A A A A A A A A A I R ] @.h.N.N.).}.}.).W.b.b.b.z.l.g.>.;.B C A. .I A A A A A A A A R &.[.1X4X4X4X4X",
"A A A A A A A A A A A I R ] } $.h.N.N.x.m z ,.M.B.v.z.8.>.>.H.E.O.I A A A A A A A A A R &.[.1X4X4X4X",
"A A A A A A A A A A A A A I I R ] } O.[ u z M.oXOX!.v.z.J.J.Q.B.r.Q I A A A A A A A A A R &.[.1X4X4X",
"A A A A A A A P P I A A A A A A I U T ) l M.;X3X3X&XB.v.M.W.!.!.x./ I A A A A A A A A A I Q w.+X4X4X",
"A A A A A A P H f T I A A A A A A P F v n.-X2X3X<XXXV.z.c.c.W.!.k./ I A A A A A A A I U Q e.T.:X4X4X",
"A A A A A A P d > d D P I A A A P F v j.-X<XXX'.'.V.y.j.l.l.l.x.@.R I A A A A A I U Q e.Y.@X<X4X4X4X",
"A A A A A A I K 2 ; d f T P I P F u 7.XX;X'.n.7.7.6.+.+.t.t.@.} R I A A A A I U E w.Y.@X<X4X4X,X>X>X",
"A A A A A A A U K 2 ; ; d f D F e 9 b V V 3.2.2.2.[ R R ] ] R I I A A A I U E *.u.`.;X3X3X,X#XL.=.=.",
"A A A A A A A A U K 2 ; & ; p q 5 5 > > > M 2.' ` R I A I I I I A A I U E *.u.~.}..X%XoX XL.&.^ I I ",
"A A A A A A A A A U W K 2 & & $ = - C B N ..M i s Y I A A A A A I U E *.u.~.}.|._.(.^.q.$.E I I A A ",
"A A A A A A A A A A I U K y = $ $ , :.F.8.5.i O + a Y I A I I U E *.u.~.}.|._.^.q.$.O.R I I A A A A ",
"A A A A A A A A A A A P F w 5 @ = , :.D.d.k o . X + a T I U E *.u.~._.(.(.^.q.O.R I I I A A A A A A ",
"A A A A A A A A A A P F e 6 4 4 5 q x n <.3     . X # J E *.u.~._.(.^.q.$.O.R I I A I I A A A A A A ",
"A A A A A A A A A P F e 6 8 8 0 r r r 9 9 X     . O 7 4.u.~./.(.^.q.O.R I I I A A A A A A A A A A A ",
"A A A A A A A A P F e 8 8 0 r t j k k 7 O X . o 7 <.s.!./.~.q.$.O.R I I A A A A A A A A A A A A A A ",
"A A A A A A A P h w 6 0 r t j k c _ ` G < + 7 <.s.B./.~.q.O.R I I I A A A A A A A A A A A A A A A A ",
"A A A A A A P h : @ 4 r k k c _ ! R T H i <.s.B.R.0.$.O.E I I A A A A A A A A A A A A A A A A A A A ",
"A A A A A P S < % * 7 u _ [ ! R U R ` 3.7.B.R.0.O.R I I I A A A A A A A A A A A A A A A A A A A A A ",
"A A A A A Z 1 % ; G L W R U U R E #.y.B.B.9.$.E I I A A A A A A A A A A A A A A A A A A A A A A A A ",
"A A A A A Z 1 : : h R I I U E #.r.m.#.' n G E I A A A A A A A A A A A A A A A A A A A A A A A A A A ",
"A A A A A I W L L ~ R A U +.r.m.*.O.Q ~ ! ~ R I A A A A A A A A A A A A A A A A A A A A A A A A A A ",
"A A A A A A I I I I A A I ( O.O.R I I I I I I A A A A A A A A A A A A A A A A A A A A A A A A A A A ",
"A A A A A A A A A A A A A I I I I A A A A A A A A A A A A A A A A A A A A A A A A A A A A A A A A A ",
"A A A A A A A A A A A A A A A A A A A A A A A A A A A A A A A A A A A A A A A A A A A A A A A A A A ",
"A A A A A A A A A A A A A A A A A A A A A A A A A A A A A A A A A A A A A A A A A A A A A A A A A A ",
"A A A A A A A A A A A A A A A A A A A A A A A A A A A A A A A A A A A A A A A A A A A A A A A A A A ",
"A A A A A A A A A A A A A A A A A A A A A A A A A A A A A A A A A A A A A A A A A A A A A A A A A A ",
"A A A A A A A A A A A A A A A A A A A A A A A A A A A A A A A A A A A A A A A A A A A A A A A A A A ",
"A A A A A A A A A A A A A A A A A A A A A A A A A A A A A A A A A A A A A A A A A A A A A A A A A A "
};
