/* XPM */
static char *_aab802115364eefadf7567aa2a45b35[] = {
/* columns rows colors chars-per-pixel */
"50 50 205 2 ",
"   c #100A1F",
".  c #110C21",
"X  c #16142B",
"o  c #19162B",
"O  c #1B1A32",
"+  c #1F213A",
"@  c #3E2A28",
"#  c #222234",
"$  c #2A2D3B",
"%  c #2D343C",
"&  c #3D3738",
"*  c #4E1F2E",
"=  c #531D2A",
"-  c #492F2C",
";  c #59292E",
":  c #4B372E",
">  c #54312B",
",  c #482435",
"<  c #522934",
"1  c #5D2A31",
"2  c #483D31",
"3  c #5C3734",
"4  c #603B37",
"5  c #4D4738",
"6  c #55543E",
"7  c #62433B",
"8  c #292941",
"9  c #2B2F4D",
"0  c #322B44",
"q  c #3B2B42",
"w  c #332E48",
"e  c #2C314F",
"r  c #32354E",
"t  c #2C3250",
"y  c #313652",
"u  c #333A52",
"i  c #333A5A",
"p  c #3A3F5C",
"a  c #483642",
"s  c #394156",
"d  c #3B4464",
"f  c #3E4768",
"g  c #47554B",
"h  c #474B5C",
"j  c #574957",
"k  c #4C5554",
"l  c #4B5C59",
"z  c #5E5159",
"x  c #665342",
"c  c #68594A",
"v  c #6B5A59",
"b  c #5C6546",
"n  c #556A57",
"m  c #5B7753",
"M  c #59715A",
"N  c #616A49",
"B  c #6B6D4D",
"V  c #63774D",
"C  c #6D724E",
"Z  c #696757",
"A  c #6F7A50",
"S  c #464B67",
"D  c #424C6B",
"F  c #48526B",
"G  c #4C5C6C",
"H  c #575765",
"J  c #545B76",
"K  c #6B6C6A",
"L  c #66697B",
"P  c #797778",
"I  c #88594D",
"U  c #855C55",
"Y  c #82625F",
"T  c #9A6C55",
"R  c #B36E50",
"E  c #AA7A59",
"W  c #886C6C",
"Q  c #9F7163",
"!  c #8A7675",
"~  c #AB7962",
"^  c #63AB3F",
"/  c #6E8D55",
"(  c #69875E",
")  c #738F57",
"_  c #6D9556",
"`  c #6B955C",
"'  c #6D9C59",
"]  c #729B56",
"[  c #759B57",
"{  c #729D5B",
"}  c #66A445",
"|  c #66AB43",
" . c #68AC46",
".. c #69A74B",
"X. c #6BAC4B",
"o. c #6DA551",
"O. c #6EAA52",
"+. c #6FA25A",
"@. c #71A453",
"#. c #71AC53",
"$. c #73A25B",
"%. c #74AD5A",
"&. c #73B055",
"*. c #76B159",
"=. c #79B25D",
"-. c #658267",
";. c #688868",
":. c #7F9972",
">. c #76A366",
",. c #7CAD66",
"<. c #7EAD6B",
"1. c #7EB265",
"2. c #7EB06A",
"3. c #928F5B",
"4. c #81A85B",
"5. c #849E79",
"6. c #A4917A",
"7. c #BF9F7B",
"8. c #82AB67",
"9. c #91AD6F",
"0. c #82B36B",
"q. c #83AD75",
"w. c #87A379",
"e. c #98AD78",
"r. c #85B471",
"t. c #8DBB76",
"y. c #8DB678",
"u. c #90BC7B",
"i. c #C1865E",
"p. c #D9986D",
"a. c #D59E7B",
"s. c #6C758D",
"d. c #757888",
"f. c #8A7D85",
"g. c #7A8D88",
"h. c #798096",
"j. c #8A8986",
"k. c #8F968F",
"l. c #808C9D",
"z. c #8B9B98",
"x. c #989B96",
"c. c #AD958C",
"v. c #85A685",
"b. c #8CAE84",
"n. c #8DAB8C",
"m. c #90A689",
"M. c #91AF8C",
"N. c #94B689",
"B. c #97B293",
"V. c #9AB496",
"C. c #9AB299",
"Z. c #B5A59D",
"A. c #A9B894",
"S. c #878EA3",
"D. c #9097AB",
"F. c #949AA8",
"G. c #95A7A8",
"H. c #94A1B4",
"J. c #99A6B8",
"K. c #A6A5A9",
"L. c #B8A7A5",
"P. c #A6B7AA",
"I. c #A6A9B4",
"U. c #A3ACBA",
"Y. c #B2AEB4",
"T. c #A8B5B9",
"R. c #B6B4B7",
"E. c #C59E88",
"W. c #CBA88C",
"Q. c #DFB18C",
"!. c #CCAB95",
"~. c #D5B097",
"^. c #C6B9B0",
"/. c #ABC69D",
"(. c #AFC9A2",
"). c #B1C8A7",
"_. c #B7C9B8",
"`. c #9DAAC1",
"'. c #A3AEC1",
"]. c #A9B3C1",
"[. c #ACB8C7",
"{. c #B2BBCA",
"}. c #B9C6C5",
"|. c #B9C7C9",
" X c #BAC4CD",
".X c #B8C2D1",
"XX c #BFC8D5",
"oX c #C9C9CD",
"OX c #CEDBC7",
"+X c #C1CBD5",
"@X c #C7CCD7",
"#X c #CAD4D7",
"$X c #D8D9DC",
"%X c #E2EADE",
"&X c #DADEE1",
"*X c #DCE3E5",
"=X c #E5E6E7",
"-X c #E6EEE3",
";X c #EBEDED",
":X c #EEF4EC",
">X c #F0F3EE",
",X c #EAEDF1",
"<X c #F4F6F3",
"1X c #F7F8F9",
"2X c #FEFEFE",
/* pixels */
"^ ^ ^ ^ ^ ^ ^ ^ ^ ^ ^ ^ ^ ^ ^ ^ ^ ^ ^ ^ ^ ^ ^ ^ ^ ^ ^ ^ ^ ^ ^ ^ ^ ^ ^ ^ ^ ^ ^ ^ ^ ^ ^ ^ ^ ^ ^ ^ ^ ^ ",
"^ ^ ^ ^ ^ ^ ^ ^ ^ ^ ^ ^ ^ ^ ^ ^ ^ ^ ^ ^ ^ ^ ^ ^ ^ ^ ^ ^ ^ ^ ^ ^ ^ ^ ^ ^ ^ ^ ^ ^ ^ ^ ^ ^ ^ ^ ^ ^ ^ ^ ",
"^ ^ ^ ^ ^ ^ ^ ^ ^ ^ ^ ^ ^ ^ ^ ^ ^ ^ ^ ^ ^ ^ ^ ^ ^ ^ ^ ^ ^ ^ ^ ^ ^ ^ ^ ^ ^ ^ ^ ^ ^ ^ ^ ^ ^ ^ ^ ^ ^ ^ ",
"^ ^ ^ ^ ^ ^ ^ ^ ^ ^ ^ ^ ^ ^ ^ ^ ^ ^ ^ ^ ^ ^ ^ ^ ^ ^ ^ ^ ^ ^ ^ ^ ^ ^ ^ ^ ^ ^ ^ ^ ^ ^ ^ ^ ^ ^ ^ ^ ^ ^ ",
"^ ^ ^ ^ ^ ^ ^ ^ ^ ^ ^ ^ ^ ^ ^ ^ ^ ^ ^ ^ ^ ^ ^ ^ ^ ^ ^ ^ ^ ^ ^ ^ ^ ^ ^ ^ ^ ^ ^ ^ ^ ^ ^ ^ ^ ^ ^ ^ ^ ^ ",
"^ ^ ^ ^ ^ ^ ^ ^ ^ ^ ^ ^ ^ ^ ^ ^ ^ ^ ^ ^ ^ ^ ^ ^ ^ ^ ^ ^ ^ ^ ^ ^ ^ ^ ^ ^ ^ ^ ^ ^ ^ ^ ^ ^ ^ ^ ^ ^ ^ ^ ",
"^ ^ ^ ^ ^ ^ ^ ^ ^ ^ ^ ^ ^ ^ ^ ^ ^ ^ ^ ^ ^ ^ ^ ^ ^ ^ ^ ^ ^ ^ ^ ^ ^ ^ ^ ^ ^ ^ ^ ^ ^ ^ ^ ^ ^ ^ ^ ^ ^ ^ ",
"^ ^ ^ ^ ^ ^ ^ ^ ^ ^ ^ ^ ^ ^ ^ ^ ^ ^ ^ ^ ^ ^ ^ ^ ^ ^ ^ ^ ^ ^ ^ ^ ^ ^ ^ ^ ^ ^ ^ ^ ^ ^ ^ ^ ^ ^ ^ ^ ^ ^ ",
"^ ^ ^ ^ ^ ^ ^ ^ ^ ^ ^ ^ ^ ^ ^ ^ ^ ^ ^ ^ ^ ^ ^ ^ ^ ^ ^ ^ ^ ^ ^ ^ ^ ^ ^ ^ ^ ^ ^ ^ ^ ^ ^ ^ ^ ^ ^ ^ ^ ^ ",
"^ ^ ^ ^ ^ ^ ^ ^ ^ ^ ^ ^ ^ ^ ^ ^ ^ ^ ^ ^ ^ ^ ^ ^ ^ ^ ^ ^ ^ ^ ^ ^ ^ ^ ^ ^ ^ ^ ^ ^ ^ ^ ^ ^ ^ ^ ^ ^ ^ ^ ",
"^ ^ ^ ^ ^ ^ ^ ^ ^ ^ ^ ^ ^ ^ ^ ^ ^ ^ ^ ^ ^ ^ ^ ^ ^ ^ ^ ^ ^ ^ ^ ^ ^ ^ ^ ^ ^ ^ ^ ^ ^ ^ ^ ^ ^ ^ ^ ^ ^ ^ ",
"^ ^ ^ ^ ^ ^ ^ ^ ^ ^ ^ ^ ^ ^ ^ ^ ^ ^ ^ ^ ^ ^ ^ ^ ^ ^ ^ ^ ^ ^ ^ ^ ^ ^ ^ ^ ^ ^ ^ ^ ^ ^ ^ ^ ^ ^ ^ ^ ^ ^ ",
"^ ^ ^ ^ ^ ^ ^ ^ ^ ^ ^ ^ ^ ^ ^ ^ ^ ^ ^ ^ ^ ^ ^ ^ ^ | ^ ^ ^ ^ ^ ^ ^ ^ ^ ^ ^ ^ ^ ^ ^ ^ ^ ^ ^ ^ ^ ^ ^ ^ ",
"| ^ ^ ^ ^ ^ ^ ^ ^ ^ ^ ^ ^ ^ ^ ^ ^ ^ ^ ^ ^ ^ ^  .X.X.X.X.X.X.X.X.X.X.X.X.X.X.X.X.X.X.X.X.X.X.X.| ^ ^ ",
"0.O.X.X.X.X.X.X.X.X.X.X.X.X.X.X.X.X.X.X.X.X.#.y./.(.(.(.(.(.(.A.V.V.B.B.B.B.B.B.B.B.B.M.b.b.b.1.| ^ ",
"_.(.(.(.(.(.(.(.(.(.(.(.(.(.(.(.(.(.(.(.(.(.).OX:X<X<X<X<X<X<X:X=X&X@X+X+X|.}.}.}.}._.N.0.1.1.&.| ^ ",
"(.%X<X<X<X<X<X<X<X<X<X<X<X<X<X<X<X<X<X<X<X<X<X1X2X2X2X2X2X2X2X<X:X-X*X#X}.B.r.r.r.r.0.*. . .| | ^ ^ ",
"1./.-X<X2X2X2X2X2X2X2X2X2X2X2X2X2X2X2X2X2X2X2X2X2X,X*X,X,X<X;X).N.u.t.r.0.*. .|  . .| | ^ ^ ^ ^ ^ ^ ",
" .=.t.(.-X<X2X2X2X2X2X2X2X2X2X2X2X2X2X<X:X:X:X:X:X#X.X{.S.F.{.P.V.r.X. .| | ^ ^ ^ ^ ^ ^ ^ ^ ^ ^ ^ ^ ",
"^ |  .=.t.(.-X<X2X2X2X2X2X<X>X:X:X:X-X/.u.t.t.t.t.M.G.d.L S.'. X}.P.0.X.| ^ ^ ^ ^ ^ ^ ^ ^ ^ ^ ^ ^ ^ ",
"^ ^ ^ |  .=.t.(.-X<X2X2X;XI.m.u.t.t.t.*. . . . .X.,.q.g.l.H.I.L.~.!.e.0.=.| ^ ^ ^ ^ ^ ^ ^ ^ ^ ^ ^ ^ ",
"^ ^ ^ ^ ^ |  .=.t.(.-X=XK.H K >.O.X. .| | | X.X.r.B.C.G.F.Z.E.c.Z.~.A.r.&.| ^ ^ ^ ^ ^ ^ ^ ^ ^ ^ ^ ^ ",
"^ ^ ^ ^ ^ | ^ |  .=.5.P Y I ! z.v.<.X.X.X.r.B.B.P. X X].L.a.p.Q Z 6.e.*. .^ ^ ^ ^ ^ ^ ^ ^ ^ ^ ^ ^ ^ ",
"^ ^ ^ ^ ^ ^ ^ ^ ^ | ` c T R c.U.{.P.V.B.V.P.|.].J.'.'.J.K.E.p.i.E 7.9. .^ ^ ^ ^ ^ ^ ^ ^ ^ ^ ^ ^ ^ ^ ",
"^ ^ ^ ^ ^ ^ ^ ^ ^ | #.[ 3.E c.T.XX+X+XXX X].H.h.s.D.T.U.H.K.W.a.!.^.y.X.^ | ^ ^ ^ ^ ^ ^ ^ ^ ^ ^ ^ ^ ",
"^ ^ ^ ^ ^ ^ ^ ^ ^ ^ |  .#.4.8.n.[.+XXX[.H.s.J J D.#X&XoXU.J.Y.^.R.].C.2.| | ^ | ^ ^ ^ ^ ^ ^ ^ ^ ^ ^ ",
"^ ^ ^ ^ ^ ^ ^ ^ ^ ^ | }  .|  .%.n.U.J.h.G p S S.$X1X1X;XoXU.J.'.[.{.T.q.| ^ ^ ^ ^ ^ ^ ^ ^ ^ ^ ^ ^ ^ ",
"^ ^ ^ ^ ^ ^ ^ ^ ^ | { A ]  .|  .%.2.<.>.M s h.$X1X1X1X<XoXK.F.H.`.[.T.q.| ^ ^ ^ ^ ^ ^ ^ ^ ^ ^ ^ ^ ^ ",
"^ ^ ^ ^ ^ ^ ^ ^ ^ | ) 7 x ] } | |  .X.` l F I.<X1X$XoXoXP.k.z.H.H.J.v.%.| ^ ^ ^ ^ ^ ^ ^ ^ ^ ^ ^ ^ ^ ",
"^ ^ ^ ^ ^ ^ ^ ^ ^ | @.C 4 x B ] } } ` l s d.oX=X$XY.x.x.w.,.<.v.G.v.%. .^ ^ ^ ^ ^ ^ ^ ^ ^ ^ ^ ^ ^ ^ ",
"^ ^ ^ ^ ^ ^ ^ ^ ^ ^ | @.C 3 1 x B N k r y z W W j.j.j.5.%. . .%.,.%. .^ ^ ^ ^ ^ ^ ^ ^ ^ ^ ^ ^ ^ ^ ^ ",
"^ ^ ^ ^ ^ ^ ^ ^ ^ ^ ^ | @.C 3 1 ; < , q w a 4 3 v P :.%.| ^ ^ | | | ^ ^ ^ ^ ^ ^ ^ ^ ^ ^ ^ ^ ^ ^ ^ ^ ",
"^ ^ ^ ^ ^ ^ ^ ^ ^ ^ ^ ^ | #.[ B ; = = * < U ~ E U z ( X.^ ^ ^ ^ ^ ^ ^ ^ ^ ^ ^ ^ ^ ^ ^ ^ ^ ^ ^ ^ ^ ^ ",
"^ ^ ^ ^ ^ ^ ^ ^ ^ ^ ^ ^ ^ | ..( a , = = 1 ~ Q.W.f.h g _ | ^ ^ ^ ^ ^ ^ ^ ^ ^ ^ ^ ^ ^ ^ ^ ^ ^ ^ ^ ^ ^ ",
"^ ^ ^ ^ ^ ^ ^ ^ ^ ^ ^ ^ ^ | ` l r 0 q , 1 Q ~.Z.L $ # g _ | ^ ^ ^ ^ ^ ^ ^ ^ ^ ^ ^ ^ ^ ^ ^ ^ ^ ^ ^ ^ ",
"^ ^ ^ ^ ^ ^ ^ ^ ^ ^ ^ ^ | { l y 9 9 9 w q j K d.h X . O g ' | ^ ^ ^ ^ ^ ^ ^ ^ ^ ^ ^ ^ ^ ^ ^ ^ ^ ^ ^ ",
"^ ^ ^ ^ ^ ^ ^ ^ ^ ^ ^ ^ } ( u 9 9 9 t i p u 9 r 8 X   X $ ` | ^ ^ ^ ^ ^ ^ ^ ^ ^ ^ ^ ^ ^ ^ ^ ^ ^ ^ ^ ",
"^ ^ ^ ^ ^ ^ ^ ^ ^ ^ ^ | ` l e 9 e t i f D u + O O X X o % ` | ^ ^ ^ ^ ^ ^ ^ ^ ^ ^ ^ ^ ^ ^ ^ ^ ^ ^ ^ ",
"^ ^ ^ ^ ^ ^ ^ ^ ^ ^ | ` l y e t i d f G -.M $ O O O O $ m o.| ^ ^ ^ ^ ^ ^ ^ ^ ^ ^ ^ ^ ^ ^ ^ ^ ^ ^ ^ ",
"^ ^ ^ ^ ^ ^ ^ ^ ^ | ` l y t i d f D G ;.%.+.n # O # % m o.| ^ ^ ^ ^ ^ ^ ^ ^ ^ ^ ^ ^ ^ ^ ^ ^ ^ ^ ^ ^ ",
"^ ^ ^ ^ ^ ^ ^ ^ | _ k r t i f D F G ;.O.X._ 5 # $ m ' O.| ^ ^ ^ ^ ^ ^ ^ ^ ^ ^ ^ ^ ^ ^ ^ ^ ^ ^ ^ ^ ^ ",
"^ ^ ^ ^ ^ ^ ^ | _ 6 @ 0 y d F G ;.>.%.X._ 6 @ & m o.| | ^ ^ ^ ^ ^ ^ ^ ^ ^ ^ ^ ^ ^ ^ ^ ^ ^ ^ ^ ^ ^ ^ ",
"^ ^ ^ ^ ^ ^ | ] 6 - - & s h -.$.%.| | ] 6 @ : V o.| ^ ^ ^ ^ ^ ^ ^ ^ ^ ^ ^ ^ ^ ^ ^ ^ ^ ^ ^ ^ ^ ^ ^ ^ ",
"^ ^ ^ ^ ^ ^ | / : > B { { +.O.| | ^ | / 2 @ N @.| ^ ^ ^ ^ ^ ^ ^ ^ ^ ^ ^ ^ ^ ^ ^ ^ ^ ^ ^ ^ ^ ^ ^ ^ ^ ",
"^ ^ ^ ^ ^ ^ | / 5 : N $. .| | ^ ^ ^ | o.V 2 b $.| ^ ^ ^ ^ ^ ^ ^ ^ ^ ^ ^ ^ ^ ^ ^ ^ ^ ^ ^ ^ ^ ^ ^ ^ ^ ",
"^ ^ ^ ^ ^ ^ | #.] ] @.#.| ^ ^ ^ ^ ^ ^ | #.] @.#.| ^ ^ ^ ^ ^ ^ ^ ^ ^ ^ ^ ^ ^ ^ ^ ^ ^ ^ ^ ^ ^ ^ ^ ^ ^ ",
"^ ^ ^ ^ ^ ^ ^ | | | | | ^ ^ ^ | ^ ^ ^ ^ | | | | ^ ^ ^ ^ ^ ^ ^ ^ ^ ^ ^ ^ ^ ^ ^ ^ ^ ^ ^ ^ ^ ^ ^ ^ ^ ^ ",
"^ ^ ^ ^ ^ ^ ^ ^ ^ ^ ^ ^ ^ ^ ^ ^ ^ ^ ^ ^ ^ ^ ^ ^ ^ ^ ^ ^ ^ ^ ^ ^ ^ ^ ^ ^ ^ ^ ^ ^ ^ ^ ^ ^ ^ ^ ^ ^ ^ ^ ",
"^ ^ ^ ^ ^ ^ ^ ^ ^ ^ ^ ^ ^ ^ ^ ^ ^ ^ ^ ^ ^ ^ ^ ^ ^ ^ ^ ^ ^ ^ ^ ^ ^ ^ ^ ^ ^ ^ ^ ^ ^ ^ ^ ^ ^ ^ ^ ^ ^ ^ ",
"^ ^ ^ ^ ^ ^ ^ ^ ^ ^ ^ ^ ^ ^ ^ ^ ^ ^ ^ ^ ^ ^ ^ ^ ^ ^ ^ ^ ^ ^ ^ ^ ^ ^ ^ ^ ^ ^ ^ ^ ^ ^ ^ ^ ^ ^ ^ ^ ^ ^ "
};
