/* XPM */
static char *_13d361866bd4e5389f9aa04f7cf1211[] = {
/* columns rows colors chars-per-pixel */
"50 50 201 2 ",
"   c #100A1F",
".  c #120D22",
"X  c #1A162C",
"o  c #181730",
"O  c #1B1B33",
"+  c #251F29",
"@  c #2F252F",
"#  c #3D2A28",
"$  c #232435",
"%  c #282B39",
"&  c #322838",
"*  c #2E363E",
"=  c #3A383A",
"-  c #521D2A",
";  c #4A2B29",
":  c #57262D",
">  c #42302C",
",  c #4B362D",
"<  c #4B2837",
"1  c #41253A",
"2  c #572A30",
"3  c #483F31",
"4  c #5E3934",
"5  c #5F3238",
"6  c #613D38",
"7  c #4B422F",
"8  c #4C4635",
"9  c #584D3B",
"0  c #52543C",
"q  c #62453A",
"w  c #68533E",
"e  c #2A2F4E",
"r  c #3B2A42",
"t  c #312D49",
"y  c #2C314F",
"u  c #31334C",
"i  c #393948",
"p  c #2E3453",
"a  c #353B52",
"s  c #3E3D50",
"d  c #393E5D",
"f  c #473948",
"g  c #653F45",
"h  c #3B4146",
"j  c #3B4657",
"k  c #3A4262",
"l  c #404F46",
"z  c #52444E",
"x  c #415147",
"c  c #4D5244",
"v  c #495E4A",
"b  c #7C4947",
"n  c #6A5254",
"m  c #4B624A",
"M  c #5D6B47",
"N  c #5A694B",
"B  c #566F5A",
"V  c #5B6959",
"C  c #5A7453",
"Z  c #567059",
"A  c #6C6859",
"S  c #6F7553",
"D  c #657953",
"F  c #424C6B",
"G  c #48516B",
"H  c #4B596D",
"J  c #535D61",
"K  c #525A76",
"L  c #595F78",
"P  c #685D66",
"I  c #576568",
"U  c #586E6B",
"Y  c #59706A",
"T  c #5B637F",
"R  c #6F6268",
"E  c #6E7176",
"W  c #797378",
"Q  c #865C4A",
"!  c #8F634A",
"~  c #AB6E49",
"^  c #B46B49",
"/  c #A77557",
"(  c #B17C50",
")  c #876D6F",
"_  c #8B7975",
"`  c #AB7C64",
"'  c #63AB3F",
"]  c #5F8153",
"[  c #669E44",
"{  c #678654",
"}  c #718853",
"|  c #728957",
" . c #6C9355",
".. c #6A9954",
"X. c #729C56",
"o. c #789459",
"O. c #729F5A",
"+. c #64A443",
"@. c #65AB42",
"#. c #68AB47",
"$. c #67A448",
"%. c #6DA24F",
"&. c #67A949",
"*. c #6BAB4B",
"=. c #70AD4D",
"-. c #6CA252",
";. c #6EAB50",
":. c #6FA05E",
">. c #77A156",
",. c #71AE52",
"<. c #71A65B",
"1. c #74AC59",
"2. c #72B053",
"3. c #78B05F",
"4. c #678663",
"5. c #6F9B63",
"6. c #788F70",
"7. c #779276",
"8. c #7C9973",
"9. c #78A760",
"0. c #7AAD63",
"q. c #7EAD6A",
"w. c #7AB161",
"e. c #8B915B",
"r. c #83A75C",
"t. c #829A7D",
"y. c #B58968",
"u. c #82AD68",
"i. c #85A977",
"p. c #85AC7B",
"a. c #89B873",
"s. c #8CB27D",
"d. c #91B07B",
"f. c #AEAC7F",
"g. c #D79569",
"h. c #DB9D75",
"j. c #666D86",
"k. c #71788E",
"l. c #727D8C",
"z. c #75818F",
"x. c #86888E",
"c. c #9F8D8D",
"v. c #8E9E86",
"b. c #889695",
"n. c #979996",
"m. c #BF9D8B",
"M. c #B79E95",
"N. c #89A988",
"B. c #92B783",
"V. c #93BA82",
"C. c #92B28A",
"Z. c #99BD89",
"A. c #8BA693",
"S. c #95AC9A",
"D. c #9DB996",
"F. c #99B399",
"G. c #AFB18E",
"H. c #8A92A4",
"J. c #8A95AC",
"K. c #8D98AF",
"L. c #9199A2",
"P. c #929EAE",
"I. c #A49FA6",
"U. c #8EA2AB",
"Y. c #97A5A9",
"T. c #9EB4AB",
"R. c #94A2B6",
"E. c #9BA3B4",
"W. c #98A5BA",
"Q. c #9EACBB",
"!. c #A0A1AD",
"~. c #A1B2AF",
"^. c #A8ACB5",
"/. c #A8AEBA",
"(. c #B2AFB7",
"). c #B8BEB7",
"_. c #C39E8A",
"`. c #D7AA89",
"'. c #C7B196",
"]. c #CDB19C",
"[. c #D1B09B",
"{. c #C6B3A7",
"}. c #C6B6B3",
"|. c #B7C8B6",
" X c #BFCFBF",
".X c #C5D4BF",
"XX c #A3AEC0",
"oX c #ACB7C5",
"OX c #B6BDC8",
"+X c #B3BECC",
"@X c #B9C3C9",
"#X c #BCC4CD",
"$X c #B9C1D0",
"%X c #C4C5C9",
"&X c #C9D7C9",
"*X c #CAD9C9",
"=X c #D2D4D6",
"-X c #DDDEE0",
";X c #E7E6E7",
":X c #F4F4F5",
">X c #FBFBFB",
/* pixels */
"' ' ' ' ' ' ' ' ' ' ' ' ' ' ' ' ' ' ' ' ' ' ' ' ' ' ' ' ' ' ' ' ' ' ' ' ' ' ' ' ' ' ' ' ' ' ' ' ' ' ",
"' ' ' ' ' ' ' ' ' ' ' ' ' ' ' ' ' ' ' ' ' ' ' ' ' ' ' ' ' ' ' ' ' ' ' ' ' ' ' ' ' ' ' ' ' ' ' ' ' ' ",
"' ' ' ' ' ' ' ' ' ' ' ' ' ' ' ' ' ' ' ' ' ' ' ' ' ' ' ' ' ' ' ' ' ' ' ' ' ' ' ' ' ' ' ' ' ' ' ' ' ' ",
"' ' ' ' ' ' ' ' ' ' ' ' ' ' ' ' ' ' ' ' ' ' ' ' ' ' ' ' ' ' ' ' ' ' ' ' ' ' ' ' ' ' ' ' ' ' ' ' ' ' ",
"' ' ' ' ' ' ' ' ' ' ' ' ' ' ' ' ' ' ' ' ' ' ' ' ' ' ' ' ' ' ' ' ' ' ' ' ' ' ' ' ' ' ' ' ' ' ' ' ' ' ",
"' ' ' ' ' ' ' ' ' ' ' ' ' ' ' ' ' ' ' ' ' ' ' ' ' ' ' ' ' ' ' ' ' ' ' ' ' ' ' ' ' ' ' ' ' ' ' ' ' ' ",
"' ' ' ' ' ' ' ' ' ' ' ' ' ' ' ' ' ' ' ' ' ' ' ' ' ' ' ' ' ' ' ' ' ' ' ' ' ' ' ' ' ' ' ' ' ' ' ' ' ' ",
"' ' ' ' ' ' ' ' ' ' ' ' ' ' ' ' ' ' ' ' ' ' ' ' ' ' ' ' ' ' ' ' ' ' ' ' ' ' ' ' ' ' ' ' ' ' ' ' ' ' ",
"' ' ' ' ' ' ' ' ' ' ' ' ' ' ' ' ' ' ' ' ' ' ' ' ' ' ' ' ' ' ' ' ' ' ' ' ' ' ' ' ' ' ' ' ' ' ' ' ' ' ",
"' ' ' ' ' ' ' ' ' ' ' ' ' ' ' ' ' ' ' ' ' ' ' ' ' ' ' ' ' ' ' ' ' ' ' ' ' ' ' ' ' ' ' ' ' ' ' ' ' ' ",
"' ' ' ' ' ' ' ' ' ' ' ' ' ' ' ' ' ' ' ' ' ' ' ' ' ' ' ' ' ' ' ' ' ' ' ' ' ' ' ' ' ' ' ' ' ' ' ' ' ' ",
"#.@.' ' ' ' ' ' ' ' ' ' ' ' ' ' ' ' ' ' ' ' ' ' ' ' ' ' ' ' ' ' ' ' ' ' ' ' ' ' ' ' ' ' ' ' ' ' ' ' ",
"V.*.@.' ' ' ' ' ' ' ' ' ' ' ' ' ' ' ' ' ' ' ' ' ' ' ' ' ' ' ' ' ' ' ' ' ' ' ' ' ' ' ' ' ' ' ' ' ' ' ",
".XB.*.@.' ' ' ' ' ' ' ' ' ' ' ' ' ' ' ' ' ' ' ' ' ' ' ' ' ' ' ' ' ' ' ' ' ' ' ' ' ' ' ' ' ' ' ' ' ' ",
"Z.|.B.;.#.@.' ' ' ' ' ' ' ' ' ' ' ' ' ' ' ' ' ' ' ' ' ' ' ' ' ' ' ' ' ' ' ' ' ' ' ' ' ' ' ' ' ' ' ' ",
"2.V.|.D.s.;.#.@.' ' ' ' ' ' ' ' ' ' ' ' ' ' ' ' ' ' @.#.#.@.' ' ' ' ' ' ' ' ' ' ' ' ' ' ' ' ' ' ' ' ",
"@.,.V.*X XD.s.;.#.@.' ' ' ' ' ' ' ' ' ' ' ' ' ' ' @.2.N.p.*.+.#.#.#.#.' ' ' ' ' ' ' ' ' ' ' ' ' ' ' ",
"' @.2.a.Z.*X XD.s.;.#.@.' ' ' ' ' ' ' ' ' ' ' ' ' @.w.T.~.7.4.t.N.C.s.*.@.' ' ' ' ' ' ' ' ' ' ' ' ' ",
"' ' @.#.2.a.Z.*X XD.s.;.#.@.@.@.' ' ' ' ' ' ' ' ' @.*.p.b.I l.R.oX@X).p.#.#.@.' ' ' ' ' ' ' ' ' ' ' ",
"' ' ' ' @.#.2.a.Z.*X XD.s.;.-. .+.' ' ' ' ' ' ' ' ' #.1.i.z.K.E.(.[.[.f.0.q.#.' ' ' ' ' ' ' ' ' ' ' ",
"' ' ' ' ' ' @.#.2.a.Z.&X|.t.D N [ @.' ' ' ' ' @.#.*.3.C.S.P.I._.m.M.].'.d.w.@.' ' ' ' ' ' ' ' ' ' ' ",
"' ' ' ' ' ' ' ' @.#.,.p.E P Q ! e.o.$.+.+.@.*.3.C.C.F.oXQ.!._.h.y.A _ G.u.#.' ' ' ' ' ' ' ' ' ' ' ' ",
"' ' ' ' ' ' ' ' ' ' @.-.c Q ^ ^ ~ w N C { 0.C.F.@XOXQ.XXW.E.M.h.g./ y.f.=.' ' ' ' ' ' ' ' ' ' ' ' ' ",
"' ' ' ' ' ' ' ' ' ' @.*.O.e.( ( ! # + % J S.#X+XQ.R.H././.W.E.M.h.`.{.G.,.@.' ' ' ' ' ' ' ' ' ' ' ' ",
"' ' ' ' ' ' ' ' ' ' ' @.#.=.r.r.>.{ % s H.$X+XK.j.H.#X-X=X/.W.^.}.}.oX~.p.#.' ' ' ' ' ' ' ' ' ' ' ' ",
"' ' ' ' ' ' ' ' ' ' ' @.+.#.#.#.#.;.6.L.$X+XJ.T k.%X:X>X:X=X/.W.XXoX+XoXA.#.' ' ' ' ' ' ' ' ' ' ' ' ",
"' ' ' ' ' ' ' ' ' ' @.*.S } $.' @.1.A.@X+XJ.K L OX:X>X>X:X;X^.L.R.W.oX+XA.&.' ' ' ' ' ' ' ' ' ' ' ' ",
"' ' ' ' ' ' ' ' ' ' @.%.q q } $.#.0.Y.Q.J.K k k.;X>X;X=X%X).n.b.U.R.W.Q.N.&.' ' ' ' ' ' ' ' ' ' ' ' ",
"' ' ' ' ' ' ' ' ' ' @.*.} 6 6 S S 8.i.8.H a G (.;X;X%Xn.n.v.u.q.p.U.U.A.0.@.' ' ' ' ' ' ' ' ' ' ' ' ",
"' ' ' ' ' ' ' ' ' ' ' @.*.} 4 : 5 n S V a y z ) _ _ n.x.t.0.#.#.;.q.q.0.#.' ' ' ' ' ' ' ' ' ' ' ' ' ",
"' ' ' ' ' ' ' ' ' ' ' ' @.*.} 4 2 : 2 < 1 t f 6 4 z W 6.9.#.' ' @.@.#.@.' ' ' ' ' ' ' ' ' ' ' ' ' ' ",
"' ' ' ' ' ' ' ' ' ' ' ' ' @.*.X.} 2 - - - < g ` / ! n V $.@.' ' ' ' ' ' ' ' ' ' ' ' ' ' ' ' ' ' ' ' ",
"' ' ' ' ' ' ' ' ' ' ' ' ' ' @.#...f 1 - - : b `.`.c.P h ] +.' ' ' ' ' ' ' ' ' ' ' ' ' ' ' ' ' ' ' ' ",
"' ' ' ' ' ' ' ' ' ' ' ' ' ' @.-.B u t r 1 : b `.].x.s O * ] +.' ' ' ' ' ' ' ' ' ' ' ' ' ' ' ' ' ' ' ",
"' ' ' ' ' ' ' ' ' ' ' ' ' @.;.Z a y e e t r f R W j.O   X i { +.' ' ' ' ' ' ' ' ' ' ' ' ' ' ' ' ' ' ",
"' ' ' ' ' ' ' ' ' ' ' ' ' #...j y e e y p d d u u a X   . $ v +.' ' ' ' ' ' ' ' ' ' ' ' ' ' ' ' ' ' ",
"' ' ' ' ' ' ' ' ' ' ' ' @.-.B y e e p p k F j $ O O o X X $ m +.' ' ' ' ' ' ' ' ' ' ' ' ' ' ' ' ' ' ",
"' ' ' ' ' ' ' ' ' ' ' @.-.Z a y p p k k G U 4.* O O O O $ x ..@.' ' ' ' ' ' ' ' ' ' ' ' ' ' ' ' ' ' ",
"' ' ' ' ' ' ' ' ' ' @.-.Z a y p k k F G U :.;.D $ O O % x ..#.' ' ' ' ' ' ' ' ' ' ' ' ' ' ' ' ' ' ' ",
"' ' ' ' ' ' ' ' ' @.%.N a y p k F F H Y :.#.%.N @ $ l  .-.#.' ' ' ' ' ' ' ' ' ' ' ' ' ' ' ' ' ' ' ' ",
"' ' ' ' ' ' ' ' @.%.M > & p k F H U 5.<.#.%.M > # c ..#.@.' ' ' ' ' ' ' ' ' ' ' ' ' ' ' ' ' ' ' ' ' ",
"' ' ' ' ' ' ' @.%.M , ; = j j I 5.<.#.#.%.M > # 0 ..#.' ' ' ' ' ' ' ' ' ' ' ' ' ' ' ' ' ' ' ' ' ' ' ",
"' ' ' ' ' ' ' @.-., ; 9 | O.O.<.#.@.' @.%.8 # 8  .#.' ' ' ' ' ' ' ' ' ' ' ' ' ' ' ' ' ' ' ' ' ' ' ' ",
"' ' ' ' ' ' ' @.%.7 , 9  .#.@.@.' ' ' @.#.{ 3 9  .@.' ' ' ' ' ' ' ' ' ' ' ' ' ' ' ' ' ' ' ' ' ' ' ' ",
"' ' ' ' ' ' ' @.*.X.X.O.1.@.' ' ' ' ' ' @.*.X.O.1.@.' ' ' ' ' ' ' ' ' ' ' ' ' ' ' ' ' ' ' ' ' ' ' ' ",
"' ' ' ' ' ' ' ' @.@.@.@.@.' @.' ' ' ' ' ' @.@.@.@.' ' ' ' ' ' ' ' ' ' ' ' ' ' ' ' ' ' ' ' ' ' ' ' ' ",
"' ' ' ' ' ' ' ' ' ' ' ' ' ' ' ' ' ' ' ' ' ' ' ' ' ' ' ' ' ' ' ' ' ' ' ' ' ' ' ' ' ' ' ' ' ' ' ' ' ' ",
"' ' ' ' ' ' ' ' ' ' ' ' ' ' ' ' ' ' ' ' ' ' ' ' ' ' ' ' ' ' ' ' ' ' ' ' ' ' ' ' ' ' ' ' ' ' ' ' ' ' ",
"' ' ' ' ' ' ' ' ' ' ' ' ' ' ' ' ' ' ' ' ' ' ' ' ' ' ' ' ' ' ' ' ' ' ' ' ' ' ' ' ' ' ' ' ' ' ' ' ' ' ",
"' ' ' ' ' ' ' ' ' ' ' ' ' ' ' ' ' ' ' ' ' ' ' ' ' ' ' ' ' ' ' ' ' ' ' ' ' ' ' ' ' ' ' ' ' ' ' ' ' ' "
};
