/* XPM */
static char *_e34bf543e8c4d5ec0688ff11b105649tA04Sj9u041Ltuo5[] = {
/* columns rows colors chars-per-pixel */
"50 50 189 2 ",
"   c #130E23",
".  c #161229",
"X  c #19162C",
"o  c #1B1A32",
"O  c #1E1F39",
"+  c #291B29",
"@  c #241D31",
"#  c #3C2F2D",
"$  c #282335",
"%  c #21223D",
"&  c #262938",
"*  c #292E3A",
"=  c #352834",
"-  c #2E363D",
";  c #52222D",
":  c #43332B",
">  c #483E2E",
",  c #57362E",
"<  c #40273C",
"1  c #592E32",
"2  c #463635",
"3  c #5C3A35",
"4  c #613938",
"5  c #37403E",
"6  c #49402E",
"7  c #4E4C36",
"8  c #554032",
"9  c #5F4335",
"0  c #61433B",
"q  c #63493C",
"w  c #242643",
"e  c #262944",
"r  c #292D41",
"t  c #292D4C",
"y  c #302D49",
"u  c #2B304F",
"i  c #32324C",
"p  c #353C4E",
"a  c #393A4D",
"s  c #2D3251",
"d  c #313756",
"f  c #333B52",
"g  c #343B5B",
"h  c #3B3E5A",
"j  c #373F60",
"k  c #364142",
"l  c #3B4755",
"z  c #3A4263",
"x  c #3F486A",
"c  c #5D464A",
"v  c #5D5047",
"b  c #4F4759",
"n  c #6B5943",
"m  c #5E724F",
"M  c #5C7759",
"N  c #6E7F4E",
"B  c #61755D",
"V  c #707C50",
"C  c #464966",
"Z  c #444C6B",
"A  c #484F6A",
"S  c #48506D",
"D  c #585460",
"F  c #6C5F66",
"G  c #5E6C68",
"H  c #5E6778",
"J  c #7D686A",
"K  c #656B7A",
"L  c #697B77",
"P  c #7B7B7F",
"I  c #886650",
"U  c #8F7F67",
"Y  c #63AB3F",
"T  c #6F804F",
"R  c #659E44",
"E  c #6B9D49",
"W  c #638555",
"Q  c #6C8351",
"!  c #6B8B52",
"~  c #64895B",
"^  c #6B8958",
"/  c #708454",
"(  c #738B54",
")  c #778B5B",
"_  c #6F9B54",
"`  c #6B9559",
"'  c #6D9A58",
"]  c #719454",
"[  c #719558",
"{  c #7D9C5D",
"}  c #66A544",
"|  c #69A346",
" . c #65AB42",
".. c #68A947",
"X. c #65A249",
"o. c #69A54B",
"O. c #6BAB4C",
"+. c #6EAC52",
"@. c #75A857",
"#. c #74B056",
"$. c #658560",
"%. c #739D64",
"&. c #7DA866",
"*. c #7FA576",
"=. c #7FA777",
"-. c #9E856E",
";. c #A4866A",
":. c #92A86E",
">. c #83B16E",
",. c #83AE73",
"<. c #84AA7B",
"1. c #84B073",
"2. c #88B477",
"3. c #8AB17C",
"4. c #C58F6C",
"5. c #CC916A",
"6. c #CA9675",
"7. c #C89A71",
"8. c #686F83",
"9. c #6F7387",
"0. c #787A88",
"q. c #7E9A82",
"w. c #818184",
"e. c #8E8F93",
"r. c #899F9C",
"t. c #929293",
"y. c #96989C",
"u. c #9B9B9B",
"i. c #AF988F",
"p. c #B79E95",
"a. c #89AC83",
"s. c #8DB183",
"d. c #96B78C",
"f. c #BBA69A",
"g. c #A3BB94",
"h. c #828FA7",
"j. c #8E9EA6",
"k. c #8996A8",
"l. c #9A9FAE",
"z. c #8DA3A4",
"x. c #9EA1AE",
"c. c #9AAAAF",
"v. c #9AA3B4",
"b. c #9BACB4",
"n. c #96A4BA",
"m. c #99A6BC",
"M. c #9CA9BC",
"N. c #A4A4A5",
"B. c #ADA9A9",
"V. c #A3B8A7",
"C. c #A0B4AF",
"Z. c #B1B0AD",
"A. c #A6AFBD",
"S. c #A6B2BD",
"D. c #AAB7BC",
"F. c #B4B7B5",
"G. c #C29F8B",
"H. c #C9A780",
"J. c #D4A985",
"K. c #DBA989",
"L. c #D0AE9C",
"P. c #CFB4A6",
"I. c #D0B5A1",
"U. c #A3C094",
"Y. c #ABC2A2",
"T. c #B9C1BF",
"R. c #9FABC1",
"E. c #A2AEC1",
"W. c #A8B2C5",
"Q. c #ADB9CA",
"!. c #B0B4C0",
"~. c #B3BECE",
"^. c #B2C1C0",
"/. c #BAC3CB",
"(. c #B6C1D1",
"). c #C6C5C9",
"_. c #CCCCCD",
"`. c #C8CDD4",
"'. c #CCD2D6",
"]. c #CBD2DD",
"[. c #D2D2D2",
"{. c #D8D8D8",
"}. c #E3EADF",
"|. c #D3D9E3",
" X c #EEEEEF",
".X c #EEF1EC",
"XX c #F3F3F5",
"oX c #F7F8F9",
"OX c #FAFAFB",
/* pixels */
"Y Y Y Y Y Y Y Y Y Y Y Y Y Y Y Y Y Y Y Y Y Y Y Y Y Y Y Y Y Y Y Y Y Y Y Y Y Y Y Y Y Y Y Y Y Y Y Y Y Y ",
"Y Y Y Y Y Y Y Y Y Y Y Y Y Y Y Y Y Y Y Y Y Y Y Y Y Y Y Y Y Y Y Y Y Y Y Y Y Y Y Y Y Y Y Y Y Y Y Y Y Y ",
"Y Y Y Y Y Y Y Y Y Y Y Y Y Y Y Y Y Y Y Y Y Y Y Y Y Y Y Y Y Y Y Y Y Y Y Y Y Y Y Y Y Y Y Y Y Y Y Y Y Y ",
"Y Y Y Y Y Y Y Y Y Y Y Y Y Y Y Y Y Y Y Y Y Y Y Y Y Y Y Y Y Y Y Y Y Y Y Y Y Y Y Y Y Y Y Y Y Y Y Y Y Y ",
"Y Y Y Y Y Y Y Y Y Y Y Y Y Y Y Y Y Y Y Y Y Y Y Y Y Y Y Y Y Y Y Y Y Y Y Y Y Y Y Y Y Y Y Y Y Y Y Y Y Y ",
"Y Y Y Y Y Y Y Y Y Y Y Y Y Y Y Y Y Y Y Y Y Y Y Y Y Y Y Y Y Y Y Y Y Y Y Y Y Y Y Y Y Y Y Y Y Y Y Y Y Y ",
"Y Y Y Y Y Y Y Y Y Y Y Y Y Y Y Y Y Y Y Y Y Y Y Y Y Y Y Y Y Y Y Y Y Y Y Y Y Y Y Y Y Y Y Y Y Y Y Y Y Y ",
"Y Y Y Y Y Y Y Y Y Y Y Y Y Y Y Y Y Y Y  ...O. .Y Y Y Y Y Y Y Y Y Y Y Y Y Y Y Y Y Y Y Y Y Y Y Y Y Y Y ",
"Y Y Y Y Y Y Y Y Y Y Y Y Y Y Y Y Y Y Y  .<.V.1.X.X.o.O.O. .Y Y Y Y Y Y Y Y Y Y Y Y Y Y Y Y Y Y Y Y Y ",
"Y Y Y Y Y Y Y Y Y Y Y Y Y Y Y Y Y Y Y  .<.S.j.G L r.C.V.2.O.Y Y Y Y Y Y Y Y Y Y Y Y Y Y Y Y Y Y Y Y ",
"Y Y Y Y Y Y Y Y Y Y Y Y Y Y Y Y Y Y Y  .+.*.K K k.S.).).F.>.O. .Y Y Y Y Y Y Y Y Y Y Y Y Y Y Y Y Y Y ",
"Y Y Y Y Y Y Y Y Y Y Y Y Y Y Y Y Y Y Y Y  .@.q.k.l.f.K.K.J.:.,.&. .Y Y Y Y Y Y Y Y Y Y Y Y Y Y Y Y Y ",
"Y Y Y Y Y Y Y Y Y Y Y Y Y Y Y Y Y Y Y  .O.a.c.x.p.i.B.I.f.V.1.O. .Y Y Y Y Y Y Y Y Y Y Y Y Y Y Y Y Y ",
"Y Y Y Y Y Y Y Y Y Y Y Y Y Y Y Y Y Y  .O.s.b.v.p.6.I v -.U &.O. .Y Y Y Y Y Y Y Y Y Y Y Y Y Y Y Y Y Y ",
"Y Y Y Y Y Y Y Y Y Y Y Y Y Y Y Y Y  .O.s.D.W.n.x.G.5.4.J.H.:. .Y Y Y Y Y Y Y Y Y Y Y Y Y Y Y Y Y Y Y ",
"Y Y Y Y Y Y Y Y Y Y Y Y Y Y Y Y Y  .3.T.Q.R.m.n.F.L.P.).T.3.O.Y Y Y Y Y Y Y Y Y Y Y Y Y Y Y Y Y Y Y ",
"Y Y Y Y Y Y Y Y Y Y Y Y Y Y Y Y  .O.d./.~.].`.S.M.!.!.E.E.C.>. .Y Y Y Y Y Y Y Y Y Y Y Y Y Y Y Y Y Y ",
"Y Y Y Y Y Y Y Y Y Y Y Y Y Y Y Y  .3.^.~.].XXXX'.S.m.m.W.(.S.,. .Y Y Y Y Y Y Y Y Y Y Y Y Y Y Y Y Y Y ",
"Y Y Y Y Y Y Y Y Y Y Y Y Y Y Y  .O.d./.Q.|.oXOX X`.A.n.m.Q.S.,. .Y Y Y Y Y Y Y Y Y Y Y Y Y Y Y Y Y Y ",
"Y Y Y Y Y Y Y Y Y Y Y Y Y Y Y  .3.^.Q.W.|.oXXX{.[._.A.n.n.j.*. .Y Y Y Y Y Y Y Y Y Y Y Y Y Y Y Y Y Y ",
"Y Y Y Y Y Y Y Y Y Y Y Y Y Y Y ..s./.Q.].XXoX{.B.Z._./.v.h.H %. .Y Y Y Y Y Y Y Y Y Y Y Y Y Y Y Y Y Y ",
"Y Y Y Y Y Y Y Y Y Y Y Y Y Y Y  .<.b.M.'.oXXX_.u.t.N.y.8.Z p ~ ..Y Y Y Y Y Y Y Y Y Y Y Y Y Y Y Y Y Y ",
"Y Y Y Y Y Y Y Y Y Y Y Y Y Y Y  .*.z.a.Y..X{.N.t.u.t.K S g w k '  .Y Y Y Y Y Y Y Y Y Y Y Y Y Y Y Y Y ",
"Y Y Y Y Y Y Y Y Y Y Y Y Y Y Y  .+.*.,.U..X[.N.u.N.e.H z u % * `  .Y Y Y Y Y Y Y Y Y Y Y Y Y Y Y Y Y ",
"Y Y Y Y Y Y Y Y Y Y Y Y Y Y Y Y  .O.+.U..X[.u.w.P K A g t % & `  .Y Y Y Y Y Y Y Y Y Y Y Y Y Y Y Y Y ",
"Y Y Y Y Y Y Y Y Y Y Y Y Y Y Y Y Y  .O.d.}._.0.a $ i d t e O & W ..Y Y Y Y Y Y Y Y Y Y Y Y Y Y Y Y Y ",
"Y Y Y Y Y Y Y Y Y Y Y Y Y Y Y Y Y Y  .#.g.Z.D X   . X . .   X 5 '  .Y Y Y Y Y Y Y Y Y Y Y Y Y Y Y Y ",
"Y Y Y Y Y Y Y Y Y Y Y Y Y Y Y Y Y Y Y  .) c = @ % w w O X X + # [  .Y Y Y Y Y Y Y Y Y Y Y Y Y Y Y Y ",
"Y Y Y Y Y Y Y Y Y Y Y Y Y Y Y Y Y Y Y } ) 0 F 9.A s t % o o + : [  .Y Y Y Y Y Y Y Y Y Y Y Y Y Y Y Y ",
"Y Y Y Y Y Y Y Y Y Y Y Y Y Y Y Y Y Y Y ..:.7.4.J h s t % o o @ q {  .Y Y Y Y Y Y Y Y Y Y Y Y Y Y Y Y ",
"Y Y Y Y Y Y Y Y Y Y Y Y Y Y Y Y Y Y ..( ;.J.6.J C d w o o o $ n @. .Y Y Y Y Y Y Y Y Y Y Y Y Y Y Y Y ",
"Y Y Y Y Y Y Y Y Y Y Y Y Y Y Y Y Y ..T 4 4 c b C Z g % o o o & ^ o. .Y Y Y Y Y Y Y Y Y Y Y Y Y Y Y Y ",
"Y Y Y Y Y Y Y Y Y Y Y Y Y Y Y Y ..T 3 ; < i g x x g % o o o & `  .Y Y Y Y Y Y Y Y Y Y Y Y Y Y Y Y Y ",
"Y Y Y Y Y Y Y Y Y Y Y Y Y Y } R N 4 1 < y u j x g u % o o o & `  .Y Y Y Y Y Y Y Y Y Y Y Y Y Y Y Y Y ",
"Y Y Y Y Y Y Y Y Y Y Y Y Y ..Q q 0 3 / B f s z x g w o o o o - `  .Y Y Y Y Y Y Y Y Y Y Y Y Y Y Y Y Y ",
"Y Y Y Y Y Y Y Y Y Y Y Y ..Q q 9 / E o.$.f g x x g % o o o & W o. .Y Y Y Y Y Y Y Y Y Y Y Y Y Y Y Y Y ",
"Y Y Y Y Y Y Y Y Y Y Y  .] n ( E .. . .~ l g x g f r o o o - `  .Y Y Y Y Y Y Y Y Y Y Y Y Y Y Y Y Y Y ",
"Y Y Y Y Y Y Y Y Y Y Y  .o.| .. .Y Y  .o.M a i l ~ M * o - W o. .Y Y Y Y Y Y Y Y Y Y Y Y Y Y Y Y Y Y ",
"Y Y Y Y Y Y Y Y Y Y Y Y  .Y Y Y Y Y Y ../ 3 2 ^ O.o.m 2 W .. .Y Y Y Y Y Y Y Y Y Y Y Y Y Y Y Y Y Y Y ",
"Y Y Y Y Y Y Y Y Y Y Y Y Y Y Y Y Y Y Y | V , 8 [  .} Q > ! ..Y Y Y Y Y Y Y Y Y Y Y Y Y Y Y Y Y Y Y Y ",
"Y Y Y Y Y Y Y Y Y Y Y Y Y Y Y Y Y Y  .( 9 , Q o. .} Q : 6 !  .Y Y Y Y Y Y Y Y Y Y Y Y Y Y Y Y Y Y Y ",
"Y Y Y Y Y Y Y Y Y Y Y Y Y Y Y Y Y Y } ! > 6 _  .Y  .! > : 7 _  .Y Y Y Y Y Y Y Y Y Y Y Y Y Y Y Y Y Y ",
"Y Y Y Y Y Y Y Y Y Y Y Y Y Y Y Y Y Y  ...R R .. .Y  ...R R | .. .Y Y Y Y Y Y Y Y Y Y Y Y Y Y Y Y Y Y ",
"Y Y Y Y Y Y Y Y Y Y Y Y Y Y Y Y Y Y Y  . . .Y Y Y Y  . . . .Y Y Y Y Y Y Y Y Y Y Y Y Y Y Y Y Y Y Y Y ",
"Y Y Y Y Y Y Y Y Y Y Y Y Y Y Y Y Y Y Y Y Y Y Y Y Y Y Y Y Y Y Y Y Y Y Y Y Y Y Y Y Y Y Y Y Y Y Y Y Y Y ",
"Y Y Y Y Y Y Y Y Y Y Y Y Y Y Y Y Y Y Y Y Y Y Y Y Y Y Y Y Y Y Y Y Y Y Y Y Y Y Y Y Y Y Y Y Y Y Y Y Y Y ",
"Y Y Y Y Y Y Y Y Y Y Y Y Y Y Y Y Y Y Y Y Y Y Y Y Y Y Y Y Y Y Y Y Y Y Y Y Y Y Y Y Y Y Y Y Y Y Y Y Y Y ",
"Y Y Y Y Y Y Y Y Y Y Y Y Y Y Y Y Y Y Y Y Y Y Y Y Y Y Y Y Y Y Y Y Y Y Y Y Y Y Y Y Y Y Y Y Y Y Y Y Y Y ",
"Y Y Y Y Y Y Y Y Y Y Y Y Y Y Y Y Y Y Y Y Y Y Y Y Y Y Y Y Y Y Y Y Y Y Y Y Y Y Y Y Y Y Y Y Y Y Y Y Y Y ",
"Y Y Y Y Y Y Y Y Y Y Y Y Y Y Y Y Y Y Y Y Y Y Y Y Y Y Y Y Y Y Y Y Y Y Y Y Y Y Y Y Y Y Y Y Y Y Y Y Y Y "
};
