/* XPM */
static char *_d53b0fa5ab141aea5e94ac7ac3ff5edocJyS8cjQlQsXjYu[] = {
/* columns rows colors chars-per-pixel */
"50 50 178 2 ",
"   c #0F091D",
".  c #120E24",
"X  c #161229",
"o  c #19172F",
"O  c #1B1A32",
"+  c #1D1D38",
"@  c #201C2F",
"#  c #321E25",
"$  c #211D33",
"%  c #332125",
"&  c #3C2926",
"*  c #3D3126",
"=  c #282234",
"-  c #242B35",
";  c #302332",
":  c #2D3C36",
">  c #323836",
",  c #561F28",
"<  c #4B252B",
"1  c #552C27",
"2  c #56292A",
"3  c #433628",
"4  c #483929",
"5  c #59352D",
"6  c #5B3B2D",
"7  c #542F30",
"8  c #643339",
"9  c #46432B",
"0  c #49452B",
"q  c #5B422F",
"w  c #4A522E",
"e  c #5B4738",
"r  c #6C4D37",
"t  c #242845",
"y  c #262947",
"u  c #2B2B42",
"i  c #2A2E4D",
"p  c #332C46",
"a  c #2C304E",
"s  c #32314A",
"d  c #313D4B",
"f  c #2D3352",
"g  c #353958",
"h  c #363C5A",
"j  c #463E53",
"k  c #643E49",
"l  c #3A4A4A",
"z  c #3D4566",
"x  c #3F4769",
"c  c #3F486A",
"v  c #594845",
"b  c #5D5945",
"n  c #484E59",
"m  c #6A5040",
"M  c #414B6D",
"N  c #4F5771",
"B  c #4F5875",
"V  c #757479",
"C  c #9A5C44",
"Z  c #A46E44",
"A  c #A57B48",
"S  c #59843B",
"D  c #558D3D",
"F  c #5C903D",
"G  c #5D9B3C",
"H  c #628E3C",
"J  c #64923E",
"K  c #629C3D",
"L  c #62A73F",
"P  c #6CA23F",
"I  c #63AB3F",
"U  c #518341",
"Y  c #5C9B41",
"T  c #669F46",
"R  c #739F49",
"E  c #69A645",
"W  c #65AB42",
"Q  c #67AA4B",
"!  c #6AAB4E",
"~  c #72AA48",
"^  c #68A051",
"/  c #6DAC53",
"(  c #6EA95A",
")  c #70AF53",
"_  c #70AB5D",
"`  c #6FB052",
"'  c #73B254",
"]  c #76B459",
"[  c #79817A",
"{  c #6FA060",
"}  c #77A966",
"|  c #7AB362",
" . c #7EB26D",
".. c #BA8466",
"X. c #BF9C6F",
"o. c #84B566",
"O. c #87BD6C",
"+. c #89BC75",
"@. c #CE8F65",
"#. c #C98C6A",
"$. c #D5986E",
"%. c #CB9A79",
"&. c #D59F7C",
"*. c #CAA47C",
"=. c #6A738C",
"-. c #7E8188",
";. c #7B958D",
":. c #7C8196",
">. c #7A8799",
",. c #7B9490",
"<. c #848589",
"1. c #898A89",
"2. c #8F8D99",
"3. c #82949D",
"4. c #939393",
"5. c #9A9297",
"6. c #9D9C9D",
"7. c #81A38E",
"8. c #8CA79F",
"9. c #9ABD96",
"0. c #8794AC",
"q. c #8F9FB4",
"w. c #919EB5",
"e. c #8FA9A2",
"r. c #92ABA4",
"t. c #92A7AE",
"y. c #9FB9A1",
"u. c #93A2B7",
"i. c #9AA1B2",
"p. c #97ABB1",
"a. c #98ACB2",
"s. c #96A4BA",
"d. c #9AA6B9",
"f. c #9DA9BE",
"g. c #A3A0A9",
"h. c #A8A6A9",
"j. c #B5ADAC",
"k. c #ADB4A9",
"l. c #ACB0B5",
"z. c #A6BDB4",
"x. c #B5B5B5",
"c. c #B3BCB0",
"v. c gray",
"b. c #CA9D83",
"n. c #CCA486",
"m. c #DDA885",
"M. c #D5AD88",
"N. c #D0B081",
"B. c #DFBA9B",
"V. c #E1A780",
"C. c #E5BC99",
"Z. c #C1BABD",
"A. c #B4C0AB",
"S. c #ABC2B5",
"D. c #B1C7BA",
"F. c #BAC2B9",
"G. c #B3C8BD",
"H. c #9EABC1",
"J. c #A2AFC2",
"K. c #BCBEC5",
"L. c #B4BFD1",
"P. c #C7BFC0",
"I. c #B3C4C5",
"U. c #BCCBCC",
"Y. c #BAC4D2",
"T. c #C4C5C9",
"R. c #CAC7CB",
"E. c #D1D3C7",
"W. c #C4CDDA",
"Q. c #DDDDDE",
"!. c #DBEBD4",
"~. c #DDEADB",
"^. c #EAEAEA",
"/. c #EBF4E7",
"(. c #EEF6EA",
"). c #EFEFF0",
"_. c #F5F5F5",
"`. c #FDFDFD",
/* pixels */
"I I I I I I I I I I I I I I I I I I I I I I I I I I I I I I I I I I I I I I I I I I I I I I I I I I ",
"I I I I I I I I I I I I I I I I I I I I I I I I I I I I I I I I I I I I I I I I I I I I I I I I I I ",
"I I I I I I I I I I I I I I I I I I I I I I I I I I I I I I I I I I I I I I I I I I I I I I I I I I ",
"I I I I I I I I I I I I I I I I I I I I I I I I I I I I I I I I I I I I I I I I I I I I I I I I I I ",
"I I I I I I I I I I I I I I I I I I I I I I I I I I I I I I I I I I I I I I I I I I I I I I I I I I ",
"I I I I I I I I I I I I I I I I I I I I I I I I I I I I I I I I I I I I I I I I I I I I I I I I I I ",
"I I I I I I I I I I I I I I I I I I I I I I I I I I I I I I I I I I I I I I I I I I I I I I I I I I ",
"I I I I I I I I I I I I I I I I I I I I I I I I I I I I I I I I I I I I I I I I I I I I I I I I I I ",
"I I I I I I I I I I I I I I I I I I I I I I I I I I I I I I I I I I I I I I I I I I I I I I I I I I ",
"I I I I I I I I I I I I I I I I I I I I I W ` ` W I I I I I I I I I I I I I I I I I I I I I I I I I ",
"I I I I I I I I I I I I I I I I I I I I I / S.S.^ ! / ) ` W I I I I I I I I I I I I I I I I I I I I ",
"I I I I I I I I I I I I I I I I I I I I I ! t.i.n 3.a.I.D.| W I I I I I I I I I I I I I I I I I I I ",
"I I I I I I I I I I I I I I I I I I I I I ! ;.n >.s.K.R.R.A.) ! W I I I I I I I I I I I I I I I I I ",
"I I I I I I I I I I I I I I I I I I I I I W } 3.w.g.n.m.V.*.o.9.! I I I I I I I I I I I I I I I I I ",
"I I I I I I I I I I I I I I I I I I I W ' | z.s.g.%.5.j.B.6.y.] W I I I I I I I I I I I I I I I I I ",
"I I I I I I I I I I I I I I I I I W ' | D.I.f.i.b.@.e v n.b T W I I I I I I I I I I I I I I I I I I ",
"I I I I I I I I I I I I I I I I W | D.U.Y.p.u.u.g.&.@.%.C.X.~ I I I I I I I I I I I I I I I I I I I ",
"I I I I I I I I I I I I I I I W | G.W.Y.r.} a.s.d.Z.M.P.T.F.| W I I I I I I I I I I I I I I I I I I ",
"I I I I I I I I I I I I I I W | G.W.W.a._ O.~.K.d.f.K.f.H.J.z.! I I I I I I I I I I I I I I I I I I ",
"I I I I I I I I I I I I I I / D.W.W.Y.e.+.~.`.).K.d.s.s.L.Y.p.! I I I I I I I I I I I I I I I I I I ",
"I I I I I I I I I I I I I W | U.W.Y.r. .!.`.`._.^.K.d.u.H.L.t.( W I I I I I I I I I I I I I I I I I ",
"I I I I I I I I I I I I I / D.W.Y.r.( ] /.`._.T.v.Q.K.d.u.s.q.,.Q I I I I I I I I I I I I I I I I I ",
"I I I I I I I I I I I I I / I.Y.r.( W O.(.`.^.x.4.x.Q.l.0.0.:.l Y I I I I I I I I I I I I I I I I I ",
"I I I I I I I I I I I I I ! 8.t.( W ' !.`._.v.4.1.4.h.<.B h u - D I I I I I I I I I I I I I I I I I ",
"I I I I I I I I I I I I I W ( 7.Q I ] /.`.^.k.1.1.6.-.N z i + O : G I I I I I I I I I I I I I I I I ",
"I I I I I I I I I I I I I I W Q W I ' /._.F.} [ V V N z f i O O - G I I I I I I I I I I I I I I I I ",
"I I I I I I I I I I I I I I I I I I ' !._.c.{ n @ @ g i t t O O - D I I I I I I I I I I I I I I I I ",
"I I I I I I I I I I I I I I I I I I W o.E.h.>.=   . X X . . . o O : G I I I I I I I I I I I I I I I ",
"I I I I I I I I I I I I I I I I I I I T m v :.u $ t t t O o o @ # * G I I I I I I I I I I I I I I I ",
"I I I I I I I I I I I I I I I I I I I K r e 2.:.=.g i i O O O # < 4 K I I I I I I I I I I I I I I I ",
"I I I I I I I I I I I I I I I I I I I ~ N.$.#.k h f i t O O O ; C Z P I I I I I I I I I I I I I I I ",
"I I I I I I I I I I I I I I I I I I I R N.m...j z z a + O O O = C A E I I I I I I I I I I I I I I I ",
"I I I I I I I I I I I I I I I I I I H 6 8 8 j z M z i O O O O O > J I I I I I I I I I I I I I I I I ",
"I I I I I I I I I I I I I I I I I H 6 , < p f c c f t O O O O O - G I I I I I I I I I I I I I I I I ",
"I I I I I I I I I I I I I I I K H 6 2 7 p i f c c a + O O O O O : G I I I I I I I I I I I I I I I I ",
"I I I I I I I I I I I I I I H 6 2 5 q S d f z M c a + O O O O - D I I I I I I I I I I I I I I I I I ",
"I I I I I I I I I I I I I H 6 5 q H K Y d f z x z a + O O O O : G I I I I I I I I I I I I I I I I I ",
"I I I I I I I I I I I I K e q H K I I Y l s s a f d + O O O : D I I I I I I I I I I I I I I I I I I ",
"I I I I I I I I I I I I I K K I I I I I F 6 2 & l U : % % : D I I I I I I I I I I I I I I I I I I I ",
"I I I I I I I I I I I I I I I I I I I I J 6 1 9 F L D * * S L I I I I I I I I I I I I I I I I I I I ",
"I I I I I I I I I I I I I I I I I I I K q 1 3 F I I G * % 4 F I I I I I I I I I I I I I I I I I I I ",
"I I I I I I I I I I I I I I I I I I I G 0 3 9 G I I G 9 3 3 w G I I I I I I I I I I I I I I I I I I ",
"I I I I I I I I I I I I I I I I I I I I G G G I I I I G G G G I I I I I I I I I I I I I I I I I I I ",
"I I I I I I I I I I I I I I I I I I I I I I I I I I I I I I I I I I I I I I I I I I I I I I I I I I ",
"I I I I I I I I I I I I I I I I I I I I I I I I I I I I I I I I I I I I I I I I I I I I I I I I I I ",
"I I I I I I I I I I I I I I I I I I I I I I I I I I I I I I I I I I I I I I I I I I I I I I I I I I ",
"I I I I I I I I I I I I I I I I I I I I I I I I I I I I I I I I I I I I I I I I I I I I I I I I I I ",
"I I I I I I I I I I I I I I I I I I I I I I I I I I I I I I I I I I I I I I I I I I I I I I I I I I ",
"I I I I I I I I I I I I I I I I I I I I I I I I I I I I I I I I I I I I I I I I I I I I I I I I I I ",
"I I I I I I I I I I I I I I I I I I I I I I I I I I I I I I I I I I I I I I I I I I I I I I I I I I "
};
