/* XPM */
static char *_608d13fc32741a594a9386740e2594f[] = {
/* columns rows colors chars-per-pixel */
"50 50 204 2 ",
"   c #1C1C1C",
".  c #21261F",
"X  c #252525",
"o  c #262924",
"O  c #282A27",
"+  c #2C2C2B",
"@  c #332D2A",
"#  c #2D342A",
"$  c #2F3A2B",
"%  c #32322D",
"&  c #3A332E",
"*  c #323C2C",
"=  c #2E2F30",
"-  c #2F3331",
";  c #333433",
":  c #373637",
">  c #363A34",
",  c #3B3A36",
"<  c #3B3B3B",
"1  c #4B1F22",
"2  c #572D30",
"3  c #4A3C33",
"4  c #433F38",
"5  c #34442C",
"6  c #364A2C",
"7  c #3A4C2E",
"8  c #3B552F",
"9  c #3D5B2F",
"0  c #374033",
"q  c #3A4B33",
"w  c #3D423B",
"e  c #3E5731",
"r  c #44423E",
"t  c #48453B",
"y  c #55463B",
"u  c #594639",
"i  c #435A37",
"p  c #614A3A",
"a  c #6A543C",
"s  c #436333",
"d  c #49663A",
"f  c #4A7435",
"g  c #4D7B36",
"h  c #52763D",
"j  c #517A3C",
"k  c #6B643E",
"l  c #67743F",
"z  c #403F40",
"x  c #3F4040",
"c  c #444444",
"v  c #454844",
"b  c #484847",
"n  c #4C4C4C",
"m  c #554D48",
"M  c #4C5745",
"N  c #535748",
"B  c #4F5050",
"V  c #535453",
"C  c #585857",
"Z  c #5B5B5B",
"A  c #754B43",
"S  c #645245",
"D  c #685649",
"F  c #6D5C50",
"G  c #567647",
"H  c #576A50",
"J  c #79664A",
"K  c #7A6351",
"L  c #687052",
"P  c #4C5765",
"I  c #595C60",
"U  c #5C7064",
"Y  c #646464",
"T  c #636870",
"R  c #67777D",
"E  c #77797B",
"W  c #7B7B7B",
"Q  c #825F47",
"!  c #84624A",
"~  c #976C4F",
"^  c #816754",
"/  c #926C52",
"(  c #8E715C",
")  c #947359",
"_  c #9B765B",
"`  c #997A5A",
"'  c #A37758",
"]  c #A97A5A",
"[  c #B47E57",
"{  c #877F73",
"}  c #4F8137",
"|  c #55823B",
" . c #54843C",
".. c #558B3A",
"X. c #588D3D",
"o. c #57923A",
"O. c #5A953C",
"+. c #5C9C3C",
"@. c #5FA13D",
"#. c #61A53F",
"$. c #63AB3F",
"%. c #638F40",
"&. c #619B46",
"*. c #68845D",
"=. c #699559",
"-. c #64A544",
";. c #6BA746",
":. c #64AB42",
">. c #6AAC44",
",. c #64A34A",
"<. c #6BAD4B",
"1. c #74A746",
"2. c #72AD49",
"3. c #70B04D",
"4. c #6CA552",
"5. c #6FAD50",
"6. c #77A95D",
"7. c #75B354",
"8. c #7CB254",
"9. c #699865",
"0. c #6B8A71",
"q. c #78A56B",
"w. c #7EB366",
"e. c #A98159",
"r. c #BA835D",
"t. c #86A957",
"y. c #83AF54",
"u. c #A2A356",
"i. c #AE8361",
"p. c #BC987B",
"a. c #85B866",
"s. c #9CB767",
"d. c #8CBD76",
"f. c #99BB75",
"g. c #BDAB68",
"h. c #C58961",
"j. c #CB8F64",
"k. c #CC9C62",
"l. c #DA9665",
"z. c #DE9867",
"x. c #DA9869",
"c. c #CD9C75",
"v. c #E39B67",
"b. c #E59C69",
"n. c #D4A179",
"m. c #E7A06E",
"M. c #E5A778",
"N. c #EAAC7B",
"B. c #A9C27C",
"V. c #64768C",
"C. c #637391",
"Z. c #798784",
"A. c #74829C",
"S. c #848988",
"D. c #939B97",
"F. c #81A880",
"G. c #92AF83",
"H. c #9BB495",
"J. c #A9AE8D",
"K. c #9C9EA2",
"L. c #9BA0A0",
"P. c #9BA7B7",
"I. c #A8ADA8",
"U. c #A1ABBA",
"Y. c #D7AB89",
"T. c #C5B683",
"R. c #D8B385",
"E. c #E1AD81",
"W. c #E6B685",
"Q. c #EBBA8D",
"!. c #F0BC8F",
"~. c #ECBE93",
"^. c #F0BE92",
"/. c #98C781",
"(. c #A0C98E",
"). c #BDC082",
"_. c #AECA96",
"`. c #BACCB6",
"'. c #CBC691",
"]. c #F1C194",
"[. c #F3C69A",
"{. c #F4C99E",
"}. c #D3D5A8",
"|. c #D3D5AB",
" X c #F5CDA3",
".X c #EADBBD",
"XX c #F4D5B2",
"oX c #F5D9B8",
"OX c #AFBCC4",
"+X c #BAC0C1",
"@X c #CDCFCD",
"#X c #C8D7CA",
"$X c #DEDFDE",
"%X c #F6DEC2",
"&X c #DBE6DA",
"*X c #F7E1C6",
"=X c #F3E7CB",
"-X c #F6E4CB",
";X c #F8E4CA",
":X c #DADEE3",
">X c #DCE1E7",
",X c #E7E9EB",
"<X c #EBF2EA",
"1X c #F3F4F4",
/* pixels */
"$.$.$.$.$.$.$.$.$.$.$.$.$.$.$.$.$.$.$.$.$.$.$.$.$.$.$.$.$.$.$.$.$.$.$.$.$.$.$.$.$.$.$.$.$.$.$.$.$.$.",
"$.$.$.$.$.$.$.$.$.$.$.$.$.$.$.$.$.$.$.$.$.$.$.$.$.$.$.$.$.$.$.$.$.$.$.$.$.$.$.$.$.$.$.$.$.$.$.$.$.$.",
"$.$.$.$.$.$.$.$.$.$.$.$.$.$.$.$.$.$.$.$.$.$.$.$.$.$.$.$.$.$.$.$.$.$.$.$.$.$.$.$.$.$.$.$.$.$.$.$.$.$.",
"$.$.$.$.$.$.$.$.$.$.$.$.$.$.$.$.$.$.$.$.$.$.$.$.$.$.$.$.$.$.$.$.$.$.$.$.$.$.$.$.$.$.$.$.$.$.$.$.$.$.",
"$.$.$.$.$.$.$.$.$.$.$.$.$.$.$.$.$.$.$.$.$.$.$.$.$.$.$.$.$.$.$.$.$.$.$.$.$.$.$.$.$.$.$.$.$.$.$.$.$.$.",
"$.$.$.$.$.$.$.$.$.$.$.$.$.$.$.$.$.$.$.$.$.$.$.$.$.$.$.$.$.$.$.$.$.$.$.$.$.$.$.$.$.$.$.$.$.$.$.$.$.$.",
"$.$.$.$.$.$.$.$.$.$.$.$.$.$.:.$.$.$.$.$.$.$.$.$.$.$.$.$.$.$.$.$.$.$.$.$.$.$.$.$.$.$.$.$.$.$.$.$.$.$.",
"$.$.$.$.$.$.$.$.$.$.$.$.$.$.,.:.$.$.:.$.$.$.$.$.$.$.$.$.$.$.$.$.$.$.$.$.$.$.$.$.$.$.$.$.$.$.$.$.$.$.",
"$.$.$.$.$.$.$.$.$.$.$.$.$.,.R -.:.d.d.$.$.$.$.$.$.$.$.$.$.$.$.$.$.$.$.$.$.$.$.$.$.$.$.$.$.$.$.$.$.$.",
"$.$.$.$.$.$.$.$.$.$.$.,.0.V.0.>.d.#Xw.$.$.$.$.$.$.$.O.g g g O. . .X.$.$.$.$.$.$.$.$.$.$.$.$.$.$.$.$.",
"$.$.$.$.$.$.$.$.$.$.9.V.C.A._.&X>XH.:.$.@.f f 5 * 0 > b b b V C C C N G #.$.$.$.$.$.$.$.$.$.$.$.$.$.",
"$.$.$.$.$.$.$.$.$.&.P P U.1X:XOXF.&.f 6 # O ; < B Z ( ) r.x.x.x.x.x.j._ m h @.$.$.$.$.$.$.$.$.$.$.$.",
"$.$.$.$.$.$.$.$.+.5 + I 1X,XU.9. .# o X + < V ^ ] x.b.b.b.v.v.b.b.N.W.W.E.) m h #.$.$.$.$.$.$.$.$.$.",
"$.$.$.$.$.$.$.$.8 ; n Z U.P.T M g # X X ; c b m _ l.b.b.b.b.b.N.[.{.{.{.{.{.E.K d @.$.$.$.$.$.$.$.$.",
"$.$.$.$.$.$.$.O.% n c z : : n > O.} # X X ; b K F K ] l.b.b.b.].{.{.{. X X X XQ.K d @.$.$.$.$.$.$.$.",
"$.$.$.$.$.$.$..., , X 1 , b + o G a.j O     + m j.h.! S ] l.b.{.{.{.XX*X;X-X%XXXR.L h $.$.$.$.$.$.$.",
"$.$.$.<.5.$.&.N n 4 A 2 , n + X Z.<Xa.6 X     , / b.z.' S D x.[.{. X-X-X-X-X.Xf.2.-.d +.$.$.$.$.$.$.",
"$.$.:.H.H.O.M V I.$Xb < n + X + C H.<.s X     ; D z.N.Q.M.^ S E.{.oX-X-X-X-XJ.7 @.$.X. .$.$.$.$.$.$.",
"$.$.:.I.G.f : ; E 1Xp.J > a 3 : , S.q...O     X r c.[. X{.~.^ D R.%X=X}.*X-X7...#.$.#.+.$.$.$.$.$.$.",
"$.$.$.<.6.-.N t Y.'.y.>.e.z.~ : n :X@XL O     O r c.XX;X%XXX~.D _ T.6.>.a._.7.$.$.$.$.$.$.$.$.$.$.$.",
"$.$.$.$.$.$.f ` T.>.:.y.Q.m.y b ; S.W + X     : r c.*X-X-X=XB.%.t | $.$.$.3.>.$.$.$.$.$.$.$.$.$.$.$.",
"$.$.$.$.$.$.$.2.>.$.3.}.{.i.c n V K.c X X   O < m n.*X*X}.N g $.O.i @.$.$.$.$.$.$.$.$.$.$.$.$.$.$.$.",
"$.$.$.$.$.$.$.$.$.2.}.;X^.y C c S.,XZ + , c B B ) m.'.a.:.g f $.$.h O.$.$.$.$.$.$.$.$.$.$.$.$.$.$.$.",
"$.$.$.$.$.$.$.$.:.'.XX Xe.c V ; n Y C C C n 4 Q l.k.1.$.<.:.@.$.$.$.$.$.$.$.$.$.$.$.$.$.$.$.$.$.$.$.",
"$.$.$.$.$.$.$.$.y..X*X~.y c c ; V C V n : & ! u 3 4 i j `./.$.:.$.$.$.$.$.$.$.$.$.$.$.$.$.$.$...o.$.",
"$.$.$.$.$.$.$.:.).XX Xi.O ; + O : : O O X X X O ; , : ; n *.w./.:.:.$.$.$.$.$.$.$.$.$.$.$.$.+.f +.$.",
"$.$.$.$.$.$.$.8..X-X[.y + ; ; O + , , ; O X + , < < , ; : < 0.#X<.(.7.:.3.:.$.$.$.$.$.$.$.+.5 s $.$.",
"$.$.$.$.$.$.$.8.XXXX!.3 n C V : ; < < < < : < < < < , + O < < n H +Xw.6.&X7.$.$.$.$.$.#. .5 $ +.$.$.",
"$.$.$.$.$.$.$.8.%X*X].y C Z C b , < < < < < , , c n b < O % : < < b v r E G h +.@.X.h i % 9 O.$.$.$.",
"$.$.$.$.$.$.$.<.}.%X X' c Z Z n ; , , = : ; + c C Z C < + ! _ D , , < < < < < w w w , 0 o.$.$.$.$.$.",
"$.$.$.$.$.$.$.$.s.XXXXn.% n C c O & @ A ~ 3 : C Z Z C x ; l g.W.J.{ , , , , ; % ; * 9 O.$.$.$.$.$.$.",
"$.$.$.$.$.$.$.$.3.}.-X{.! O + + & j.v.b.v.r.< Z Z Z n , $ @.+.$.<.f.s.t.g g g g o.$.$.$.$.$.$.$.$.$.",
"$.$.$.$.$.$.:.$.$.3.B.W.b.Q O o O p k.k.u.k ; C C V < ; 5 * # $.$.$.$.$.$.$.$.$.$.$.$.$.$.$.$.$.$.$.",
"$.$.$.$.$.:.:.$.$.$.$.1.a [ k # : q ;.:.$.@.6 q < : + * o X 5 $.$.$.$.$.$.$.$.$.$.$.$.$.$.$.$.$.$.$.",
"$.$.$.$.$.$.$.$.$.$.$.g . o o.w > g $.$.$.$.$.f   o g O.> + } $.$.$.$.$.$.$.$.$.$.$.$.$.$.$.$.$.$.$.",
"$.$.$.$.$.$.$.$.o...9 O X 7 q : s #.$.@.....g O X 5  .q : s $.$.$.$.$.$.$.$.$.$.$.$.$.$.$.$.$.$.$.$.",
"$.$.$.$.$.$.:.d w o , b Y b ; # o.:.&.q - o O n V C < + 5 +.$.$.$.$.$.$.$.$.$.$.$.$.$.$.$.$.$.$.$.$.",
"$.$.$.$.$.$.q.U R * L.S.D.e 8 f :.<.Z.R b + V K.K.H 8 8 +.$.$.$.$.$.$.$.$.$.$.$.$.$.$.$.$.$.$.$.$.$.",
"$.$.$.$.$.$.>.-.=.#.4.4.4.#.$.$.$.:.,.,.G G ,.=.=.,.$.$.$.$.$.$.$.$.$.$.$.$.$.$.$.$.$.$.$.$.$.$.$.$.",
"$.$.$.$.$.$.$.$.$.$.$.$.$.$.$.$.$.$.:.$.$.$.$.$.$.$.$.$.$.$.$.$.$.$.$.$.$.$.$.$.$.$.$.$.$.$.$.$.$.$.",
"$.$.$.$.$.$.$.$.$.$.$.$.$.$.$.$.$.$.$.$.$.$.$.$.$.$.$.$.$.$.$.$.$.$.$.$.$.$.$.$.$.$.$.$.$.$.$.$.$.$.",
"$.$.$.$.$.$.$.$.$.$.$.$.$.$.$.$.$.$.$.$.$.$.$.$.$.$.$.$.$.$.$.$.$.$.$.$.$.$.$.$.$.$.$.$.$.$.$.$.$.$.",
"$.$.$.$.$.$.$.$.$.$.$.$.$.$.$.$.$.$.$.$.$.$.$.$.$.$.$.$.$.$.$.$.$.$.$.$.$.$.$.$.$.$.$.$.$.$.$.$.$.$.",
"$.$.$.$.$.$.$.$.$.$.$.$.$.$.$.$.$.$.$.$.$.$.$.$.$.$.$.$.$.$.$.$.$.$.$.$.$.$.$.$.$.$.$.$.$.$.$.$.$.$.",
"$.$.$.$.$.$.$.$.$.$.$.$.$.$.$.$.$.$.$.$.$.$.$.$.$.$.$.$.$.$.$.$.$.$.$.$.$.$.$.$.$.$.$.$.$.$.$.$.$.$.",
"$.$.$.$.$.$.$.$.$.$.$.$.$.$.$.$.$.$.$.$.$.$.$.$.$.$.$.$.$.$.$.$.$.$.$.$.$.$.$.$.$.$.$.$.$.$.$.$.$.$.",
"$.$.$.$.$.$.$.$.$.$.$.$.$.$.$.$.$.$.$.$.$.$.$.$.$.$.$.$.$.$.$.$.$.$.$.$.$.$.$.$.$.$.$.$.$.$.$.$.$.$.",
"$.$.$.$.$.$.$.$.$.$.$.$.$.$.$.$.$.$.$.$.$.$.$.$.$.$.$.$.$.$.$.$.$.$.$.$.$.$.$.$.$.$.$.$.$.$.$.$.$.$.",
"$.$.$.$.$.$.$.$.$.$.$.$.$.$.$.$.$.$.$.$.$.$.$.$.$.$.$.$.$.$.$.$.$.$.$.$.$.$.$.$.$.$.$.$.$.$.$.$.$.$.",
"$.$.$.$.$.$.$.$.$.$.$.$.$.$.$.$.$.$.$.$.$.$.$.$.$.$.$.$.$.$.$.$.$.$.$.$.$.$.$.$.$.$.$.$.$.$.$.$.$.$."
};
