/* XPM */
static char *c1b3480e69b440679fc327fbb9f28bf4[] = {
/* columns rows colors chars-per-pixel */
"50 50 212 2 ",
"   c #1C1C1C",
".  c #20211F",
"X  c #252525",
"o  c #272927",
"O  c #282C27",
"+  c #282828",
"@  c #2B2B2B",
"#  c #312D2B",
"$  c #2B3A24",
"%  c #2E342B",
"&  c #2F3A2A",
"*  c #323324",
"=  c #32332E",
"-  c #3C332D",
";  c #323C2C",
":  c #2F3032",
">  c #343434",
",  c #363636",
"<  c #353A33",
"1  c #3B3A36",
"2  c #3B3B3B",
"3  c #503133",
"4  c #642F33",
"5  c #33422B",
"6  c #384B2F",
"7  c #3B542E",
"8  c #3D5B2E",
"9  c #3A4C32",
"0  c #3E473C",
"q  c #3D5132",
"w  c #3F5C31",
"e  c #42403F",
"r  c #4A433D",
"t  c #434E3D",
"y  c #514336",
"u  c #59483A",
"i  c #45543D",
"p  c #49553D",
"a  c #455D39",
"s  c #56543D",
"d  c #68503E",
"f  c #745F3F",
"g  c #436333",
"h  c #466B33",
"j  c #4B6A3B",
"k  c #4A7434",
"l  c #4C7B35",
"z  c #4E763A",
"x  c #57743C",
"c  c #527C3D",
"v  c #563F40",
"b  c #434443",
"n  c #4A4643",
"m  c #444B46",
"M  c #474949",
"N  c #4C4C4C",
"B  c #524944",
"V  c #5C4E45",
"C  c #495445",
"Z  c #57554B",
"A  c #494E55",
"S  c #4F5053",
"D  c #535353",
"F  c #56585B",
"G  c #5B5B5B",
"H  c #6C5546",
"J  c #4E6344",
"K  c #4E6D4B",
"L  c #516646",
"P  c #5A7746",
"I  c #75604B",
"U  c #7D614C",
"Y  c #746457",
"T  c #575B62",
"R  c #6A6C6B",
"E  c #647C67",
"W  c #67707B",
"Q  c #737475",
"!  c #825F48",
"~  c #87634B",
"^  c #886A55",
"/  c #88735D",
"(  c #93735B",
")  c #9B765A",
"_  c #A27453",
"`  c #A67854",
"'  c #B17C58",
"]  c #8D7360",
"[  c #508237",
"{  c #53853A",
"}  c #568B3B",
"|  c #57913A",
" . c #59953C",
".. c #5D9D3D",
"X. c #5FA23D",
"o. c #61A63E",
"O. c #63AB3F",
"+. c #588743",
"@. c #5F9544",
"#. c #6E8443",
"$. c #639B45",
"%. c #679A5D",
"&. c #799B56",
"*. c #63A443",
"=. c #6AA645",
"-. c #65AB42",
";. c #6AAC45",
":. c #64A24B",
">. c #6CAD49",
",. c #77AC4B",
"<. c #6DB14C",
"1. c #73B14F",
"2. c #6EA958",
"3. c #70AC51",
"4. c #77B35C",
"5. c #678B69",
"6. c #728F68",
"7. c #648871",
"8. c #78877B",
"9. c #6FA460",
"0. c #7AA767",
"q. c #76A373",
"w. c #88874C",
"e. c #B88059",
"r. c #97A653",
"t. c #84B257",
"y. c #AAA559",
"u. c #968067",
"i. c #BB8A65",
"p. c #BF926D",
"a. c #80AE60",
"s. c #80AF69",
"d. c #85BB6B",
"f. c #9AB668",
"g. c #87AD74",
"h. c #98BD70",
"j. c #BBA86A",
"k. c #A6B66A",
"l. c #A0BC72",
"z. c #B3BC77",
"x. c #C58A60",
"c. c #CC8D61",
"v. c #C99269",
"b. c #D69667",
"n. c #DC9666",
"m. c #DE9A67",
"M. c #CD9D74",
"N. c #E39B67",
"B. c #E49B69",
"V. c #C0A46C",
"C. c #D1A27B",
"Z. c #E6A16F",
"A. c #E9AA79",
"S. c #96C279",
"D. c #A2C37D",
"F. c #667787",
"G. c #637390",
"H. c #7A868A",
"J. c #7987A1",
"K. c #888A8B",
"L. c #879A85",
"P. c #949799",
"I. c #89A886",
"U. c #9AAF94",
"Y. c #B4B093",
"T. c #A4A7A9",
"R. c #AFB3AD",
"E. c #BCB4AD",
"W. c #B9BABA",
"Q. c #D9AB82",
"!. c #D5BA88",
"~. c #E0AC81",
"^. c #E9B78A",
"/. c #EBB98D",
"(. c #ECBE93",
"). c #F0BF91",
"_. c #98C386",
"`. c #ACCA8F",
"'. c #BFCF9A",
"]. c #ADC6AB",
"[. c #C0CC9C",
"{. c #EFC297",
"}. c #F1C295",
"|. c #F2C599",
" X c #F4C99E",
".X c #D7D6AC",
"XX c #CBD7B0",
"oX c #F4CCA3",
"OX c #F4CFA8",
"+X c #E6D3AC",
"@X c #F5D3AE",
"#X c #EBD8BA",
"$X c #F5D6B3",
"%X c #F5DCBD",
"&X c #B1BFC2",
"*X c #B9C2CD",
"=X c #C6CAC9",
"-X c #CAD8CC",
";X c #C2CBD7",
":X c #EDDCC6",
">X c #F5DFC2",
",X c #D4E5CF",
"<X c #DBE6D9",
"1X c #E9E0C0",
"2X c #F7E1C7",
"3X c #F6E4CC",
"4X c #F8E3CA",
"5X c #ECE6D1",
"6X c #DBE0E4",
"7X c #E3E6E9",
"8X c #E9ECF1",
"9X c #F1F2F1",
/* pixels */
"O.O.O.O.O.O.O.O.O.O.O.O.O.O.O.O.O.O.O.O.O.O.O.O.O.O.O.O.O.O.O.O.O.O.O.O.O.O.O.O.O.O.O.O.O.O.O.O.O.O.",
"O.O.O.O.O.O.O.O.O.O.O.O.O.O.O.O.O.O.O.O.O.O.O.O.O.O.O.O.O.O.O.O.O.O.O.O.O.O.O.O.O.O.O.O.O.O.O.O.O.O.",
"O.O.O.O.O.O.O.O.O.O.O.O.O.O.O.O.O.O.O.O.O.O.O.O.O.O.O.O.O.O.O.O.O.O.O.O.O.O.O.O.O.O.O.O.O.O.O.O.O.O.",
"O.O.O.O.O.O.O.O.O.O.O.O.O.O.O.O.O.O.O.O.O.O.O.O.O.O.O.O.O.O.O.O.O.O.O.O.O.O.O.O.O.O.O.O.O.O.O.O.O.O.",
"O.O.O.O.O.O.O.O.O.O.O.O.O.O.O.O.O.O.O.O.O.O.O.O.O.O.O.O.O.O.O.O.O.O.O.O.O.O.O.O.O.O.O.O.O.O.O.O.O.O.",
"O.O.O.O.O.O.O.O.O.O.O.O.O.O.O.O.O.O.O.O.O.O.O.O.O.O.O.O.O.O.O.O.O.O.O.O.O.O.O.O.O.O.O.O.O.O.O.O.O.O.",
"O.O.O.O.O.O.O.O.O.O.O.O.O.O.O.O.O.O.O.O.O.O.O.O.O.O.O.O.O.O.O.O.O.O.O.O.O.O.O.O.O.O.O.O.O.O.O.O.O.O.",
"O.O.O.O.O.O.O.O.O.O.O.O.O.O.O.O.O.O.O.O.O.O.O.O.O.O.O.O.O.O.O.O.O.O.O.O.O.O.O.O.O.O.O.O.O.O.O.O.O.O.",
"O.O.O.O.O.O.O.O.O.O.O.O.O.O.O.O.O.O.O.O.O.O.O.O.O.O.O.O.O.O.O.O.>.<.-.-.%.-.O.O.O.O.O.O.O.O.O.O.O.O.",
"O.O.O.O.O.O.O.O.O.O.O.O.O.O.O.O.O.O.O.O.O.O.O.O.O.O.O.O.O.O.O.-.4.XX>.-.7.7.:.O.O.O.O.O.O.O.O.O.O.O.",
"O.O.O.O.O.O.O.O.O.O.O.O.O.O.O.O.} P J J L a 9 9 g [ [ [ o.O.O.O.-.].-X_.%.G.F.5.:.O.O.O.O.O.O.O.O.O.",
"O.O.O.O.O.O.O.O.O.O.O.O.O.O.} J Y / ] ] / ^ Y S n b 2 % 5 5 h [ O.2.&X6X<X*XJ.G.F.:.O.O.O.O.O.O.O.O.",
"O.O.O.O.O.O.O.O.O.O.O.O.} p U v.n.B.B.B.B.B.n.c.b.^ Y N b > @ O & h $.I.*X8X7XT > K O.O.O.O.O.O.O.O.",
"O.O.O.O.O.O.O.O.O.O...p I M.}.|.|.}.A.Z.B.B.B.B.B.B.n.( N M > X X X 7 +.H.;X8XH.1 @ g O.O.O.O.O.O.O.",
"O.O.O.O.O.O.O.O.O...p ( }. X X X X X X).B.B.B.B.N.x.~ N b b @ X X &  .p D W F.F D b %  .O.O.O.O.O.O.",
"O.O.O.O.O.O.O.O.X.p ( |.OX$X$X$XoX X X XA.B.N.x.~ H ( ) b @ X X &  ...; 1 > @ # X N > l O.-.O.O.O.O.",
"O.O.O.O.O.O.O.O.c P k..X4X3X3X3X2XoX X XA.x.U B ) n.n.B @     O } `.L.X @ N M 4 v X 2 g O.O.O.O.O.O.",
"O.O.O.O.O.O.O...j O.O.$.Y.3X3X3X3X$X X|.v.V ^ v.B.N._ 1     X 5 >.<XT.X X 1 1 3 4 R P.D P o.s.s.-.O.",
"O.O.O.O.O.O.O. .} O.o.a &.1X3X3X3X2X XC.V ) /.|.}.B.H >     X g o.0.b > X # b n r 9XR.N 2 h g.R.3.O.",
"O.O.O.O.O.O.O.O.O.O.-.X.>..X.XD.[.#XQ.V ) {.oX$XoX^.r @     X c I.=XN 2 y ' y #.V.5XE.1 1 z g.U.;.O.",
"O.O.O.O.O.O.O.O.O.O.O.O.>.S.>.-.-.&.( s !.%X4X3X2X/.r >     X b T.7XS 2 H m.m.,.;.t./.U m *.-.-.O.O.",
"O.O.O.O.O.O.O.O.O.O.O.O.O.-.O.O.O.z i ..>.Y.:X3X3X/.r 1 .   X X M K.: b b i.}.z.-.O.t.j.} O.O.O.O.O.",
"O.O.O.O.O.O.O.O.O.O.O.O.O.O.O.O.o.i ..O.} 5 a.XX4X^.^ N 2 @ X X > =XP.b S H (.>X_.-.O.-.O.O.O.O.O.O.",
"O.O.O.O.O.O.O.O.O.O.O.O.O.O.O.O.O.| O.O. .[ -.-.f.N.c.V b D D 2 b W.P.> D e p.$X%Xk.O.O.O.O.O.O.O.O.",
"O.O.o...O.O.O.O.O.O.O.O.O.O.O.O.O.O.O.O.O.<.d.-...w.e.` ! r N G G D N > b N H (.%X%X1.O.O.O.O.O.O.O.",
"O.O...k O.O.O.O.O.O.O.O.O.O.O.O.O.O.O.;.;.d.W.C ; @ @ X y - @ 1 2 N S > > b > v.$X%Xz.O.O.O.O.O.O.O.",
"O.O.o.h k o.O.O.O.O.O.O.O.O.O.O.O.>.-.`.].J > > 1 2 1 > @ X X X @ > @ X @ @ X d (.$X+X1.O.O.O.O.O.O.",
"O.O.O.| & h o.O.O.O.O.O.O.;.S.4.>.,X0.L.R 0 > @ > 2 2 1 > @ > 1 1 2 > @ 2 b 1 # ~.>X2Xh.O.O.O.O.O.O.",
"O.O.O.o.k % q } o.o.O.O.o.=.-X6.+.P.C 2 2 1 @ > 2 2 2 2 2 1 2 2 2 2 1 1 D G G 1 ~.@X$Xf.O.O.O.O.O.O.",
"O.O.O.O.O.| w 1 t a c c i t N 2 2 2 2 1 1 y @ 1 N G D 2 > 1 2 1 2 2 > b G G D u /.4X3Xh.O.O.O.O.O.O.",
"O.O.O.O.O.O.o.h < > 2 2 2 2 2 1 1 > n u.Q.` # 2 G G G D > @ 1 # @ > @ b G G b ~ |.$X+X;.O.O.O.O.O.O.",
"O.O.O.O.O.O.O.O. .h w % % < < Z / Y.`.k.r.$.; 1 D G G G b d c.x.~ ~ - > M b = C.%X2Xl.O.O.O.O.O.O.O.",
"O.O.O.O.O.O.O.O.O.O.O.o.o.o.o.-.;.;.-.O.l k g > b G G G M ~ m.N.N.c.- X @ @ _ }.%X'.-.O.O.O.O.O.O.O.",
"O.O.O.O.O.O.O.O.O.O.O.O.O.O.O.O.O.O.O.O.7 o o @ > b D D @ 7 =.r.y.u @ @ @ _ n.j.t.O.O.O.O.O.O.O.O.O.",
"O.O.O.O.O.O.O.O.O.O.O.O.O.O.O.O.O.O.O.O.k o @ h 5 O @ 7 l o.O.O.O.k > 1 x f *  .O.O.O.O.O.O.O.O.O.O.",
"O.O.O.O.O.O.O.O.O.O.O.O.O.O.O.O.O.O.O.O...6 1 z o.$   5 ..O.O.O.O.X.9 2 j 8   5  .O.O.O.O.O.O.O.O.O.",
"O.O.O.O.O.O.O.O.O.O.O.O.O.O.O.O.O.O.O.O.O.} = @ a i @ @ 5 w 8 l X.O.} = > 0 > @ O 8 8  .O.O.O.O.O.O.",
"O.O.O.O.O.O.O.O.O.O.O.O.O.O.O.O.O.O.O.O.O.O.l O > M K.Q b X : M E -.o.7 @ 2 Q R Q . A 0 9.O.O.O.O.O.",
"O.O.O.O.O.O.O.O.O.O.O.O.O.O.O.O.O.O.O.O.O.O.O.} [ { P.8.8.0 M 8.5.2.O...[ [ 6.L.U.j E 5.q.-.O.O.O.O.",
"O.O.O.O.O.O.O.O.O.O.O.O.O.O.O.O.O.O.O.O.O.O.O.O.O.O.:.$.-.$.@.*.O.O.O.O.O.O.-.-.-.O.*.-.-.O.O.O.O.O.",
"O.O.O.O.O.O.O.O.O.O.O.O.O.O.O.O.O.O.O.O.O.O.O.O.O.O.O.O.O.O.O.O.O.O.O.O.O.O.O.O.O.O.O.O.O.O.O.O.O.O.",
"O.O.O.O.O.O.O.O.O.O.O.O.O.O.O.O.O.O.O.O.O.O.O.O.O.O.O.O.O.O.O.O.O.O.O.O.O.O.O.O.O.O.O.O.O.O.O.O.O.O.",
"O.O.O.O.O.O.O.O.O.O.O.O.O.O.O.O.O.O.O.O.O.O.O.O.O.O.O.O.O.O.O.O.O.O.O.O.O.O.O.O.O.O.O.O.O.O.O.O.O.O.",
"O.O.O.O.O.O.O.O.O.O.O.O.O.O.O.O.O.O.O.O.O.O.O.O.O.O.O.O.O.O.O.O.O.O.O.O.O.O.O.O.O.O.O.O.O.O.O.O.O.O.",
"O.O.O.O.O.O.O.O.O.O.O.O.O.O.O.O.O.O.O.O.O.O.O.O.O.O.O.O.O.O.O.O.O.O.O.O.O.O.O.O.O.O.O.O.O.O.O.O.O.O.",
"O.O.O.O.O.O.O.O.O.O.O.O.O.O.O.O.O.O.O.O.O.O.O.O.O.O.O.O.O.O.O.O.O.O.O.O.O.O.O.O.O.O.O.O.O.O.O.O.O.O.",
"O.O.O.O.O.O.O.O.O.O.O.O.O.O.O.O.O.O.O.O.O.O.O.O.O.O.O.O.O.O.O.O.O.O.O.O.O.O.O.O.O.O.O.O.O.O.O.O.O.O.",
"O.O.O.O.O.O.O.O.O.O.O.O.O.O.O.O.O.O.O.O.O.O.O.O.O.O.O.O.O.O.O.O.O.O.O.O.O.O.O.O.O.O.O.O.O.O.O.O.O.O.",
"O.O.O.O.O.O.O.O.O.O.O.O.O.O.O.O.O.O.O.O.O.O.O.O.O.O.O.O.O.O.O.O.O.O.O.O.O.O.O.O.O.O.O.O.O.O.O.O.O.O.",
"O.O.O.O.O.O.O.O.O.O.O.O.O.O.O.O.O.O.O.O.O.O.O.O.O.O.O.O.O.O.O.O.O.O.O.O.O.O.O.O.O.O.O.O.O.O.O.O.O.O."
};
