/* XPM */
static char *fba0d5545a2246fa9b1a6612607eeb20[] = {
/* columns rows colors chars-per-pixel */
"50 50 202 2 ",
"   c #191516",
".  c #1C1C1C",
"X  c #20211F",
"o  c #25281F",
"O  c #262625",
"+  c #272827",
"@  c #292C27",
"#  c #2C2C2B",
"$  c #382828",
"%  c #2D322A",
"&  c #2C3528",
"*  c #30312F",
"=  c #303A2C",
"-  c #2E2F30",
";  c #343434",
":  c #373936",
">  c #383937",
",  c #353738",
"<  c #3B3C3B",
"1  c #59272B",
"2  c #453B31",
"3  c #4A3C33",
"4  c #403D3A",
"5  c #34442C",
"6  c #364B2C",
"7  c #3A532E",
"8  c #3D5B2E",
"9  c #394A34",
"0  c #3D423B",
"q  c #3F5533",
"w  c #4E433C",
"e  c #47483B",
"r  c #56473C",
"t  c #4E5232",
"y  c #43533A",
"u  c #435A38",
"i  c #6A533F",
"p  c #40642E",
"a  c #436433",
"s  c #466B33",
"d  c #4C6B3C",
"f  c #54693E",
"g  c #477232",
"h  c #497534",
"j  c #4D7B36",
"k  c #434343",
"l  c #4B4643",
"z  c #494945",
"x  c #4C4C4C",
"c  c #534B41",
"v  c #5A4C42",
"b  c #504F4D",
"n  c #52584E",
"m  c #484D52",
"M  c #4F5050",
"N  c #555555",
"B  c #57585C",
"V  c #5B5B5B",
"C  c #665749",
"Z  c #755945",
"A  c #6E5F53",
"S  c #745E50",
"D  c #4B6140",
"F  c #536449",
"G  c #527341",
"H  c #5B6958",
"J  c #706A4A",
"K  c #716559",
"L  c #575E6A",
"P  c #5B626C",
"I  c #59677C",
"U  c #616267",
"Y  c #707D6E",
"T  c #6C6E72",
"R  c #6B7578",
"E  c #83584E",
"W  c #8A6851",
"Q  c #966D52",
"!  c #9A7256",
"~  c #9B765B",
"^  c #A77856",
"/  c #A37B5C",
"(  c #B77F58",
")  c #987760",
"_  c #528636",
"`  c #538639",
"'  c #558A3A",
"]  c #57913A",
"[  c #5B963D",
"{  c #5C9B3D",
"}  c #5FA23D",
"|  c #61A53E",
" . c #63AB3F",
".. c #5B8A43",
"X. c #5E9641",
"o. c #619544",
"O. c #689B45",
"+. c #66875E",
"@. c #669A58",
"#. c #63A544",
"$. c #64AA41",
"%. c #6CAD46",
"&. c #67A24A",
"*. c #6BAD4A",
"=. c #74AA48",
"-. c #6CA856",
";. c #72B154",
":. c #7FB053",
">. c #7BB65B",
",. c #678C6C",
"<. c #789B6A",
"1. c #7F8E7C",
"2. c #7AA968",
"3. c #7CB762",
"4. c #79A378",
"5. c #968150",
"6. c #B8815A",
"7. c #BC9D5D",
"8. c #87A94E",
"9. c #99A759",
"0. c #85B258",
"q. c #8C916D",
"w. c #AC8564",
"e. c #B38564",
"r. c #B68764",
"t. c #BE9571",
"y. c #88B866",
"u. c #9AB96A",
"i. c #84A975",
"p. c #8BB474",
"a. c #B0AF66",
"s. c #BBBC7D",
"d. c #C3885E",
"f. c #C68C63",
"g. c #CE8F63",
"h. c #DA9666",
"j. c #D89866",
"k. c #C29773",
"l. c #E39C67",
"z. c #E49B69",
"x. c #C0A27D",
"c. c #D0A079",
"v. c #E5A474",
"b. c #E7A978",
"n. c #EAAA7A",
"m. c #9CC176",
"M. c #A0C37D",
"N. c #647A85",
"B. c #6F8293",
"V. c #838585",
"C. c #8A8B8C",
"Z. c #949698",
"A. c #93B185",
"S. c #97B59B",
"D. c #B2BA86",
"F. c #9E9FA1",
"G. c #97A2B5",
"H. c #A7A9AB",
"J. c #A5B0A0",
"K. c #B0B3AF",
"L. c #AAB0B1",
"P. c #D8B981",
"I. c #E0AD82",
"U. c #E4B48A",
"Y. c #EAB689",
"T. c #ECBA8E",
"R. c #F0BC8E",
"E. c #CDBFA0",
"W. c #B7CC92",
"Q. c #B5D5A8",
"!. c #B8CEB3",
"~. c #C7C388",
"^. c #CFC893",
"/. c #EEC095",
"(. c #F2C295",
"). c #F3C69A",
"_. c #F4C99D",
"`. c #D8CFA0",
"'. c #C7D2A0",
"]. c #D7D7AF",
"[. c #D6C8B0",
"{. c #C2DAB7",
"}. c #F4CCA4",
"|. c #F5D2AD",
" X c #E3DAB7",
".X c #F5D6B4",
"XX c #F4DABB",
"oX c #AAB6C4",
"OX c #C7CDD2",
"+X c #CBCFD5",
"@X c #D5DCD6",
"#X c #F7DFC2",
"$X c #D2E5C8",
"%X c #EFE2C6",
"&X c #F4E1C6",
"*X c #F8E0C3",
"=X c #F6E4CC",
"-X c #D8DEE1",
";X c #DAE0E3",
":X c #E4E7EB",
">X c #ECEFF0",
",X c gray96",
/* pixels */
" . . . . . . . . . . . . . . . . . . . . . . . . . . . . . . . . . . . . . . . . . . . . . . . . . .",
" . . . . . . . . . . . . . . . . . . . . . . . . . . . . . . . . . . . . . . . . . . . . . . . . . .",
" . . . . . . . . . . . . . . . . . . . . . . . . . . . . . . . . . . . . . . . . . . . . . . . . . .",
" . . . . . . . . . . . . . . . . . . . . . . . . . . . . . . . . . . . . . . . . . . . . . . . . . .",
" . . . . . . . . . . . . . . . . . . . . . . . . . . . . . . . . . . . . .$.$.$. . . . . . . . . . .",
" . . . . . . . . . . . . . . . . . . . . . . . . . . . . . . . . . . . .$.$.$. . . . . . . . . . . .",
" . . . . . . . . . . . . . . . . . . . . . . . . . . . . . . . .;.3. .$.,.&. . . . . . . . . . . . .",
" . . . . . . . . . . . . . . . . .| { { } } { [ }  . . . . . . .;.@X3.#.,.N.@.#. . . . . . . . . . .",
" . . . . . . . . . . . . . . .[ G F n n n e 0 0 9 a a a ] [ }  . .S.-X!.p.B.N.N.@. . . . . . . . . .",
" . . . . . . . . . . . . .[ f A ) e.e.e.e.e.~ A A b z > % % 6 a ] #.S.OX;X-XG.I I @. . . . . . . . .",
" . . . . . . . . . . .[ d C w.v.v.v.z.z.z.l.l.z.z.r.~ K b < # O @ 6 ` 2.oX:X,XT - 9 {  . . . . . . .",
" . . . . . . . . . .' c w.U.)._._.).R.b.z.z.z.z.z.z.g.S z z , O O + u G T oX+XR k ; 6  . . . . . . .",
" . . . . . . . . .' c t.)._._._._._._.(.z.z.z.l.j.! C C l k + O O 7 } y N M m x x z % `  . . . . . .",
" . . . . . . . .[ e t.}..X#X*X#X|._._._.b.z.h.! C Q f.W > O . O 7 #.X.@ ; > > $   < < j  . . . . . .",
" . . . . . . . .d o.:.W.&X=X=X=X=X}._._.b.^ l C f.z.f.e O . . % o.$XH.O # M k 1 E X ; y #. . . . . .",
" . . . . . . .[ d  . .j q.=X=X=X=XXX_.(./ c r.b.v.z.! , . . O 5 #.{.Z.+ O # > k $ H.OXV F { A.A.#. .",
" . . . . . . .[ [  .| g &. X=X%X&X&X).e.c k.).}.).v.v # . . O h #.<.; > # 2 < r Z ,XZ.k ; u 2.K.;. .",
" . . . . . . . . . . . .*.'.W.>.u.E.c.w t.}.|.#X|.Y.w # . . O G J.:XB < i g.Z O.a.].[.w k ..i.i.$. .",
" . . . . . . . . . . . .%.y. . . .O.A f s.&X=X=X=XT.l > . . O , C.OXk k r h.n.8.$.%.P.~ y |  . . . .",
" . . . . . . . . . . . . . . . .$.d d | { q.[.=X=XT.c < O . O O > C.z k z / ).~.*. .=.9.{  . . . . .",
" . . . . . . . . . . . . . .$. .#.u |  .' 7 *.M. Xn./ x z > ; + , @XL.< N v U.&X'.%. . . . . . . . .",
" . . . . . . . . . . . . . . . . .}  . .{ [ $. .:.j.h.S 4 x N x x V.T ; x z / }..X~. . . . . . . . .",
" . .} '  . . . . . . . . . . . . . . . . .>.Q.O._ f Z Z Q r < N B B N > < z r U.&X&Xy. . . . . . . .",
" . .{ h |  . . . . . . . . . . . .$. .;.;.2.V.> * , # + # + O # # k k # ; > # / }..X~.$. . . . . . .",
" . . .g 7 }  . . . . . . . . . .$.>.*.{.!.y > > > < < > # O O + ; , + O + + O 3 Y.&XXX0. . . . . . .",
" . . .{ = 7 [  . . . . . .*.Q.y.*.>X<.H z < - + , < < < < ; , < < < , # k N k * I.XX#Xu. . . . . . .",
" . . . .' 5 = d [ [  . .[ o.L.H D U < < < , + , < k k < > < < < < < > < N V B 4 I..XXXu. . . . . . .",
" . . . . .| j : < e u u 0 < < < < < < 4 v Z # > N V N 4 # , > , > < , k V V M Z /.&X&Xy. . . . . . .",
" . . . . . . .` 9 * > > , < < > > z K x.P.5.* < B V V N , # r w # , # k B B > ! }.|.^.$. . . . . . .",
" . . . . . . . .| ' j 7 7 q q J q.D.m.0.=.} 5 > z V V V k E z.h.( 6.3 # < , 3 I.&X&Xy. . . . . . . .",
" . . . . . . . . . . . . . . . . . . . .a 7 8 ; < N V V k i 7.j.l.^ # O O 2 d.T.`.m. . . . . . . . .",
" . . . . . . . . . . . . . . . . . . . .7 O O @ # > z z % h $.=.8.t * # 2 6.^ 9.%. . . . . . . . . .",
" . . . . . . . . . . . . . . . . . . . .` @ # ' s @ O 8 [  . . . .' ; < ` t o _  . . . . . . . . . .",
" . . . . . . . . . . . . . . . . . . . .| a > q } 6 . & '  . . . . .a > y p . & g  . . . . . . . . .",
" . . . . . . . . . . . . . . . . . . . . .[ = + 0 x > # @ % % 7 [  .[ = ; k k > + % & h  . . . . . .",
" . . . . . . . . . . . . . . . . . . . . . .[ = % k L.C.V X , L R *. .s @ ; V.V.F.X P m 4. . . . . .",
" . . . . . . . . . . . . . . . . . . . . . . .| } X.1.Y <.F n ,.@.*. . .| } @.<.i.X.+.@.-.$. . . . .",
" . . . . . . . . . . . . . . . . . . . . . . . . . .$.$. . .|  . . . . . . . . . . .$. . . . . . . .",
" . . . . . . . . . . . . . . . . . . . . . . . . . . . . . . . . . . . . . . . . . . . . . . . . . .",
" . . . . . . . . . . . . . . . . . . . . . . . . . . . . . . . . . . . . . . . . . . . . . . . . . .",
" . . . . . . . . . . . . . . . . . . . . . . . . . . . . . . . . . . . . . . . . . . . . . . . . . .",
" . . . . . . . . . . . . . . . . . . . . . . . . . . . . . . . . . . . . . . . . . . . . . . . . . .",
" . . . . . . . . . . . . . . . . . . . . . . . . . . . . . . . . . . . . . . . . . . . . . . . . . .",
" . . . . . . . . . . . . . . . . . . . . . . . . . . . . . . . . . . . . . . . . . . . . . . . . . .",
" . . . . . . . . . . . . . . . . . . . . . . . . . . . . . . . . . . . . . . . . . . . . . . . . . .",
" . . . . . . . . . . . . . . . . . . . . . . . . . . . . . . . . . . . . . . . . . . . . . . . . . .",
" . . . . . . . . . . . . . . . . . . . . . . . . . . . . . . . . . . . . . . . . . . . . . . . . . .",
" . . . . . . . . . . . . . . . . . . . . . . . . . . . . . . . . . . . . . . . . . . . . . . . . . .",
" . . . . . . . . . . . . . . . . . . . . . . . . . . . . . . . . . . . . . . . . . . . . . . . . . .",
" . . . . . . . . . . . . . . . . . . . . . . . . . . . . . . . . . . . . . . . . . . . . . . . . . ."
};
