/* XPM */
static char *c0a9f124bc31481887fefb5e171d52f6P2WKOLGwXqp5ngXN[] = {
/* columns rows colors chars-per-pixel */
"50 50 152 2 ",
"   c #010101",
".  c #080606",
"X  c #060609",
"o  c #0A090B",
"O  c #120D0D",
"+  c #0D0D14",
"@  c #0F0F18",
"#  c #141212",
"$  c #191616",
"%  c #13131C",
"&  c #19161C",
"*  c #1D1B1C",
"=  c #241D1D",
"-  c #281E1E",
";  c #151620",
":  c #171B27",
">  c #1C1C24",
",  c #1B1D2A",
"<  c #221F24",
"1  c #201F31",
"2  c #1C202B",
"3  c #1E2232",
"4  c #252324",
"5  c #292226",
"6  c #2B2B2C",
"7  c #312626",
"8  c #3E302F",
"9  c #222335",
"0  c #282731",
"q  c #2B2935",
"w  c #242639",
"e  c #26283C",
"r  c #2A2A3D",
"t  c #312E3D",
"y  c #323232",
"u  c #3F3131",
"i  c #35353A",
"p  c #3B3B3B",
"a  c #443636",
"s  c #443934",
"d  c #473A3A",
"f  c #4C3E3C",
"g  c #4B403B",
"h  c #52453E",
"j  c #2D2D45",
"k  c #2F2F48",
"l  c #302F41",
"z  c #2F304A",
"x  c #333242",
"c  c #31314B",
"v  c #3A364B",
"b  c #3B384D",
"n  c #373850",
"m  c #3D3D55",
"M  c #4D3F44",
"N  c #434344",
"B  c #4E4045",
"V  c #4F4248",
"C  c #4B4A4A",
"Z  c #574443",
"A  c #5B4646",
"S  c #5D4E47",
"D  c #52444B",
"F  c #444454",
"G  c #44445A",
"H  c #48485F",
"J  c #564751",
"K  c #564851",
"L  c #535357",
"P  c #5A5A5A",
"I  c #644E4D",
"U  c #65534D",
"Y  c #675150",
"T  c #6C5554",
"R  c #6F5B55",
"E  c #647649",
"W  c #67784B",
"Q  c #6A794C",
"!  c #6E6053",
"~  c #6C6851",
"^  c #4C4C62",
"/  c #525463",
"(  c #55556A",
")  c #5B5B6D",
"_  c #5C5C70",
"`  c #656262",
"'  c #64646A",
"]  c #6D6D6D",
"[  c #626275",
"{  c #666679",
"}  c #6D6D7F",
"|  c #716F73",
" . c #727172",
".. c #797777",
"X. c gray50",
"o. c #63A73F",
"O. c #63AA3F",
"+. c #678D46",
"@. c #669744",
"#. c #659A43",
"$. c #64A440",
"%. c #6F6F80",
"&. c #757585",
"*. c #7A7A84",
"=. c #7A7A89",
"-. c #858485",
";. c #84858A",
":. c #87898F",
">. c gray55",
",. c #848494",
"<. c #878893",
"1. c #8A8A93",
"2. c #8E8E9B",
"3. c #939394",
"4. c #93949B",
"5. c #9B9B9C",
"6. c #A49E9D",
"7. c #9595A3",
"8. c gray65",
"9. c #A2A2AD",
"0. c #ABABAC",
"q. c #B4B0AF",
"w. c #ADADB5",
"e. c #AEAEB8",
"r. c #B3B3B3",
"t. c #B5B5BE",
"y. c #BDBDBD",
"u. c #BCBCC3",
"i. c #C4C4C4",
"p. c #C8C4C3",
"a. c #C6C6CD",
"s. c #CBCBCC",
"d. c #D0CFCE",
"f. c #CDCDD3",
"g. c #D3D3D4",
"h. c #D2D2D7",
"j. c #D5D5D5",
"k. c #D4D4DA",
"l. c #D6D6DB",
"z. c #DBDBDD",
"x. c #DFDFE3",
"c. c #E3E3E4",
"v. c #E2E2E5",
"b. c #E5E5E7",
"n. c #E7E7EA",
"m. c #E8E8EA",
"M. c #ECECEE",
"N. c #EFEFF1",
"B. c #F2F2F4",
"V. c #F4F4F4",
"C. c gray98",
"Z. c #FCFCFC",
/* pixels */
"O.O.O.O.O.O.O.O.O.O.O.O.O.O.O.O.O.O.O.O.O.O.O.O.O.O.O.O.O.O.O.O.O.O.O.O.O.O.O.O.O.O.O.O.O.O.O.O.O.O.",
"O.O.O.O.O.O.O.O.O.O.O.O.O.O.O.O.O.O.O.O.O.O.O.O.O.O.O.O.O.O.O.O.O.O.O.O.O.O.O.O.O.O.O.O.O.O.O.O.O.O.",
"O.O.$.@.@.@.@.@.@.@.@.@.@.@.@.@.@.@.@.@.@.@.@.@.@.@.@.@.@.@.@.@.@.@.@.@.@.@.@.@.@.@.@.@.@.@.@.$.O.O.",
"O.O.@.~ ! ! ! ! ! ! ! ! ! ! ! ! ! ! ! ! ! ! ! ! ! ! ! ! ! ! ! ! ! ! ! ! ! ! ! ! ! ! ! ! ! ! ! Q $.O.",
"O.O.@.! T T T T T T T T T T T T T T T T T T T T T T T T T T T T T T T T T T T T T T T T T T R Q $.O.",
"O.O.@.! T I A Z Z Z Z Z Z Z Z Z Z Z Z Z Z Z Z Z Z Z Z Z Z Z Z Z Z Z Z Z Z Z Z Z Z Z Z Z Z A U Q $.O.",
"O.O.@.! Y f 7 - - - - - - - - - - - - - - - - - - - - - - - - - - - - - - - - - - - - - - 7 h E $.O.",
"O.O.@.! Y a # . . . . . . . . . . . . . . . . . . . . . . . . . . . . . o o O O O o o . . # s E $.O.",
"O.O.@.! Y 8 O . . . . . . . .                                         . O # $ $ $ $ # .   O s E $.O.",
"O.O.@.! Y u # @ % ; ; ; ; ; % @                                       . # * = = = * * o . O s E $.O.",
"O.O.@.! Y u & , e j j j j e e : X                                     . # = = = = = * o . O s E $.O.",
"O.O.@.! Y u & 9 k c c c c c k , o                                     . # * = = = = * o . O s E $.O.",
"O.O.@.! Y u & 9 k c c c c c k , o                                     . O $ $ $ $ $ # .   O s E $.O.",
"O.O.@.! Y u & 9 k c c c c c k , o                                       . . . . . . .     O s E $.O.",
"O.O.@.! Y u & 9 k c c c c c k , o                               . . o o . o .             O s E $.O.",
"O.O.@.! Y q.< 9 k c c c c c k , o                             . # $ $ $ $ $ # .           # 6.E $.O.",
"O.O.@.! Y C.-.l %.{ c c c c k , o                             . $ = = = * * $ .     p P o ` C.E $.O.",
"O.O.@.! Y s.0.v.Z.f.k.[ c c k , o X . o o o o o o X           o $ = = = = * $ . 6 i.i.V.b.r.p.E $.O.",
"O.O.@.! Y a & *.m.{ x.h.H ^ &.r @ % : , , , , , , % X         . $ * = = 4 ` C * 0.m.y j.3.# d E $.O.",
"O.O.@.! Y u & w =.u.v.9.h.B.x.h.;., j k k k k k k 9 +         . # $ $ ..h.d.C.s.>.h.y.] # O s E $.O.",
"O.O.@.! Y u & 9 c c c c m n.9.<.C.) G &.( c c c c 9 +         6 P 4 p m.5. .V.*           O s E $.O.",
"O.O.@.! Y u & 9 k c c c c ( 9.b.0.w.m.N.a.h.^ c m 4.1.4   # r.i.v.m.r.>.b.5.p             O s E $.O.",
"O.O.@.! Y u & 9 k c c c c c k 9 % 9 9.v.} N.w.) x.w.5.z.p -.V.L i.y.    .                 O s E $.O.",
"O.O.@.! Y u & 9 k c c c c c k 9 ; 9 c 2.z.b.w.m.n.F > s.B.5.s.j.-.#                       O s E $.O.",
"O.O.@.! Y u & 9 k c c c c c k w : w m 9.x.n.u.N.f.v > 5.B.r.h.z.5.*                       O s E $.O.",
"O.O.@.! Y u & 9 k c c c c c k x 2 e t.z.[ B.9.7.t.F i  .r.] V.C r.a..   #                 O s E $.O.",
"O.O.@.! Y u & 9 k c c c c [ u.M.i.s.b.N.k.i.( C.Z.C.C.C.C.N 8.j.b.v.s.r.M.r.C             O s E $.O.",
"O.O.@.! Y u & 9 c c c c m M.9.<.C./ n [ ^ c ^ Z.Z.s.r.Z.Z.N . > N # 6 v.3.] V.4   .       O s E $.O.",
"O.O.@.! Y u & r <.f.m.e.h.M.v.h.;.w k c c c ^ Z.Z.u.4.Z.Z.L % % % % % ' s.s.M.h.5.b.s.X.# O s E $.O.",
"O.O.@.! Y d & <.N.) z.a.m G ( j : w k c c c ^ Z.Z.x.u.Z.Z.) e e e e e 9 % 6 * o 3.v.y z.3.# g E $.O.",
"O.O.@.! Y z.y.z.Z.k.a.) c c c w : w k c c c ^ Z.Z.Z.Z.Z.Z.{ c c c c c w @       * 8.h.V.j.i.d.E $.O.",
"O.O.@.! Y C.| w _ ( c c c c k w : w k c c c c ,.7.2.:.1.2.m c c c c c w @           * N   C V.E $.O.",
"O.O.@.! Y a & 9 k c c c c c k w : w k c c c c c c e : 9 k c c c c c c w @                 O f E $.O.",
"O.O.@.! Y u & 9 k c c c c c k w : w k c c c c c c e : 9 k c c c c c c w @                 O s E $.O.",
"O.O.@.! Y u & 9 k c c c c c k w : w k c c c c c c e : 9 k c c c c c c w @                 O s E $.O.",
"O.O.@.! Y u & 9 k c c c c c k w : w k c c c c c c e : 9 k c c c c c c w @                 O s E $.O.",
"O.O.@.! Y u & 9 k c c c c c k w : w k c c c c c c e : 9 k c c c c c c w % X X o o o o X X O s E $.O.",
"O.O.@.! Y u & 9 k c c c c c k w : w k c c c c c c e : 9 k c c c c c c w % @ : , , , , : % # s E $.O.",
"O.O.@.! Y u & 9 k c c c c c k w : w k c c c c c c e : 9 k c c c c c c w % ; e k k k k j , & s E $.O.",
"O.O.@.! Y u & 9 k c c c c c k w : w k c c c c c c e : 9 k c c c c c c w % : k c c c c k 9 & s E $.O.",
"O.O.@.! Y u & 9 k c c c c c k w : w k c c c c c c e : 9 k c c c c c c e ; : k c c c c k 9 & s E $.O.",
"O.O.@.! Y u & 9 k c c c c c k w : w k c c c c c z e : 3 k c c c c c c e : , j c c c c k 9 & s E $.O.",
"O.O.@.! Y u & 9 k c c c c c k w : w k c c c c c c e : 9 k c c c c c c e : 3 k c c c c k 1 & s E $.O.",
"O.O.@.! Y a 5 r v b b b b b v t 0 t v b b b b b v x 0 r v b b b b b b x 0 q v b b b b v q 5 f E $.O.",
"O.O.@.! T A f D J K K K K K J D M D J J K K K K J D B V D J K K K K K D B B D J K K K J D f S W $.O.",
"O.O.@.! T T Y Y T T T T T T T Y Y Y T T T T T T T Y Y Y T T T T T T T T Y Y T T T T T T Y Y T Q $.O.",
"O.O.@.! R R R R R R R R R R R R R R R R R R R R R R R R R R R R R R R R R R R R R R R R R R R Q $.O.",
"O.O.#.Q Q Q Q Q Q Q Q Q Q Q Q Q Q Q Q Q Q Q Q Q Q Q Q Q Q Q Q Q Q Q Q Q Q Q Q Q Q Q Q Q Q Q Q +.o.O.",
"O.O.O.$.$.$.$.$.$.$.$.$.$.$.$.$.$.$.$.$.$.$.$.$.$.$.$.$.$.$.$.$.$.$.$.$.$.$.$.$.$.$.$.$.$.$.$.o.O.O.",
"O.O.O.O.O.O.O.O.O.O.O.O.O.O.O.O.O.O.O.O.O.O.O.O.O.O.O.O.O.O.O.O.O.O.O.O.O.O.O.O.O.O.O.O.O.O.O.O.O.O."
};
