/* XPM */
static char *dd9a395c1f5e4cabbc83820cadd9fcd6[] = {
/* columns rows colors chars-per-pixel */
"50 50 69 1 ",
"  c #010001",
". c #090707",
"X c #060609",
"o c #0C090A",
"O c #100D0F",
"+ c #0D0D14",
"@ c #0F0F18",
"# c #120F14",
"$ c #0E1017",
"% c #141113",
"& c #191616",
"* c #13131D",
"= c #1D191A",
"- c #231C1C",
"; c #161621",
": c #151A23",
"> c #181925",
", c #1D1D2C",
"< c #1F1F30",
"1 c #1F2333",
"2 c #2B2121",
"3 c #22232C",
"4 c #3D2F2F",
"5 c #212233",
"6 c #2B2737",
"7 c #242538",
"8 c #27293D",
"9 c #29293E",
"0 c #3F3130",
"q c #463736",
"w c #473837",
"e c #4C3C3C",
"r c #2B2B42",
"t c #2F2F49",
"y c #312F40",
"u c #2F304A",
"i c #343245",
"p c #31314B",
"a c #32324D",
"s c #38354B",
"d c #39364C",
"f c #4D3F43",
"g c #4D4043",
"h c #4E4144",
"j c #534140",
"k c #504247",
"l c #5B4747",
"z c #5C4747",
"x c #5B4847",
"c c #5C4847",
"v c #514349",
"b c #53444B",
"n c #54464C",
"m c #5D4848",
"M c #574952",
"N c #584852",
"B c #66504F",
"V c #685150",
"C c #6C5554",
"Z c #6F5756",
"A c #705756",
"S c #705857",
"D c #6A774D",
"F c #6A784D",
"G c #63AB3F",
"H c #678B47",
"J c #659E42",
"K c #64A341",
"L c #64A440",
/* pixels */
"GGGGGGGGGGGGGGGGGGGGGGGGGGGGGGGGGGGGGGGGGGGGGGGGGG",
"GGGGGGGGGGGGGGGGGGGGGGGGGGGGGGGGGGGGGGGGGGGGGGGGGG",
"GGGJJJJJJJJJJJJJJJJJJJJJJJJJJJJJJJJJJJJJJJJJJJJLGG",
"GGJZZZZZAAAAZZZZZZZZAAAAZZZZZZZZAAAAZZZZZZZZAZZFGG",
"GGJZZZSSSSSSSSSSSSSSSSSSSSSSSSSSSSSSSSSSSSSSSSSFGG",
"GGJZZBmzcccccccccccccccccccccccccccclllllllxlmVFGG",
"GGJZZe2--------------------------------------2jFGG",
"GGJSZqo                             .......X owFGG",
"GGJSZ0.                             O&&&&&&. .qFGG",
"GGJSZ0o@*******@                   X&------o oqFGG",
"GGJSZ0#1rrrrrrr,X                  X&-----=o oqFGG",
"GGJSZ0%7aaaaaaa5X                  X&-----=o oqFGG",
"GGJSZ0#7aappppp5X                   %&&&&=&. oqFGG",
"GGJSZ0#7aappppp5X                   X......  oqFGG",
"GGJSZ0#7ppppppp5X               .......      oqFGG",
"GGJSZ0#7ppppppp5X              .&=====%X     oqFGG",
"GGJSZ0#7ppppppp5X              .=-----&.     oqFGG",
"GGJSZ0#7ppppppp5X XXXXXXXX     .=-----&X     oqFGG",
"GGJSZ0#7ppppppp5o*,,,,,,,;X    .=-----&.     oqFGG",
"GGJSZ0#7ppppppp<+,ttttttp5o    .%&&&&&%X     oqFGG",
"GGJSZ0#7ppppppp<+5pppaaaa7o     X.....X      oqFGG",
"GGJSZ0#7ppppppp<+<upppppa7o                  oqFGG",
"GGJSZ0#7ppppppp<+5ppppppa7o                  oqFGG",
"GGJSZ0#7ppppppp5*5ppppppa7o                  oqFGG",
"GGJSZ0#7ppppppp5:7ppppppa7o                  oqFGG",
"GGJSZ0#7ppppppp7:7ppppppa7o                  oqFGG",
"GGJSZ0#7ppppppp7:7ppppppa7o                  oqFGG",
"GGJSZ0#7ppppppp7:7ppppppa7o                  oqFGG",
"GGJSZ0#7ppppppp7:7ppppppa7$@********X        oqFGG",
"GGJSZ0#7ppppppp7:7ppppppa8:,rrrrrrr5+        oqFGG",
"GGJSZ0#7ppppppp7:7ppppppa8:5paaaaaar@        oqFGG",
"GGJSZ0#7ppppppp7:7ppppppa8:1upppppa9@        oqFGG",
"GGJSZ0#7ppppppp7:7ppppppa8:1upppppa9@        oqFGG",
"GGJSZ0#7ppppppp7:7ppppppa8:1upppppa9@        oqFGG",
"GGJSZ0#7ppppppp7:7ppppppa8:1upppppa9@        oqFGG",
"GGJSZ0#7ppppppp7:7ppppppa8:1upppppa9@        oqFGG",
"GGJSZ0#7ppppppp7:7ppppppa8:1upppppa9@ XXXXXX oqFGG",
"GGJSZ0#7ppppppp7:7ppppppa8:1upppppa9@+,,,,,,*OqFGG",
"GGJSZ0#7ppppppp7:7ppppppa8:1upppppa9@;rptttp<%qFGG",
"GGJSZ0#7ppppppp7:7ppppppa8:1upppppa9@;taaaaa5%qFGG",
"GGJSZ0#7ppppppp7:7ppppppa8:1upppppa9*>tapppp5%qFGG",
"GGJSZ0#7ppppppp7:7ppppppa8:1upppppar:,tapppp5%qFGG",
"GGJSZ4+5tpuuuuu5:5tuuuuua8:1tuuuuupr:,tpuuuu<#qFGG",
"GGJAZq=9ddddddd939sddddddy36sddddddi36sddddd6=eFGG",
"GGJZZcebMNNNNNNbfbMNNNNNNngvMNNNNNNnhkMNNNNMvemFGG",
"GGJZZZZZZZZZZZZZZZZZZZZZZZZZZZZZZZZZZZZZZZZZZZZFGG",
"GGJZZZSSSSSSSSSSSSSSSSSSSSSSSSSSSSSSSSSSSSSSSSZFGG",
"GGKDDDDDDDDDDDDDDDDDDDDDDDDDDDDDDDDDDDDDDDDDDDDHGG",
"GGGGGGGGGGGGGGGGGGGGGGGGGGGGGGGGGGGGGGGGGGGGGGGGGG",
"GGGGGGGGGGGGGGGGGGGGGGGGGGGGGGGGGGGGGGGGGGGGGGGGGG"
};
