/* XPM */
static char *_072e3582f3b4fe3bd7b3f8307463b65[] = {
/* columns rows colors chars-per-pixel */
"50 50 205 2 ",
"   c #1C1C1C",
".  c #1F201F",
"X  c #252625",
"o  c #262924",
"O  c #292B27",
"+  c #272728",
"@  c #2C2B2B",
"#  c #332E2A",
"$  c #2C3925",
"%  c #2D322A",
"&  c #30342E",
"*  c #3E352E",
"=  c #313B2C",
"-  c #2F2F30",
";  c #333333",
":  c #3A3633",
">  c #363A34",
",  c #373839",
"<  c #3B3C3B",
"1  c #4A3B34",
"2  c #443E3C",
"3  c #652B2F",
"4  c #35462C",
"5  c #36492D",
"6  c #394D2E",
"7  c #3B542F",
"8  c #3C5A2D",
"9  c #3D4937",
"0  c #3D413B",
"q  c #3E5333",
"w  c #3F5C31",
"e  c #43413E",
"r  c #48473A",
"t  c #5C493C",
"y  c #405E31",
"u  c #48573D",
"i  c #6C513F",
"p  c #71553C",
"a  c #436333",
"s  c #4A6F33",
"d  c #4C6A3D",
"f  c #4A7335",
"g  c #4D7C36",
"h  c #4B7338",
"j  c #527D3C",
"k  c #383E44",
"l  c #3B4141",
"z  c #434343",
"x  c #464847",
"c  c #4B4B4B",
"v  c #544A42",
"b  c #544C46",
"n  c #475441",
"m  c #485447",
"M  c #474C52",
"N  c #4C5052",
"B  c #545454",
"V  c #585A56",
"C  c #5B5B5B",
"Z  c #675846",
"A  c #775B47",
"S  c #685C52",
"D  c #4E6044",
"F  c #516646",
"G  c #587A48",
"H  c #596258",
"J  c #706546",
"K  c #7B634E",
"L  c #796556",
"P  c #5D6167",
"I  c gray38",
"U  c #667564",
"Y  c #727374",
"T  c #767779",
"R  c #8A674D",
"E  c #8D6A52",
"W  c #856C5A",
"Q  c #936D52",
"!  c #86705F",
"~  c #997155",
"^  c #AA7B59",
"/  c #B17C57",
"(  c #4F8037",
")  c #508237",
"_  c #53853A",
"`  c #558A3A",
"'  c #5B8C3D",
"]  c #57913A",
"[  c #5A943D",
"{  c #5D9D3D",
"}  c #629D3E",
"|  c #5EA13D",
" . c #61A53E",
".. c #63AB3F",
"X. c #598745",
"o. c #5E9542",
"O. c #748247",
"+. c #609446",
"@. c #66994B",
"#. c #668B5A",
"$. c #649759",
"%. c #64A545",
"&. c #65AB42",
"*. c #6AAC45",
"=. c #6CAD4B",
"-. c #78A848",
";. c #6EB14E",
":. c #6BA453",
">. c #75AE57",
",. c #78B356",
"<. c #7DB154",
"1. c #688F61",
"2. c #649263",
"3. c #759669",
"4. c #698579",
"5. c #70827B",
"6. c #719174",
"7. c #7AA971",
"8. c #8F9151",
"9. c #B5815B",
"0. c #BC855E",
"q. c #A89357",
"w. c #90A852",
"e. c #8AB45C",
"r. c #A0A454",
"t. c #9E866B",
"y. c #AC8668",
"u. c #BC8661",
"i. c #B18969",
"p. c #BF9471",
"a. c #83AF6E",
"s. c #86BA67",
"d. c #94B567",
"f. c #9AB06C",
"g. c #8BBC75",
"h. c #A6B76B",
"j. c #B6B06D",
"k. c #B6BB78",
"l. c #C1875E",
"z. c #C28962",
"x. c #C98D63",
"c. c #CC9767",
"v. c #D89567",
"b. c #DE9A67",
"n. c #C79A75",
"m. c #CC9D76",
"M. c #E39B67",
"N. c #E49B69",
"B. c #C9AD7D",
"V. c #D9A378",
"C. c #E5A97A",
"Z. c #8FC176",
"A. c #9AC176",
"S. c #637A86",
"D. c #747B85",
"F. c #697995",
"G. c #8C8C8A",
"H. c #839581",
"J. c #8A8D90",
"K. c #999B9B",
"L. c #94B286",
"P. c #9AA89B",
"I. c #9BB090",
"U. c #B4B68D",
"Y. c #8A97A5",
"T. c #93ABA4",
"R. c #AAB1AA",
"E. c #A3ACBD",
"W. c #BABBBC",
"Q. c #E1AF84",
"!. c #EAB689",
"~. c #F1BC8E",
"^. c #9FC88B",
"/. c #AAC784",
"(. c #AACE9C",
"). c #BAD2B6",
"_. c #CDCB97",
"`. c #E4C89B",
"'. c #F2C296",
"]. c #F2C69B",
"[. c #F4C99E",
"{. c #CFD1AB",
"}. c #D6D6AA",
"|. c #CFC6B0",
" X c #CFD4B2",
".X c #F4CBA1",
"XX c #F4D1AC",
"oX c #EAD9B8",
"OX c #F5D5B2",
"+X c #F5DBBC",
"@X c #BFC9CF",
"#X c #C8C9CA",
"$X c #C3D6C4",
"%X c #CDD1D7",
"&X c #E8DFC0",
"*X c #F4DEC1",
"=X c #D2E1CF",
"-X c #F3E1C6",
";X c #F7E4CC",
":X c #F8E5CD",
">X c #F1ECDE",
",X c #D5DBE3",
"<X c #DDE3E4",
"1X c #E6ECEB",
"2X c #F4F5F5",
/* pixels */
"....................................................................................................",
"....................................................................................................",
"....................................................................................................",
"....................................................................................................",
"............................$.%...*.;...............................................................",
"........................%.2.S.%.&.(.g.&.............................................................",
"....................%.2.S.F.2.g.).$X>.........] ` ` f q q q G F F F '  .............................",
"..................%.4.F.F.E.=X<X@X7.&.] g 5 5 & > z z c S L W ! ! ! L D X. .........................",
"..................X.k x %X2X%XT.:.g 4 % + & e x S W z.x.v.N.N.N.N.N.b.c.R u _  .....................",
"................g % , P 1X,XY.X.s O + X ; z N R x.N.N.N.N.N.N.N.C.~.'.'.'.V.K u [ ..................",
"..............| 4 < B B D.D.V n ] 4 + + + z z x A l.N.N.N.N.N.!.[.[.[.[.[.[.'.y.r [ ................",
"..............] ; c @ @ @ & z % ` { 4 X X + z E ~ L A 0.M.N.N.].[.[.[.XXOXOXXX].y.r [ ..............",
"..............j < @ 2 3 z B @ + U (.+.%     + e z.b.^ v A l.N.[.[.[.+X;X;X:X;XoXk.O.d  .............",
"......>.a...X.V T Y 3 1 , z + + D.1Xs.7 +     , K N.N.v.E v u.'.[.XX;X;X;X;X|.@.&...h [ ............",
"....&.R.I.) e z K.2XC e c @ + ; z 3.&.f +     @ b v.!.].~.i.v p.[.+X;X;X;X;Xd.7 { ..[ ` ............",
"....&.L.L._ < : G.>XB.8.r ~ i , z R.I.o.O     + 2 m..XOX.X[.i.v n.oX{./.}.&X,.| ..&.&. .............",
"......&.=.&.D t Q.h.*.*.c.N.R < z %XW.V +     @ 2 m.+X:X;X*X`.J K f.%...=.A.,.......................",
"............` q.h.&...d.].V.r x ; T C + +     , 2 m.-X;X;X|.>. .u d ......&.&.......................",
"..............&.&...s.oX[.Q x x Y #Xz + + X < z S C.*X}.g.q f ..| u [ ..............................",
"..................e.oX+XQ.2 B < T #XV < c B x x 9.N.j.=.&.] g ....[ | ..............................",
"................*.}.+X.XE x c ; z B C C B e Z ^ l.q.} ..,.;................................... . ...",
"................d.+X+XQ.: e < ; c B z < + # t @ + + = q W.^.&.&..............................._ ` ..",
"..............*._.+X].E + @ + + @ @ + + + + + ; < < < > ; n L. X&.*.&...&..................._ w | ..",
"..............<.*X;X'.1 , z < + ; < < < ; + , < < < , @ ; < H P.:.$Xs.=.Z.*..............._ % g ....",
"..............<.XXOX~.1 B C V < , < < < < < < < < < < ; + < < < n J.#.#.,X>. ....... .[ a % 8  .....",
"..............<.-X;X].A B C C x < < < < < < , < x B B < @ 1 : < < < < < B n u j _ d u 0 6 )  .......",
"..............*._.OX.X^ < V C c # , ; @ : @ @ x V C V z - R m.t.b < > < < < < < < > ; w | ..........",
"................e.+X*X!.* < c < # A A / x.A < V C C B < % ' w.h.U.U.L S > > % % 6 a )  .............",
"................&./.*X.X0.# + + # / M.M.b.9.< C C V z , 6 _ f ..&.=.=.*.| { | {  ...................",
"..................&.<.j.v.0.& + + 1 q.r.-.f + x B z , @ O O % ......................................",
"........................$ p O.> < y  ...&...g a @ @ % a O + 8 ......................................",
"....................| 8 . $ _ 0 > ` ........ .8 . o [ ` < = ] ......................................",
"..............| s a $ + % 9 > ; f .. .] a a 7 + + 9 d & & g ........................................",
"............:.m M X V I G.z @ = | &.1.l , X @ Y Y C , + a ..........................................",
"............7.#.5.a P.H.H.g g ] ..=.6.5.N 0 U J.K.G g (  ...........................................",
"............&...%...&.&.&...........&.%.+.o.&.@.@.&.................................................",
"....................................................................................................",
"....................................................................................................",
"....................................................................................................",
"....................................................................................................",
"....................................................................................................",
"....................................................................................................",
"....................................................................................................",
"....................................................................................................",
"....................................................................................................",
"....................................................................................................",
"....................................................................................................",
"....................................................................................................",
"....................................................................................................",
"...................................................................................................."
};
