/* XPM */
static char *fb9dbcce81924961ff92dbe2b1f02ea4d8rWjmI0ZUN6uSB2[] = {
/* columns rows colors chars-per-pixel */
"50 50 160 2 ",
"   c #090F08",
".  c #162710",
"X  c gray16",
"o  c #2E332F",
"O  c #303532",
"+  c #2F6902",
"@  c #326B08",
"#  c #2D7705",
"$  c #357D0D",
"%  c #377114",
"&  c #3C7519",
"*  c #397D18",
"=  c #345721",
"-  c #325921",
";  c #3E6B28",
":  c #4E7B3B",
">  c #484848",
",  c #6E7370",
"<  c gray48",
"1  c #288106",
"2  c #278409",
"3  c #2C890A",
"4  c #338007",
"5  c #36950C",
"6  c #378515",
"7  c #3A8117",
"8  c #3E981D",
"9  c #34A50E",
"0  c #37B80E",
"q  c #3DA017",
"w  c #37A911",
"e  c #3BAE14",
"r  c #3DA31B",
"t  c #36B310",
"y  c #3BBB10",
"u  c #3F8022",
"i  c #41AD15",
"p  c #448226",
"a  c #478B28",
"s  c #52952F",
"d  c #4D8731",
"f  c #528A38",
"g  c #529433",
"h  c #569B35",
"j  c #589837",
"k  c #59933D",
"l  c #599D39",
"z  c #56A534",
"x  c #59A236",
"c  c #5AAF34",
"v  c #5DA33C",
"b  c #5EB736",
"n  c #5EB238",
"m  c #60A73D",
"M  c #63AB3F",
"N  c #3AC30F",
"B  c #3ACC0C",
"V  c #3ED70D",
"C  c #3CD80B",
"Z  c #3AC211",
"A  c #3EE50B",
"S  c #3EEC09",
"D  c #42DC0F",
"F  c #46DC15",
"G  c #44E70F",
"H  c #40E90A",
"J  c #41F706",
"K  c #43F70A",
"L  c #46E619",
"P  c #4AE71C",
"I  c #4AF413",
"U  c #659B4E",
"Y  c #679B5A",
"T  c #5EB24B",
"R  c #64AB41",
"E  c #68AE46",
"W  c #65A34D",
"Q  c #67AE48",
"!  c #69AF49",
"~  c #6BB04C",
"^  c #6BAE55",
"/  c #6EB253",
"(  c #73B457",
")  c #74B65C",
"_  c #78B75F",
"`  c #75B761",
"'  c #77B862",
"]  c #7CB963",
"[  c #7CBB69",
"{  c #80BB69",
"}  c #80BC70",
"|  c #89BE70",
" . c #8AB878",
".. c #8BC173",
"X. c #86C078",
"o. c #8EC27A",
"O. c #848585",
"+. c #8EB888",
"@. c #B6B6B5",
"#. c #8DC482",
"$. c #93C683",
"%. c #98C787",
"&. c #95C885",
"*. c #9AC98C",
"=. c #9AD882",
"-. c #9CCB95",
";. c #A2CE9D",
":. c #A1D09F",
">. c #9BE894",
",. c #A0F782",
"<. c #B1F599",
"1. c #A6D0A1",
"2. c #A9D4A8",
"3. c #B2D4A8",
"4. c #B0D7B6",
"5. c #B5DAB6",
"6. c #B7D9B9",
"7. c #BCD9BB",
"8. c #C1DCBD",
"9. c #BEDDC5",
"0. c #C7CCC8",
"q. c #CDCECD",
"w. c #C0DCC2",
"e. c #D0D0D0",
"r. c #DADADA",
"t. c #CBE0C6",
"y. c #C5E1CA",
"u. c #CEE3CB",
"i. c #D3E6CF",
"p. c #CCE4D4",
"a. c #CFE5DA",
"s. c #D3E5D4",
"d. c #D8E6D7",
"f. c #D2E6D8",
"g. c #D7EADC",
"h. c #DCEAE3",
"j. c #DEEFED",
"k. c #E3EDE4",
"l. c #E8EDE7",
"z. c #E4EDEA",
"x. c #ECEEED",
"c. c #E8F2E7",
"v. c #E5F0EA",
"b. c #ECF1EE",
"n. c #F1F0EF",
"m. c #E5EFF1",
"M. c #EDEFF1",
"N. c #EEF3F2",
"B. c #F4F4F4",
"V. c #F8F7F7",
"C. c #F4F9F4",
"Z. c #F9FAF7",
"A. c #F5F7F8",
"S. c #F5F9F8",
"D. c #F9FAFA",
"F. c #FBFBFB",
"G. c #FAFCF9",
"H. c #FCFDFA",
"J. c #FBFCFC",
"K. c #FDFDFD",
/* pixels */
"M M M M M M M M M M M M M M M M M M M M M M M M M M M M M M M M M M M M M M M M M M M M M M M M M M ",
"M M M M M M M M M M M M M M M M M M M M M M M M M M M M M M M M M M M M M M M M M M M M M M M M M M ",
"M M M M M M M M M M M M M M M M M M M M M M M M M M M M M M M M M M M M M M M M M M M M M M M M M M ",
"M M M M M M M M M M M M M M M M M M M M M M M M M M M M M M M M M M M M M M M M M M M M M M M M M M ",
"M M M M M M M M M M M M M M M M M M M M M M M M M M M M M M M M M M M M M M M M M M M M M M M M M M ",
"M M M M M M M M M M M M M M M M M M M M M M M M M M M M M M M M M M M M M M M M M M M M M M M M M M ",
"M M M M M M M M M M M M M M M M M M M M M M M M M M M M M M M M M M M M M M M M M M M M M M M M M M ",
"M M M M M M M M M M M M M M M M M M M M M M M M M M M M M M M M M M M M M M M M M M M M M M M M M M ",
"M M M M M M M M M M M M M M M M M M M M M M M M M M M M M M M M M M M M M M M M M M M M M M M M M M ",
"M M M M M M M M M M M M M M M M M M M M M M M M M M M M M M M M M M M M M M M M M M M M M M M M M M ",
"M M M M M M M M M M M M M M M M M M M M M M M M M M M M M M M M M M M M M M M M M M M M M M M M M M ",
"M M M M M M M M M M M M M M M M M M M M M M M M M M M M M M M M / _ _ / M M M M M M M M M M M M M M ",
"M M M M M M M M M M M M M M M M M M M M M M M M M R R R M R ! #.y.z.v.p.) R M M M M M M M M M M M M ",
"M M M M M M M M M M M M M M M M M M M M M M M R R ;.5.5.` 6.9.m.x.B.B.n.p.6.#.R R R M M M M M M M M ",
"M M M M M M M M M M M M M M M M M M M M M M Q y.z.b.Z.N.z.C.G.H.H.K.K.K.G.B.b.z.5.[ R M M M M M M M ",
"M M M M M M M M M M M M M M M M M M R [ ;.;.1.h.B.Z.B.D.A.K.K.K.K.K.K.K.K.K.D.G.S.j.! M M M M M M M ",
"M M M M M M M M M M M R R R _ _ _ / [ f.B.B.M.N.M.N.A.K.K.K.A.A.A.A.A.B.K.K.K.D.D.b.2.M M M M M M M ",
"M M M M M M M M M M [ -.-.-.z.N.b.w.f.A.A.A.K.K.A.D.D.K.K.K.K.K.K.K.K.A.D.K.D.A.B.x.f.] M M M M M M ",
"M M M M M M M M M ( a.B.S.b.A.G.D.B.A.A.B.K.K.D.A.K.K.K.K.K.K.K.K.K.K.K.K.K.K.K.K.D.A.p.] M M M M M ",
"M M M M M M M M ' -.N.H.V.B.B.A.A.x.D.K.A.B.K.D.Z.K.D.D.D.K.K.K.K.K.K.K.K.K.K.K.K.K.K.B.p.' M M M M ",
"M M M M M M R ) f.B.A.K.K.K.D.B.A.D.D.A.A.B.K.K.K.K.A.D.D.K.K.K.K.K.K.K.K.K.K.K.K.K.K.K.A.p.) M M M ",
"M M M M M M R [ N.K.K.D.D.D.D.A.H.D.B.A.K.B.D.K.K.A.K.K.K.K.K.K.K.K.D.x.B.B.K.A.A.K.K.K.D.x.#.R M M ",
"M M M M M M R [ N.K.D.B.A.A.A.A.K.K.K.B.D.x.A.K.A.K.K.K.K.K.K.K.K.B.A.D.K.D.K.K.A.D.K.K.K.A.p.~ M M ",
"M M M M M M R ' h.A.r.e.D.K.K.K.A.H.D.B.B.B.D.D.A.K.K.K.K.K.K.K.K.A.K.K.K.K.K.K.A.D.K.K.D.B.p.~ M M ",
"M M M M M M M M X.h.O.X l.K.K.K.D.A.A.D.K.A.A.D.A.K.K.D.D.K.K.K.K.A.K.K.K.K.A.A.B.D.K.K.K.K.s.~ M M ",
"M M M M M M M M ! p.q.> l.K.K.K.K.A.D.K.K.D.A.K.K.K.K.A.D.K.K.K.K.A.K.K.K.K.D.D.D.B.J.J.K.A.9.! M M ",
"M M M M M M M M ! p.@.< B.K.K.K.K.A.D.K.K.A.A.K.K.K.K.A.K.K.K.K.K.A.K.K.K.K.K.K.K.A.N.B.k.1._ M M M ",
"M M M M M M M M ! p.B.K.K.K.K.K.D.A.K.K.A.B.K.K.K.K.K.D.A.K.K.K.K.A.D.K.K.K.K.K.K.K.A.x.y.R M M M M ",
"M M M M M M M M ) g.G.K.K.K.K.D.B.D.D.K.D.B.K.K.K.K.K.K.D.D.K.K.K.K.A.D.K.K.K.K.K.K.K.B.y.R M M M M ",
"M M M v j h h ^ p.G.K.K.K.G.S.x.D.N.z.B.B.D.K.K.K.K.A.D.K.K.K.K.K.K.D.D.K.A.K.D.K.K.D.x.$.M M M M M ",
"M M M g & $ $ Y B.H.K.G.G.C.4.:.p.;.} s.x.B.K.K.K.K.K.A.D.K.K.K.K.K.K.K.K.B.A.B.A.B.B.l._ M M M M M ",
"M M M M g r e T B.G.C.<.=.+.g g g l M $.x.x.A.K.K.K.K.D.x.A.K.K.K.K.K.K.K.x.x.x.x.b.M.8./ M M M M M ",
"M M M M M g r L >.c.,.I y w 9 5 % g M ~ t.x.A.B.D.K.K.A.A.k.S.K.K.K.K.K.D.B.l.z.D.D.B.*.M M M M M M ",
"M M M M M M u 5 P W i t 0 A t q g M M R 7.B.B.N.x.N.A.D.S.;.3.N.A.A.A.A.M.k.$.u.G.H.S.*.M M M M M M ",
"M M M h p p % + V Z # y S r a g M M M M { v.A.d.o.s.H.K.S.*.! o.u.z.z.z.z.$.R o.c.G.i.( M M M M M M ",
"M M l & 5 N N 4 V K 1 S A * m M M M M M R ..z.] R ( s.S.3.R M R R E E ..C.] M R *.v.~ M M M M M M M ",
"M M s @ 4 B J C 9 H 1 S A 7 M M M M M M R | l.] M M &.b.R M M M M M M U , W M M %.l.! M M M M M M M ",
"M M M x h 8 B K 3 F 2 G D 6 M M M M M M M f O k M M  .0.R M M M M M M f . g M M : o v M M M M M M M ",
"M M M M M v c b z n z n n x M M M M M M M g = j M M ;   v M M M M M M M m M M M d - M M M M M M M M ",
"M M M M M M M M M M M M M M M M M M M M M M M M M M l d M M M M M M M M M M M M M M M M M M M M M M ",
"M M M M M M M M M M M M M M M M M M M M M M M M M M M M M M M M M M M M M M M M M M M M M M M M M M ",
"M M M M M M M M M M M M M M M M M M M M M M M M M M M M M M M M M M M M M M M M M M M M M M M M M M ",
"M M M M M M M M M M M M M M M M M M M M M M M M M M M M M M M M M M M M M M M M M M M M M M M M M M ",
"M M M M M M M M M M M M M M M M M M M M M M M M M M M M M M M M M M M M M M M M M M M M M M M M M M ",
"M M M M M M M M M M M M M M M M M M M M M M M M M M M M M M M M M M M M M M M M M M M M M M M M M M ",
"M M M M M M M M M M M M M M M M M M M M M M M M M M M M M M M M M M M M M M M M M M M M M M M M M M ",
"M M M M M M M M M M M M M M M M M M M M M M M M M M M M M M M M M M M M M M M M M M M M M M M M M M ",
"M M M M M M M M M M M M M M M M M M M M M M M M M M M M M M M M M M M M M M M M M M M M M M M M M M ",
"M M M M M M M M M M M M M M M M M M M M M M M M M M M M M M M M M M M M M M M M M M M M M M M M M M ",
"M M M M M M M M M M M M M M M M M M M M M M M M M M M M M M M M M M M M M M M M M M M M M M M M M M "
};
