/* XPM */
static char *b0b0c22552cb448dacdee08b0e99b52axs2gsxKZ11qpwO0Q[] = {
/* columns rows colors chars-per-pixel */
"50 50 151 2 ",
"   c #47704C",
".  c #231C19",
"X  c #1F1818",
"o  c #1F1A18",
"O  c #231C19",
"+  c #32221D",
"@  c #34211E",
"#  c #2D281B",
"$  c #150E15",
"%  c #27211A",
"&  c #1E1718",
"*  c #1D1617",
"=  c #472724",
"-  c #2D1E1C",
";  c None",
":  c #5D3229",
">  c #261D1A",
",  c #3C451F",
"<  c #414D21",
"1  c #628429",
"2  c #80B531",
"3  c #373D1E",
"4  c #516725",
"5  c #638529",
"6  c #424E21",
"7  c #28251A",
"8  c #31201D",
"9  c #1B1917",
"0  c #4A2A24",
"q  c #2F1F1D",
"w  c #150515",
"e  c #63322C",
"r  c #201A18",
"t  c #AD6438",
"y  c #7D4231",
"u  c #4FBF27",
"i  c #96D936",
"p  c #B86C3A",
"a  c #23221A",
"s  c #1D1318",
"d  c #251C19",
"f  c #29251A",
"g  c #6A902B",
"h  c #975435",
"j  c #4CBD26",
"k  c #4A2825",
"l  c #35211E",
"z  c #361E1D",
"x  c #173520",
"c  c #B66B3A",
"v  c #55C129",
"b  c #0E6E2E",
"n  c #8AC733",
"m  c #5BC329",
"M  c #73CC2F",
"N  c #4C2624",
"B  c #0E5028",
"V  c #8FD534",
"C  c #A76139",
"Z  c #47B728",
"A  c #905033",
"S  c #9A5736",
"D  c #1A1616",
"F  c #50C126",
"G  c #BA6F3B",
"H  c #87D733",
"J  c #B16739",
"K  c #2C221C",
"L  c #753E2E",
"P  c #34A32A",
"I  c #435121",
"U  c #3E4D21",
"Y  c #4BBA27",
"T  c #221817",
"R  c #99DE37",
"E  c #B46A39",
"W  c #1E8B2E",
"Q  c #602E2C",
"!  c #BB723E",
"~  c #6F382E",
"^  c #A45E37",
"/  c #19812E",
"(  c #78CE30",
")  c #68C82C",
"_  c #894C33",
"`  c #47B429",
"'  c #9E5B36",
"]  c #946C40",
"[  c #61C52B",
"{  c #1A872E",
"}  c #0B6C2F",
"|  c #117B2F",
" . c #37A52A",
".. c #9BE137",
"X. c #6DCE2E",
"o. c #1B321F",
"O. c #2C972C",
"+. c #C88247",
"@. c #D69653",
"#. c #94DC35",
"$. c #824732",
"%. c #42B128",
"&. c #C99252",
"*. c #57422B",
"=. c #67332C",
"-. c #134B26",
";. c #C9884C",
":. c #0F5328",
">. c #AF7042",
",. c #89D433",
"<. c #2E9C2B",
"1. c #0D762F",
"2. c #3F2820",
"3. c #28201A",
"4. c #8DCA33",
"5. c #80D131",
"6. c #76492F",
"7. c #3FAE29",
"8. c #07692F",
"9. c #C07B44",
"0. c #26912C",
"q. c #3DAB29",
"w. c #1D281C",
"e. c #213C21",
"r. c #483022",
"t. c #8ECC34",
"y. c #583827",
"u. c #679D2E",
"i. c #BC824A",
"p. c #CD8E4E",
"a. c #533D28",
"s. c #455221",
"d. c #0F582A",
"f. c #0E622C",
"g. c #0B7230",
"h. c #8B623B",
"j. c #07642F",
"k. c #1D892D",
"l. c #4A2524",
"z. c #DC9F58",
"x. c #556E26",
"c. c #875733",
"v. c #255B28",
"b. c #42712A",
"n. c #492424",
"m. c #4A2423",
"M. c #4F2A25",
"N. c #77B932",
"B. c #84BB31",
"V. c #5E862B",
"C. c #465222",
/* pixels */
"O         * X & s s s s s s s s s s s s s s s s s s s s s s s s s s s s s s s s s s & X *         O ",
"  O     o . 7 % f f f f f f f f f f f f f f f f f f f f f f f f f f f f f f f f f f % 7 . o     O   ",
"    o $ . # , 6 I I I I I I I I I I I I I I I I I I I I I I I I I I I I I I I I I I 6 , # . $ o     ",
"    $ w X 3 4 5 g g g g g g g g g g g g g g g g g g g g g g g g g g g g g g g g g g 5 4 3 X w $     ",
"  o . X + < 1 2 4.t.n n n n n n n n n n n n n n n n n n n n n n n n n n n n n n t.4.2 1 < + X . o   ",
"* . # 3 < x.u.t.....R R R R R R R #.#.H H H ,.H H H H H H H H i #.#.i H H i #.R ....4.u.x.< 3 # . * ",
"X 7 , 4 1 u.B.V ....R R R R R R R #.H 5.X.X.X.X.X.X.X.X.X.X.5.H #.#.H ( ( H #.R ....V B.u.1 4 , 7 X ",
"& % 6 5 2 4.V V i i i i i i i i i V ( ) v v v v v v v v v v ) 5.V ,.M [ [ M ,.i i i V V 4.2 5 6 % & ",
"s f I g 4.R #.,.,.V i i i i i i i V M m u u v m v u j j j u m M 5.( ) v v ) ( ,.V i i ....4.g I f s ",
"s f s.g 4.#.H M M 5.V i i i i i i V M m u v ) M ) m j j j u m [ ) ) m u u m ) M 5.V i ....t.g I f s ",
"s f I g n H X.[ [ ( ,.i i i i i i V M m v [ ( 5.( [ u j j j u u v v u j j u v [ M ,.i R R n g I f s ",
"s f s.g n H X.v m M ,.i i i i i i V M m v [ ( 5.( [ u Z ` %.7.7.7.%.Z Y j j j v ) ( ,.#.#.n g I f s ",
"s f C.g 4.H X.v m M V i i i i i i V ( [ u m ) M ) m j %. .<.O.0.O.<.q.Z j j j u m ) ( H #.4.g s.f s ",
"s f s.g n H X.v m M ,.i i i i i i V ( [ u u v m v v Y q.O./ | | / W P ` j u j j u v [ ( H n g s.f s ",
"s f U V.N.M [ v m ) 5.,.V ,.,.V ,.5.M m u j j j u u Y  .W 1.} } g./ <.%.u u u j j j v ) M N.V.U f s ",
"s a e.b.u.` Y j m [ M M M M M M M M ) m F j j j j u Y  .k.g.8.j.} | O.%.u u u j j u j Y ` u.b.e.a s ",
"T a e.v./ O.q.Z F m m m m m m m m m v F u j j j u u Y  .W 1.8.8.b / O.%.u u u j u u Z q.O./ v.e.a T ",
"T a o.B } / <.7.Z Y j u u u u u u j Y Z ` Z Y j u u Y q.0./ 1.1.| k.<.` u F u j Y Z 7.<./ } B o.a T ",
"T a o.-.8.| W O. .%.Y u u u u u u Y %. .P q.` u F F j %.P O.0.0.0.<.q.Y F F F Y %. .O.W | 8.-.o.a T ",
"T a o.B 8.1.| / 0. .Z u F u u u u Z  .0.W O.7.j F F u Y ` 7.q.q.q.%.Z j u F u Z  .0./ | 1.8.B o.a T ",
"T a o.-.f.} b g./ O.q.Z Y Z Z Z Z 7.O./ | k.P ` Y Z Z Z ` ` ` ` ` ` ` Z Z Y Z q.O./ g.b } f.-.o.a T ",
"T a w.e.-.d.j.} | W <.P P P P P P <.W | 1./ 0.P P P P P P  . . . . .P P P P P <.W | } j.d.-.e.w.a T ",
"d d a w.o.-.d.8.1./ { k.k.k.k.k.k.{ | 1.g.| / k.k.k.k.k.k.W W W W W k.k.k.k.k.{ / 1.8.d.-.o.w.a d d ",
"d d d d a o.-.f.} b b b b b b b b b } } } } b b b b b b b b b b b b b b b b b b b } f.-.o.a d d d d ",
"d d r T r w.e.-.:.:.:.B B B B B B B :.:.:.:.:.B B B B B B B B B B B B B B B B :.:.:.-.e.w.r T r d d ",
"d d r T r a w.o.x x x x x x x x x x x x x x x x x x x x x x x x x x x x x x x x x x o.w.a r T r d d ",
"d d d 3.3.3.3.a a a a a a a a a a a a a a a a a a a a a a a a a a a a a a a a a a a a 3.3.3.3.d d d ",
"r d K 2.r.r.2.l z z z z z z z z z z z z z z z z z z z z z z z z z z z z z z z z z z l 2.r.r.2.K d r ",
"r 3.2.y.6.6.=.M.l.n.m.l.l.N N N N N N N N N N N N N N N N N N N N N N N N N N N n.m.M.=.L 6.y.2.3.r ",
"D 3.r.6.' ' $.~ e e e =.e e e e e e e e e e e e e e e e e e e e e e e e e e e e e e ~ _ ' ' 6.r.3.D ",
"D K y.c.>.p ' $.y $._ _ $.y y y y y y y y y y y y y y y y y y y y y y y y y y y $._ A C ! >.c.y.K D ",
"D K a.h.i.+.>.' ' C >.>.C ' h h h h h h h h h h h h h h S S S S S S h h h h h S C >.>.i.;.i.h.a.K D ",
"D K *.] ;.p.9.c >.9.;.;.9.c t t t t t t t t t t t t t t t t t t t t t t t t t E 9.;.&.@.@.p.] a.K D ",
"D K *.] &.@.+.! ! +.p.p.+.! p c p p p p p p p p p p c E t C C ^ C t J E p p p ! +.p.@.z.z.&.] *.K D ",
"D K *.] &.@.+.! ! 9.+.+.9.! G G G G G p p p p p G G c t ' A _ _ A h ^ J p G G ! 9.+.;.@.z.&.] *.K D ",
"D K *.] &.@.+.! p G ! ! G p c c c c c c c c c c p p E ^ _ y ~ ~ L $.h t p p p p p ! 9.;.@.&.] *.K D ",
"D K *.] &.@.+.! E E c E J t C C C C t J c c c c p p J ' $.~ e Q =.L A t E J t C t J ! +.@.&.] *.K D ",
"D K *.] &.@.;.! c E E t ^ h A _ A A ' t E p p c p p J ' $.=.Q Q e L A C J ^ h A S t G ;.@.&.] *.K D ",
"D K *.] &.@.+.! c c c C h $.L ~ L y A ^ E p p c p p J ' $.~ e Q =.L h t t h $.y A ^ G ;.@.&.] *.K D ",
"D K a.h.i.;.9.G c p c C A L =.Q e ~ _ ^ E p p c p p E ^ _ y ~ ~ L $.S t t h y y A C G +.;.i.h.a.K D ",
"D 3.r.6.] >.>.p G G p C A L e Q Q ~ _ ^ c G G p G G c t ' A _ _ A h C J J ^ A A ' t p ! >.] 6.r.3.D ",
"r 3.2.y.6.h ^ J p G p C A L =.Q e ~ _ ^ E G p p p p c E t C C ^ C t J E E J C C J E J C h 6.y.2.3.r ",
"& % @ = : L A ^ J J t ' _ L =.e e ~ $.S t J J t t t t t t t t t t t t t t t t t J t ^ A L : = @ % & ",
"X > q + k ; L A S S h A y ~ =.e =.~ y _ h S h h h h h h S S S S S S h h h S S S S S A L ; k + q > X ",
"* . # - @ 2.: L y y y L L ~ =.=.=.=.~ L y y y y y y y y y y y y y y y y y y y y y y L : 2.@ - # . * ",
"  o . X + @ 0 ; e =.e e e e e e e e e e e e e e e e e e e e e e e e e e e e e e =.e ; 0 @ + X . o   ",
"    $ 9 X - + = k k k k k M.M.M.M.M.k k k k k k k k k k k k k k k k k k k k k k k k = + - X 9 $     ",
"    o $ . # 8 @ l l l l l l l l l l l l l l l l l l l l l l l l l l l l l l l l l l @ 8 # . $ o     ",
"  O     o . > % d d d d d d d d d d d d d d d d d d d d d d d d d d d d d d d d d d % > . o     O   ",
"O         * X & r r r r r r r r r r r r r r r r r r r r r r r r r r r r r r r r r r & X *         O "
};
