/* XPM */
static char *_953e8b147f640f28bb6ae50deedf2bc[] = {
/* columns rows colors chars-per-pixel */
"50 50 171 2 ",
"   c #414355",
".  c #4B5060",
"X  c #607D79",
"o  c #9E5017",
"O  c #A24A15",
"+  c #A24F1A",
"@  c #905F26",
"#  c #A75121",
"$  c #8A6C26",
"%  c #87742B",
"&  c #827A2A",
"*  c #B37B56",
"=  c #7E812C",
"-  c #7B8231",
";  c #6F9736",
":  c #6E9A37",
">  c #6B9E3A",
",  c #729335",
"<  c #65A63D",
"1  c #69A23B",
"2  c #63AB3F",
"3  c #629857",
"4  c #5FA949",
"5  c #5BA756",
"6  c #5EA954",
"7  c #59A65C",
"8  c #62A645",
"9  c #64AB42",
"0  c #6BA942",
"q  c #68A947",
"w  c #69AF49",
"e  c #75A645",
"r  c #76A848",
"t  c #6DB14E",
"y  c #68AF58",
"u  c #7BA058",
"i  c #6EB251",
"p  c #71B354",
"a  c #75B65B",
"s  c #7BB158",
"d  c #618A69",
"f  c #608373",
"g  c #57A562",
"h  c #54A46A",
"j  c #4EA07E",
"k  c #52A371",
"l  c #71B461",
"z  c #79B962",
"x  c #7FBD6A",
"c  c #77B97D",
"v  c #839040",
"b  c #939E4E",
"n  c #9A9C50",
"m  c #A69954",
"M  c #BA945A",
"N  c #B19A5D",
"B  c #85A249",
"V  c #8CA04C",
"C  c #90A150",
"Z  c #BD896D",
"A  c #83B26B",
"S  c #80BE6D",
"D  c #91A174",
"F  c #90BF7E",
"G  c #D28D62",
"H  c #DA8C64",
"J  c #F5846D",
"K  c #FA8673",
"L  c #E29070",
"P  c #CDA077",
"I  c #C4A77D",
"U  c #86C175",
"Y  c #88C277",
"T  c #8BC47C",
"R  c #3E99AC",
"E  c #3C97B4",
"W  c #3996BB",
"Q  c #4B9F89",
"!  c #469D93",
"~  c #499E97",
"^  c #439B9F",
"/  c #75808D",
"(  c #4FA288",
")  c #54A483",
"_  c #6EB48D",
"`  c #419AA4",
"'  c #449DB6",
"]  c #3795C3",
"[  c #3E9AC4",
"{  c #3695CB",
"}  c #3D9ACB",
"|  c #479FCF",
" . c #56A8CC",
".. c #4BA1D1",
"X. c #58A9D3",
"o. c #64AFC0",
"O. c #65B1D9",
"+. c #77BCDE",
"@. c #83909B",
"#. c #A29785",
"$. c #A7BD86",
"%. c #BBB89A",
"&. c #8997A1",
"*. c #A2B4BC",
"=. c #F79B8E",
"-. c #C3BB96",
";. c #F4A498",
":. c #C099AC",
">. c #D193BE",
",. c #C9ACBF",
"<. c #8EC681",
"1. c #93C285",
"2. c #92C886",
"3. c #94CA8B",
"4. c #9BCF95",
"5. c #A0D19D",
"6. c #81C0A2",
"7. c #85C3B5",
"8. c #A3D4A1",
"9. c #A9D2A6",
"0. c #A6D6AB",
"q. c #ABD9AE",
"w. c #AEDBB2",
"e. c #ADD8B6",
"r. c #BAD7B6",
"t. c #B0DCB5",
"y. c #B3DEBB",
"u. c #D3C8B3",
"i. c #D88EC4",
"p. c #D896C8",
"a. c #D9A2CE",
"s. c #DAB7D9",
"d. c #94CCCF",
"f. c #A2D4C7",
"g. c #B9CED5",
"h. c #BBD1D8",
"j. c #B7E0C0",
"k. c #B9E1C3",
"l. c #BEE4CB",
"z. c #94CDE6",
"x. c #97CFE8",
"c. c #9DD2E9",
"v. c #A5D7EB",
"b. c #B2DEEF",
"n. c #B8E2E8",
"m. c #CDC1CD",
"M. c #D1CEC5",
"N. c #D0DED4",
"B. c #E6DBD8",
"V. c #C0E6CF",
"C. c #C4E7D4",
"Z. c #C6EAD7",
"A. c #CAECDD",
"S. c #DBCEE5",
"D. c #C5DDE2",
"F. c #DCD9EB",
"G. c #CCEDE2",
"H. c #D8E1EA",
"J. c #D0E9ED",
"K. c #CFF0E6",
"L. c #D0F0E7",
"P. c #D3F2EB",
"I. c #CBEDF6",
"U. c #DDE5F1",
"Y. c #DAEEF4",
"T. c #D6F4F2",
"R. c #DBF4F5",
"E. c #D4F3F9",
"W. c #DCF5F9",
"Q. c #DEF9FC",
"!. c #E2E9E8",
/* pixels */
"2 2 2 2 2 2 2 2 2 2 2 2 2 2 2 2 2 2 2 2 2 2 2 2 2 2 2 2 2 2 2 2 2 2 2 2 2 2 2 2 2 2 2 2 2 2 2 2 2 2 ",
"2 2 2 2 2 2 2 2 2 2 2 2 2 2 2 2 2 2 2 2 2 2 2 2 2 2 2 2 2 2 2 2 2 2 2 2 2 2 2 2 2 2 2 2 2 2 2 2 2 2 ",
"2 2 2 2 2 2 2 2 2 2 2 2 2 2 2 2 2 2 2 2 2 2 2 2 2 2 2 2 2 2 2 2 2 2 2 2 2 2 2 2 2 2 2 2 2 2 2 2 2 2 ",
"2 2 2 2 2 2 2 2 2 2 2 2 2 2 2 2 2 2 2 2 2 2 2 2 2 2 2 2 2 2 2 2 2 2 2 2 2 2 2 2 2 2 2 2 2 2 2 2 2 2 ",
"2 2 2 2 2 2 2 2 2 2 2 2 2 2 2 2 2 2 2 2 2 2 2 2 2 2 2 2 2 2 2 2 2 2 2 2 2 2 2 2 2 2 2 2 2 2 2 2 2 2 ",
"2 2 2 2 2 2 2 2 2 2 2 2 2 2 2 2 2 2 2 2 2 2 2 2 2 2 2 2 2 2 2 2 2 2 2 2 2 2 2 2 2 2 2 2 2 2 2 2 2 2 ",
"2 2 2 2 2 2 2 2 2 2 2 2 2 2 2 2 2 2 2 2 2 2 2 2 2 2 2 2 2 2 2 2 2 2 2 2 2 2 2 2 2 2 2 2 2 2 2 2 2 2 ",
"2 2 2 2 2 2 2 2 2 2 2 2 2 2 2 2 2 2 2 2 2 2 2 2 2 2 2 2 2 2 2 2 2 2 2 2 2 2 2 2 2 2 2 2 2 2 2 2 2 2 ",
"2 2 2 2 2 2 2 2 2 2 2 2 2 2 2 2 2 2 2 2 2 2 2 2 2 2 2 2 2 2 2 2 2 2 2 2 2 2 2 2 2 2 2 2 2 2 2 2 2 2 ",
"2 2 2 2 2 2 < < < 2 2 2 2 2 2 0 0 0 2 2 2 2 2 2 2 2 2 2 2 2 2 2 2 2 2 2 2 2 2 2 2 2 2 2 2 2 2 2 2 2 ",
"2 2 2 2 2 1 & $ % : 2 2 2 2 0 n M M B 2 2 2 2 2 2 2 2 2 2 2 2 2 2 2 2 2 2 2 2 2 2 2 2 2 2 2 2 2 2 2 ",
"2 2 2 2 2 1 $ o O & : 2 2 0 V G J H b 2 2 2 2 2 2 2 2 2 2 2 2 2 2 2 2 2 2 2 2 2 2 2 2 2 2 2 2 2 2 2 ",
"2 2 2 2 2 2 1 & O + % 0 9 C H J H B 0 2 2 2 2 2 2 2 2 2 2 2 2 2 2 2 2 2 2 2 2 2 2 2 2 2 2 2 2 2 2 2 ",
"2 2 2 2 2 2 2 = # Z %.9.0.-.K K G e 2 2 2 2 2 2 2 2 2 2 2 2 2 2 2 2 2 2 2 2 2 2 2 2 2 2 2 2 2 2 2 2 ",
"2 2 2 2 2 2 2 v * M.Q.Q.Q.B.;.=.P r 2 2 2 2 2 2 2 2 2 2 2 2 2 2 2 2 2 2 2 2 2 2 2 2 2 2 2 2 2 2 2 2 ",
"2 2 2 2 9 9 9 F N.R.Q.Q.Q.R.!.!.r.p 9 9 9 0 2 2 2 2 2 2 2 2 2 2 2 2 2 2 2 2 2 2 2 2 2 2 2 2 2 2 2 2 ",
"2 2 2 2 7 Q Q 7.E.Q.Q.Q.Q.Q.Q.Q.G.q.8.8.8.S 2 2 2 2 2 2 2 2 2 2 2 2 2 2 2 2 2 2 2 2 2 2 2 2 2 2 2 2 ",
"2 2 2 2 k R ] +.E.Q.Q.W.D.g.h.J.W.U.U.H.C.<.2 2 2 2 2 2 2 2 2 2 2 2 2 2 2 2 2 2 2 2 2 2 2 2 2 2 2 2 ",
"2 2 2 2 4 g R +.E.Q.Q.J./   . *.F.p.i.:.A t 0 2 2 2 2 2 2 0 9 9 9 9 0 2 2 2 2 2 2 2 2 2 2 2 2 2 2 2 ",
"2 2 2 2 2 8 k 7.E.Q.Q.Y.*.@.&.h.F.i.a.m.9.8.3.t 2 2 2 2 t 3.8.8.8.8.4.a 2 2 2 2 2 2 2 2 2 2 2 2 2 2 ",
"2 2 2 2 2 2 2 3.T.Q.Q.Q.Q.Q.Q.Q.F.a.S.Q.Q.Q.A.Y z z z z Y Z.Q.Q.Q.Q.L.3.z a w 2 2 2 2 2 2 2 2 2 2 2 ",
"2 2 2 2 2 2 2 3.T.Q.Q.Q.Q.Q.Q.Q.W.U.R.Q.Q.Q.R.G.A.A.A.A.G.R.Q.Q.Q.Q.W.K.A.V.U 2 2 2 2 2 2 2 2 2 2 2 ",
"2 2 2 2 2 2 2 3.T.Q.Q.Q.Q.Q.Q.Q.Q.Q.Q.Q.Q.Q.Q.Q.Q.Q.Q.Q.Q.Q.Q.Q.Q.Q.Q.Q.Q.T.y.T w 2 2 2 2 2 2 2 2 2 ",
"2 2 2 2 2 2 2 1.H.U.Y.W.Q.Q.Q.Q.Q.Q.Q.Q.Q.Q.Q.Q.Q.Q.Q.Q.Q.Q.Q.Q.Q.Q.Q.Q.Q.Q.Q.l.x w 2 2 2 2 2 2 2 2 ",
"2 2 2 2 2 2 2 D >.p.s.R.Q.Q.Q.Q.Q.Q.Q.Q.Q.Q.Q.Q.Q.Q.Q.Q.Q.Q.Q.Q.Q.Q.Q.Q.Q.Q.Q.T.C.Y 2 2 2 2 2 2 2 2 ",
"2 2 2 2 2 2 2 u #.,.S.E.v.d.0.A.Q.Q.Q.Q.Q.Q.Q.Q.Q.Q.Q.Q.Q.Q.Q.Q.Q.Q.Q.Q.Q.Q.Q.Q.P.2.2 2 2 2 2 2 2 2 ",
"2 2 2 2 2 2 2 2 i q.G.n.O.^ y t.Q.Q.Q.Q.Q.Q.Q.Q.Q.Q.Q.Q.Q.Q.Q.Q.Q.Q.Q.Q.Q.Q.Q.Q.T.4.p 9 2 2 2 2 2 2 ",
"2 2 2 2 2 2 2 2 9 a _  .} ^ y t.Q.Q.Q.Q.Q.Q.Q.Q.Q.Q.Q.Q.Q.Q.Q.Q.Q.Q.Q.Q.Q.Q.Q.Q.Q.G.0.i 2 2 2 2 2 2 ",
"2 2 2 2 2 2 2 2 2 2 k W ` k y t.Q.Q.Q.Q.Q.Q.Q.Q.Q.Q.Q.Q.Q.Q.Q.Q.Q.Q.Q.Q.Q.Q.Q.G.w.A.A.5.z 2 2 2 2 2 ",
"2 2 2 2 2 2 2 2 2 2 h ` h 9 w 8.L.W.Q.Q.Q.Q.Q.Q.Q.Q.Q.Q.Q.Q.Q.Q.Q.Q.Q.Q.Q.Q.Q.j.z 8.G.Z.<.2 2 2 2 2 ",
"2 2 2 2 2 2 2 2 2 2 4 7 4 2 9 a 4.L.Q.Q.Q.Q.Q.Q.Q.Q.Q.Q.Q.Q.Q.Q.Q.Q.Q.Q.Q.Q.Q.j.p a x z i 2 2 2 2 2 ",
"2 2 2 2 2 2 2 2 2 2 2 2 2 2 2 2 a 8.A.Q.Q.Q.Q.Q.Q.Q.Q.Q.E.v.z.c.I.Q.Q.Q.Q.R.k.2.w 2 2 2 2 2 2 2 2 2 ",
"2 2 2 2 2 2 2 2 2 2 2 2 2 2 2 2 0 t w.Q.Q.Q.Q.Q.Q.Q.Q.T.n.X.} ..b.Q.Q.Q.Q.P.<.9 2 2 2 2 2 2 2 2 2 2 ",
"2 2 2 2 2 2 2 2 2 2 2 2 2 2 2 2 2 w q.Q.Q.Q.Q.Q.Q.Q.Q.y.c ' { ..b.Q.Q.Q.Q.L.T 2 2 2 2 2 2 2 2 2 2 2 ",
"2 2 2 2 2 2 2 2 2 2 2 2 2 2 2 2 2 9 6.x.z.f.y.T.Q.Q.Q.8.6 R { ..b.Q.Q.Q.Q.T.w.Y w 2 2 2 2 2 2 2 2 2 ",
"2 2 2 2 2 2 2 2 2 2 2 2 2 2 2 2 2 8 ( [ [ ) S G.Q.W.L.4.6 ^ ] | v.E.Q.Q.Q.Q.R.y.i 2 2 2 2 2 2 2 2 2 ",
"2 2 2 2 2 2 2 2 2 2 2 2 2 2 2 2 2 9 5 j W j z A.Q.G.3.a 8 7 ! } X.z.E.Q.Q.Q.Q.j.i 2 2 2 2 2 2 2 2 2 ",
"2 2 2 2 2 2 2 2 2 2 2 2 2 2 2 2 2 2 2 g E j z A.Q.A.z 2 2 2 g ! W o.e.K.Q.Q.Q.j.i 2 2 2 2 2 2 2 2 2 ",
"2 2 2 2 2 2 2 2 2 2 2 2 2 2 2 2 2 2 2 g E j z l.T.A.z 2 2 2 9 5 R ~ l y.L.L.R.j.i 2 2 2 2 2 2 2 2 2 ",
"2 2 2 2 2 2 2 2 2 2 2 2 2 2 2 2 2 2 9 g E j w S y.A.z 2 2 2 2 6 ` ! q z Y <.V.j.i 2 2 2 2 2 2 2 2 2 ",
"2 2 2 2 2 2 2 2 2 2 2 2 2 2 2 2 2 2 2 3 X 3 2 9 8.A.z 2 2 2 2 8 f d 8 2 2 t y.j.i 2 2 2 2 2 2 2 2 2 ",
"2 2 2 2 2 2 2 2 2 2 2 2 2 2 2 2 2 2 2 , @ - 2 9 8.A.z 2 2 2 2 > $ % < 2 2 t r.r.t 2 2 2 2 2 2 2 2 2 ",
"2 2 2 2 2 2 2 2 2 2 2 2 2 2 2 2 2 2 2 1 , > 2 9 8.A.z 2 2 2 2 < , ; 2 2 2 0 I I r 2 2 2 2 2 2 2 2 2 ",
"2 2 2 2 2 2 2 2 2 2 2 2 2 2 2 2 2 2 2 2 2 2 2 0 $.u.s 2 2 2 2 2 2 2 2 2 2 0 m m 0 2 2 2 2 2 2 2 2 2 ",
"2 2 2 2 2 2 2 2 2 2 2 2 2 2 2 2 2 2 2 2 2 2 2 2 N L r 2 2 2 2 2 2 2 2 2 2 2 0 0 2 2 2 2 2 2 2 2 2 2 ",
"2 2 2 2 2 2 2 2 2 2 2 2 2 2 2 2 2 2 2 2 2 2 2 2 e B 0 2 2 2 2 2 2 2 2 2 2 2 2 2 2 2 2 2 2 2 2 2 2 2 ",
"2 2 2 2 2 2 2 2 2 2 2 2 2 2 2 2 2 2 2 2 2 2 2 2 2 2 2 2 2 2 2 2 2 2 2 2 2 2 2 2 2 2 2 2 2 2 2 2 2 2 ",
"2 2 2 2 2 2 2 2 2 2 2 2 2 2 2 2 2 2 2 2 2 2 2 2 2 2 2 2 2 2 2 2 2 2 2 2 2 2 2 2 2 2 2 2 2 2 2 2 2 2 ",
"2 2 2 2 2 2 2 2 2 2 2 2 2 2 2 2 2 2 2 2 2 2 2 2 2 2 2 2 2 2 2 2 2 2 2 2 2 2 2 2 2 2 2 2 2 2 2 2 2 2 ",
"2 2 2 2 2 2 2 2 2 2 2 2 2 2 2 2 2 2 2 2 2 2 2 2 2 2 2 2 2 2 2 2 2 2 2 2 2 2 2 2 2 2 2 2 2 2 2 2 2 2 "
};
