/* XPM */
static char *_d555f44522041eab22ae99f44fa77c9mr30gQuGjUDe3nyb[] = {
/* columns rows colors chars-per-pixel */
"50 50 169 2 ",
"   c #090F07",
".  c #14230E",
"X  c #172810",
"o  c #192913",
"O  c #272727",
"+  c #346D0B",
"@  c #2F7906",
"#  c #307504",
"$  c #347511",
"%  c #377F12",
"&  c #387815",
"*  c #3A7719",
"=  c #36781D",
"-  c #305025",
";  c #335922",
":  c #397F22",
">  c #406E29",
",  c #417E23",
"<  c #43792A",
"1  c #4C4C4C",
"2  c #515151",
"3  c #585858",
"4  c #6A6A6A",
"5  c #727272",
"6  c #2D8008",
"7  c #2D8809",
"8  c #308D07",
"9  c #318808",
"0  c #2E990B",
"q  c #37970E",
"w  c #309D0C",
"e  c #399614",
"r  c #3B971A",
"t  c #2EA109",
"y  c #37A50C",
"u  c #36AB0B",
"i  c #39AB0B",
"p  c #39B30D",
"a  c #3ABA0E",
"s  c #39A311",
"d  c #38A315",
"f  c #37A910",
"g  c #39AF11",
"h  c #3EAB19",
"j  c #34B110",
"k  c #429019",
"l  c #42A818",
"z  c #488321",
"x  c #438D27",
"c  c #47802D",
"v  c #4B8C2B",
"b  c #419323",
"n  c #4D932E",
"m  c #4B9B2E",
"M  c #52952C",
"N  c #4E8731",
"B  c #4D8B32",
"V  c #538B39",
"C  c #4D9230",
"Z  c #549435",
"A  c #559A32",
"S  c #58963A",
"D  c #579E3A",
"F  c #5A9C3A",
"G  c #4BB227",
"H  c #5DA23B",
"J  c #5EA83B",
"K  c #60A73E",
"L  c #63AB3F",
"P  c #37C90F",
"I  c #3ACC0C",
"U  c #3DD30E",
"Y  c #3EDB0C",
"T  c #3CCD10",
"R  c #3CE10B",
"E  c #3FF906",
"W  c #3DF808",
"Q  c #40D90F",
"!  c #42C815",
"~  c #42E60C",
"^  c #41F507",
"/  c #48EC10",
"(  c #4AF018",
")  c #56C130",
"_  c #5AC037",
"`  c #659348",
"'  c #689C58",
"]  c #64A545",
"[  c #65AC42",
"{  c #68AE47",
"}  c #6AAF49",
"|  c #6BB04C",
" . c #6EB252",
".. c #71B354",
"X. c #75B55B",
"o. c #7AB75F",
"O. c #79B761",
"+. c #7CB965",
"@. c #7BC95B",
"#. c #6EE84A",
"$. c #84BC6D",
"%. c #84BB72",
"&. c #89BE74",
"*. c #8AC077",
"=. c #8BC27A",
"-. c #92C27D",
";. c #868685",
":. c #8D8D8D",
">. c #979797",
",. c #A9BC97",
"<. c #A8A8A8",
"1. c #8DC582",
"2. c #92C581",
"3. c #98C587",
"4. c #94C789",
"5. c #9CC789",
"6. c #9AC88B",
"7. c #9DCB93",
"8. c #97CA99",
"9. c #A6C996",
"0. c #A4CC9C",
"q. c #A7D1A6",
"w. c #A9D2A4",
"e. c #ADD4AB",
"r. c #B2D4AC",
"t. c #B5D6B2",
"y. c #B8D5B0",
"u. c #BBDABC",
"i. c #C4CFB8",
"p. c #C2DEBB",
"a. c #BDDDC5",
"s. c #CED7C2",
"d. c #C2DEC4",
"f. c #C6E1CD",
"g. c #C9E2CD",
"h. c #D1E0CC",
"j. c #D3F3C7",
"k. c #CCE3D1",
"l. c #D4E4D2",
"z. c #DBE3D5",
"x. c #D1E5D9",
"c. c #D9E6D9",
"v. c #DBE9DA",
"b. c #D7EBE7",
"n. c #DDEBE4",
"m. c #E3E4E1",
"M. c #E3ECE4",
"N. c #E8EDE7",
"B. c #E5ECEA",
"V. c #EDEEEE",
"C. c #E9F3E6",
"Z. c #E3F0EB",
"A. c #EDF1EE",
"S. c #F0F1EE",
"D. c #E4EFF1",
"F. c #E9EFF0",
"G. c #EEF2F1",
"H. c #F3F4F4",
"J. c #F5F8F6",
"K. c #F8F8F7",
"L. c #F6F6F8",
"P. c #F5F9F9",
"I. c #F9F9F9",
"U. c #F9FAF9",
"Y. c #FBFBFB",
"T. c #FBFCFA",
"R. c #FCFDFB",
"E. c #FBFCFC",
"W. c #FDFDFD",
/* pixels */
"L L L L L L L L L L L L L L L L L L L L L L L L L L L L L L L L L L L L L L L L L L L L L L L L L L ",
"L L L L L L L L L L L L L L L L L L L L L L L L L L L L L L L L L L L L L L L L L L L L L L L L L L ",
"L L L L L L L L L L L L L L L L L L L L L L L L L L L L L L L L L L L L L L L L L L L L L L L L L L ",
"L L L L L L L L L L L L L L L L L L L L L L L L L L L L L L L L L L L L L L L L L L L L L L L L L L ",
"L L L L L L L L L L L L L L L L L L L L L L L L L L L L L L L L L L L L L L L L L L L L L L L L L L ",
"L L L L L L L L L L L L L L L L L L L L L L L L L L L L L L L L L L L L L L L L L L L L L L L L L L ",
"L L L L L L L L L L L L L L L L L L L L L L L L L L L L L L L L L L L L L L L L L L L L L L L L L L ",
"L L L L L L L L L L L L L L L L L L L L L L L L L L L L L L L L L L L L L L L L L L L L L L L L L L ",
"L L L L L L L L L L L L L L L L L L L L L L L L L L L L L L L L L L L L L L L L L L L L L L L L L L ",
"L L L L L L L L L L L L L L L L L L L L L L L L L L L L L L L L L L L L L L L L L L L L L L L L L L ",
"L L L L L L L L L L L L L L L L L L L L L L L L L L L L L L L L L L L L L L L L L L L L L L L L L L ",
"L L L L L L L L L L L L L L L L L L L L L L L L L L L L L L L L  .X.X. .L L L L L L L L L L L L L L ",
"L L L L L L L L L L L L L L } e.g.6.$.g.k.t.O.a.x.k.8.x.x.4.} 1.u.n.Z.f...[ L L L L L L L L L L L L ",
"L L L L L L L L L L L L L [ q.G.L.A.B.L.E.U.B.H.W.L.F.L.A.0.a.D.V.H.H.S.k.e.*.[ [ [ L L L L L L L L ",
"L L L L L L L L L L L L L  .B.L.E.G.L.U.H.H.V.U.U.H.V.H.A.H.T.T.R.W.W.R.T.H.A.v.e.+.[ L L L L L L L ",
"L L L L L L L L L L L L | d.H.H.W.W.W.U.U.W.W.L.H.V.H.A.U.W.W.W.W.W.W.W.W.W.U.U.P.b.} L L L L L L L ",
"L L L L L L L L L L L L 4.U.R.W.W.U.L.U.W.W.W.W.U.H.W.U.L.W.L.L.L.L.L.H.W.W.W.U.U.V.q.L L L L L L L ",
"L L L L L L L L L L L [ 7.A.H.W.U.H.U.W.L.H.L.W.W.L.W.L.H.W.W.W.W.W.W.L.U.W.U.L.H.V.l.X.L L L L L L ",
"L L L L L L L L L L L o.B.U.W.W.R.U.W.W.W.W.H.W.W.W.W.H.H.U.W.W.W.W.W.W.W.W.W.W.W.U.L.f.O.L L L L L ",
"L L L L L L L L L L L o.M.U.H.U.W.W.V.H.W.V.H.W.W.W.W.H.H.U.W.W.W.W.W.W.W.W.W.W.W.W.W.H.u.X.L L L L ",
"L L L L L L L L L L L [ 7.G.H.W.U.W.2 5 H.O >.U.L.W.L.V.H.W.W.W.W.W.W.W.W.W.W.W.W.W.W.W.G.u...L L L ",
"L L L L L L L L L L L } t.U.K.W.H.W.2 <.L.4 :.U.L.U.V.V.H.W.W.W.W.W.U.V.H.H.W.L.L.W.W.W.U.B.*.[ L L ",
"L L L L L L L L L L L O.B.U.W.W.G.W.3 :.L.1 >.U.H.V.V.H.U.W.W.W.W.H.L.U.W.U.W.W.L.U.W.W.W.H.k.| L L ",
"L L L L L L L L L L L ..g.L.T.W.H.W.W.W.W.W.W.W.V.V.U.W.W.W.W.W.W.L.W.W.W.W.W.W.L.U.W.W.U.H.k.| L L ",
"L L L L L L L L L L L L  .*.F.J.H.W.W.W.W.W.W.L.H.U.W.U.U.W.W.W.W.L.W.W.W.W.L.L.H.U.W.W.W.W.k.| L L ",
"L L L L L L L L L L L L K L } 7.V.W.W.W.W.W.W.H.L.W.W.L.U.W.W.W.W.L.W.W.W.W.U.U.U.H.E.E.W.G.u.} L L ",
"L L L L L L L L L L H C & = D L n.W.W.W.W.W.U.H.i.z.W.L.W.W.W.W.U.L.W.W.W.W.W.W.W.L.G.H.v.7.X.L L L ",
"L L L K F H H L L L C d r B L L %.N.K.V.W.m.H.s.v ` H.U.L.W.W.W.W.L.U.W.W.W.W.W.W.W.L.V.d.[ L L L L ",
"L L L Z * % $ C J C e a x L L [ : @.h.<.L.;.j.G Y M A.W.U.U.W.W.W.W.H.U.W.W.W.W.W.W.W.H.r.[ L L L L ",
"L L L L C h s e v $ p I b Z S S = I #.9.C.j.) l k ,.L.U.W.W.W.W.W.W.U.U.W.L.W.U.W.W.U.n.&.[ L L L L ",
"L L L L L n h ~ y 8 ^ R g s s $ < a U V _ ( u z.H.R.W.H.U.W.W.W.W.W.W.W.W.H.L.H.L.H.S.l.X.L L L L L ",
"L L L L L L * y Q 6 u j Y P g x D q m +.' a y M.W.W.W.H.N.L.W.W.W.W.W.W.W.V.V.V.V.V.V.r...L L L L L ",
"L L L A , , + # Y p 9 Y I b v J L H L { 0.c z m.U.U.U.v.5.l.A.W.W.W.W.W.U.M.l.N.U.U.H.2.L L L L L L ",
"L L D & q U T 7 ~ Y w W i n L L L L L [ t.r.N.A.l.l.9.o.+.7.6.G.L.L.L.L.V.c.=.p.T.T.C.2.L L L L L L ",
"L L A + @ I ^ Y t U w E u A L L L L L L o.0.&.y.$.9.} [ $.*.} $.u.n.B.M.M.&.[ &.M.K.p...L L L L L L ",
"L L L L J r U ~ 0 ! w / f m L L L L L L [ | u...[ } 3...-.L L L [ [ { X.X.[ L [ 3.g.| L L L L L L L ",
"L L L L L L L L L L L L L L L L L L L L L L ] [ L L =.w.[ L L L L L L S - S L L $.%.[ L L L L L L L ",
"L L L L L L L L L L L L L L L L L L L L L N X Z L L ] ` L L L L L L L V o Z L L < . H L L L L L L L ",
"L L L L L L L L L L L L L L L L L L L L L Z ; S L L >   J L L L L L L L K L L L N ; L L L L L L L L ",
"L L L L L L L L L L L L L L L L L L L L L L L L L L F N L L L L L L L L L L L L L L L L L L L L L L ",
"L L L L L L L L L L L L L L L L L L L L L L L L L L L L L L L L L L L L L L L L L L L L L L L L L L ",
"L L L L L L L L L L L L L L L L L L L L L L L L L L L L L L L L L L L L L L L L L L L L L L L L L L ",
"L L L L L L L L L L L L L L L L L L L L L L L L L L L L L L L L L L L L L L L L L L L L L L L L L L ",
"L L L L L L L L L L L L L L L L L L L L L L L L L L L L L L L L L L L L L L L L L L L L L L L L L L ",
"L L L L L L L L L L L L L L L L L L L L L L L L L L L L L L L L L L L L L L L L L L L L L L L L L L ",
"L L L L L L L L L L L L L L L L L L L L L L L L L L L L L L L L L L L L L L L L L L L L L L L L L L ",
"L L L L L L L L L L L L L L L L L L L L L L L L L L L L L L L L L L L L L L L L L L L L L L L L L L ",
"L L L L L L L L L L L L L L L L L L L L L L L L L L L L L L L L L L L L L L L L L L L L L L L L L L ",
"L L L L L L L L L L L L L L L L L L L L L L L L L L L L L L L L L L L L L L L L L L L L L L L L L L ",
"L L L L L L L L L L L L L L L L L L L L L L L L L L L L L L L L L L L L L L L L L L L L L L L L L L "
};
